#N canvas 656 74 863 935 10;
#X obj 28 18 tgl 18 0 empty empty empty 0 -9 0 10 #fcfcfc #000000 #000000 0 1;
#X obj 28 41 else/tempo -mul 4 100;
#X obj 28 83 int;
#X obj 63 83 + 1;
#X obj 28 105 s COUNTER;
#N canvas 271 191 1233 806 arrays 0;
#X obj 74 347 array set \$0-steps-t1;
#X obj 203 132 pack 0 \$0;
#X msg 203 162 symbol \$2-pattern-\$1;
#X obj 203 108 + 1;
#X obj 74 279 array get \$0-pattern-1;
#X obj 45 141 until;
#X msg 45 119 4;
#X obj 74 176 int;
#X obj 102 175 + 1;
#X msg 89 152 0;
#X obj 245 280 pack 0 \$0;
#X obj 245 256 + 1;
#X msg 245 307 symbol \$2-steps-t\$1;
#X obj 74 215 t f f, f 29;
#N canvas 154 161 1611 732 array_define 0;
#X obj 19 17 array define -yrange 0 1 \$0-steps-t1 64;
#X obj 19 41 array define -yrange 0 1 \$0-steps-t2 64;
#X obj 19 65 array define -yrange 0 1 \$0-steps-t3 64;
#X obj 19 89 array define -yrange 0 1 \$0-steps-t4 64;
#X obj 297 57 array define -yrange 0 127 \$0-vel-t1 64;
#X obj 297 81 array define -yrange 0 127 \$0-vel-t2 64;
#X obj 297 105 array define -yrange 0 127 \$0-vel-t3 64;
#X obj 297 129 array define -yrange 0 127 \$0-vel-t4 64;
#X obj 24 223 cnv 18 300 105 empty empty empty 20 12 0 10 #e0e0e0 #404040 0;
#X obj 30 266 cnv 18 65 57 empty empty empty 20 12 0 10 #feffc6 #404040 0;
#X text 31 225 Pattern[];
#X obj 546 57 array define -yrange 0 100 \$0-prob-t1 64;
#X obj 546 81 array define -yrange 0 100 \$0-prob-t2 64;
#X obj 546 105 array define -yrange 0 100 \$0-prob-t3 64;
#X obj 546 129 array define -yrange 0 100 \$0-prob-t4 64;
#X text 33 280 t1-v[64];
#X text 33 265 t1-s[64];
#X text 42 247 T1[0];
#X obj 297 4 loadbang;
#X msg 297 26 const 127;
#X obj 546 5 loadbang;
#X msg 546 28 const 100;
#X obj 297 182 array define -yrange 1 64 \$0-steps_lenght 4;
#X msg 297 162 const 16;
#X obj 344 206 loadbang;
#X msg 344 229 const 500;
#X text 33 294 t1-p[64];
#X text 33 308 t1-l[64];
#X obj 106 266 cnv 18 65 57 empty empty empty 20 12 0 10 #feffc6 #404040 0;
#X obj 179 266 cnv 18 65 57 empty empty empty 20 12 0 10 #feffc6 #404040 0;
#X obj 251 266 cnv 18 65 57 empty empty empty 20 12 0 10 #feffc6 #404040 0;
#X text 109 265 t2-s[64];
#X text 109 280 t2-v[64];
#X text 109 294 t2-p[64];
#X text 109 308 t2-l[64];
#X text 182 265 t3-s[64];
#X text 182 280 t3-v[64];
#X text 182 294 t3-p[64];
#X text 182 308 t3-l[64];
#X text 254 265 t4-s[64];
#X text 254 280 t4-v[64];
#X text 254 294 t4-p[64];
#X text 254 308 t4-l[64];
#X obj 605 201 *;
#X floatatom 605 223 5 0 0 0 - - - 0;
#X text 115 248 T2[256];
#X floatatom 605 266 5 0 0 0 - - - 0;
#X text 185 248 T3[512];
#X text 258 248 T4[768];
#X obj 605 244 * 4;
#X msg 605 179 64 4;
#X obj 15 119 array define -yrange 0 127 \$0-pattern-1 1024;
#X obj 15 143 array define -yrange 0 127 \$0-pattern-2 1024;
#X obj 15 167 array define -yrange 0 127 \$0-pattern-3 1024;
#X obj 15 191 array define -yrange 0 127 \$0-pattern-4 1024;
#X obj 344 258 array define -yrange 0 1000 \$0-len-t1 64;
#X obj 344 282 array define -yrange 0 1000 \$0-len-t2 64;
#X obj 344 306 array define -yrange 0 1000 \$0-len-t3 64;
#X obj 344 330 array define -yrange 0 1000 \$0-len-t4 64;
#X connect 18 0 19 0;
#X connect 18 0 23 0;
#X connect 19 0 4 0;
#X connect 19 0 7 0;
#X connect 19 0 6 0;
#X connect 19 0 5 0;
#X connect 20 0 21 0;
#X connect 21 0 11 0;
#X connect 21 0 12 0;
#X connect 21 0 14 0;
#X connect 21 0 13 0;
#X connect 23 0 22 0;
#X connect 24 0 25 0;
#X connect 25 0 55 0;
#X connect 25 0 56 0;
#X connect 25 0 57 0;
#X connect 25 0 58 0;
#X connect 43 0 44 0;
#X connect 44 0 49 0;
#X connect 49 0 46 0;
#X connect 50 0 43 0;
#X restore 14 10 pd array_define;
#X text 155 82 Loading from pattern into steps;
#X msg 139 248 64;
#X obj 74 249 * 64;
#X obj 58 744 array set \$0-pattern-1;
#X obj 187 679 pack 0 \$0;
#X msg 187 709 symbol \$2-pattern-\$1;
#X obj 187 655 + 1;
#X obj 58 613 t l b;
#X obj 74 60 r PATTERN_SEL;
#X obj 187 631 r PATTERN_SEL;
#X obj 181 441 r TRACK_SEL;
#X obj 181 494 pack 0 \$0;
#X obj 181 470 + 1;
#X msg 181 524 symbol \$2-steps-t\$1;
#X msg 91 649 64;
#X obj 91 703 * 0;
#X obj 106 676 r TRACK_SEL;
#X text 120 607 Writing from steps into pattern;
#X obj 600 113 pack 0 \$0;
#X msg 600 143 symbol \$2-pattern-\$1;
#X obj 600 89 + 1;
#X obj 471 294 array get \$0-pattern-1;
#X obj 442 122 until;
#X msg 442 100 4;
#X obj 471 157 int;
#X obj 499 156 + 1;
#X obj 471 63 t b b f;
#X msg 486 133 0;
#X obj 642 295 pack 0 \$0;
#X obj 642 271 + 1;
#X obj 471 196 t f f, f 29;
#X msg 536 263 64;
#X obj 471 232 * 64;
#X obj 471 41 r PATTERN_SEL;
#X text 552 63 Loading from pattern into velocity;
#X obj 471 362 array set \$0-vel-t1;
#X msg 642 322 symbol \$2-vel-t\$1;
#X obj 471 263 + 256;
#X obj 1005 117 pack 0 \$0;
#X msg 1005 147 symbol \$2-pattern-\$1;
#X obj 1005 93 + 1;
#X obj 876 298 array get \$0-pattern-1;
#X obj 847 126 until;
#X msg 847 104 4;
#X obj 876 161 int;
#X obj 904 160 + 1;
#X obj 876 67 t b b f;
#X msg 891 137 0;
#X obj 1047 299 pack 0 \$0;
#X obj 1047 275 + 1;
#X obj 876 200 t f f, f 29;
#X msg 941 267 64;
#X obj 876 236 * 64;
#X obj 876 45 r PATTERN_SEL;
#X text 957 68 Loading from pattern into probability;
#X msg 1047 326 symbol \$2-prob-t\$1;
#X obj 876 366 array set \$0-prob-t1;
#X obj 876 267 + 512;
#X obj 433 752 array set \$0-pattern-1;
#X obj 562 687 pack 0 \$0;
#X msg 562 717 symbol \$2-pattern-\$1;
#X obj 562 663 + 1;
#X obj 433 536 t b l;
#X obj 433 621 t l b;
#X obj 562 639 r PATTERN_SEL;
#X obj 556 449 r TRACK_SEL;
#X obj 556 502 pack 0 \$0;
#X obj 556 478 + 1;
#X msg 466 643 64;
#X obj 466 692 * 0;
#X obj 481 665 r TRACK_SEL;
#X text 495 615 Writing from velocity into pattern;
#X obj 481 722 + 256;
#X msg 556 532 symbol \$2-vel-t\$1;
#X obj 460 563 array set \$0-vel-t2;
#X obj 838 750 array set \$0-pattern-1;
#X obj 967 685 pack 0 \$0;
#X msg 967 715 symbol \$2-pattern-\$1;
#X obj 967 661 + 1;
#X obj 838 534 t b l;
#X obj 838 619 t l b;
#X obj 967 637 r PATTERN_SEL;
#X obj 961 447 r TRACK_SEL;
#X obj 961 500 pack 0 \$0;
#X obj 961 476 + 1;
#X msg 871 641 64;
#X obj 871 690 * 0;
#X obj 886 663 r TRACK_SEL;
#X msg 961 530 symbol \$2-prob-t\$1;
#X obj 865 561 array set \$0-prob-t2;
#X obj 886 720 + 512;
#X obj 838 509 r \$0-prob-input;
#X obj 250 333 print STEPS;
#X obj 650 344 print VEL;
#X obj 1055 348 print PROB;
#X obj 87 306 print STEPS;
#X obj 484 321 print VEL;
#X obj 889 325 print PROB;
#X text 900 613 Writing from probability into pattern;
#X obj 58 584 array get \$0-steps-t1;
#X obj 74 82 t b b f;
#N canvas 324 71 1271 913 initialize 0;
#X obj 73 421 array set \$0-pattern-1;
#X obj 73 314 t l b;
#X msg 112 340 64;
#X obj 112 370 * 0;
#X obj 121 396 + 256;
#X obj 73 139 until;
#X obj 73 161 i;
#X obj 109 161 + 1;
#X obj 73 285 array get \$0-vel-t1;
#X obj 163 227 pack 0 \$0;
#X obj 163 200 + 1;
#X msg 163 254 symbol \$2-vel-t\$1;
#X msg 119 130 0;
#X obj 73 2 loadbang;
#X obj 202 361 pack 0 \$0;
#X obj 202 334 + 1;
#X msg 73 117 4;
#X obj 73 183 t b f f, f 11;
#X obj 73 47 until;
#X obj 73 69 i;
#X obj 109 69 + 1;
#X msg 119 38 0;
#X msg 73 25 4;
#X msg 202 388 symbol \$2-pattern-\$1;
#X obj 73 91 t b b f, f 22;
#X obj 347 429 array set \$0-pattern-1;
#X obj 347 322 t l b;
#X msg 386 348 64;
#X obj 386 378 * 0;
#X obj 347 147 until;
#X obj 347 169 i;
#X obj 383 169 + 1;
#X obj 437 235 pack 0 \$0;
#X obj 437 208 + 1;
#X msg 393 138 0;
#X obj 347 10 loadbang;
#X obj 476 369 pack 0 \$0;
#X obj 476 342 + 1;
#X msg 347 125 4;
#X obj 347 191 t b f f, f 11;
#X obj 347 55 until;
#X obj 347 77 i;
#X obj 383 77 + 1;
#X msg 393 46 0;
#X msg 347 33 4;
#X msg 476 396 symbol \$2-pattern-\$1;
#X obj 347 99 t b b f, f 22;
#X msg 437 262 symbol \$2-prob-t\$1;
#X obj 347 293 array get \$0-prob-t1;
#X obj 395 404 + 512;
#X obj 645 442 array set \$0-pattern-1;
#X obj 645 335 t l b;
#X msg 684 361 64;
#X obj 684 391 * 0;
#X obj 645 160 until;
#X obj 645 182 i;
#X obj 681 182 + 1;
#X obj 735 248 pack 0 \$0;
#X obj 735 221 + 1;
#X msg 691 151 0;
#X obj 645 23 loadbang;
#X obj 774 382 pack 0 \$0;
#X obj 774 355 + 1;
#X msg 645 138 4;
#X obj 645 204 t b f f, f 11;
#X obj 645 68 until;
#X obj 645 90 i;
#X obj 681 90 + 1;
#X msg 691 59 0;
#X msg 645 46 4;
#X msg 774 409 symbol \$2-pattern-\$1;
#X obj 645 112 t b b f, f 22;
#X msg 735 275 symbol \$2-len-t\$1;
#X obj 645 306 array get \$0-len-t1;
#X obj 693 417 + 768;
#X connect 1 0 0 0;
#X connect 1 1 2 0;
#X connect 2 0 3 0;
#X connect 3 0 4 0;
#X connect 4 0 0 1;
#X connect 5 0 6 0;
#X connect 6 0 7 0;
#X connect 6 0 17 0;
#X connect 7 0 6 1;
#X connect 8 0 1 0;
#X connect 9 0 11 0;
#X connect 10 0 9 0;
#X connect 11 0 8 2;
#X connect 12 0 6 1;
#X connect 13 0 22 0;
#X connect 14 0 23 0;
#X connect 15 0 14 0;
#X connect 16 0 5 0;
#X connect 17 0 8 0;
#X connect 17 1 3 1;
#X connect 17 2 10 0;
#X connect 18 0 19 0;
#X connect 19 0 20 0;
#X connect 19 0 24 0;
#X connect 20 0 19 1;
#X connect 21 0 19 1;
#X connect 22 0 18 0;
#X connect 23 0 0 2;
#X connect 24 0 16 0;
#X connect 24 1 12 0;
#X connect 24 2 15 0;
#X connect 26 0 25 0;
#X connect 26 1 27 0;
#X connect 27 0 28 0;
#X connect 28 0 49 0;
#X connect 29 0 30 0;
#X connect 30 0 31 0;
#X connect 30 0 39 0;
#X connect 31 0 30 1;
#X connect 32 0 47 0;
#X connect 33 0 32 0;
#X connect 34 0 30 1;
#X connect 35 0 44 0;
#X connect 36 0 45 0;
#X connect 37 0 36 0;
#X connect 38 0 29 0;
#X connect 39 0 48 0;
#X connect 39 1 28 1;
#X connect 39 2 33 0;
#X connect 40 0 41 0;
#X connect 41 0 42 0;
#X connect 41 0 46 0;
#X connect 42 0 41 1;
#X connect 43 0 41 1;
#X connect 44 0 40 0;
#X connect 45 0 25 2;
#X connect 46 0 38 0;
#X connect 46 1 34 0;
#X connect 46 2 37 0;
#X connect 47 0 48 2;
#X connect 48 0 26 0;
#X connect 49 0 25 1;
#X connect 51 0 50 0;
#X connect 51 1 52 0;
#X connect 52 0 53 0;
#X connect 53 0 74 0;
#X connect 54 0 55 0;
#X connect 55 0 56 0;
#X connect 55 0 64 0;
#X connect 56 0 55 1;
#X connect 57 0 72 0;
#X connect 58 0 57 0;
#X connect 59 0 55 1;
#X connect 60 0 69 0;
#X connect 61 0 70 0;
#X connect 62 0 61 0;
#X connect 63 0 54 0;
#X connect 64 0 73 0;
#X connect 64 1 53 1;
#X connect 64 2 58 0;
#X connect 65 0 66 0;
#X connect 66 0 67 0;
#X connect 66 0 71 0;
#X connect 67 0 66 1;
#X connect 68 0 66 1;
#X connect 69 0 65 0;
#X connect 70 0 50 2;
#X connect 71 0 63 0;
#X connect 71 1 59 0;
#X connect 71 2 62 0;
#X connect 72 0 73 2;
#X connect 73 0 51 0;
#X connect 74 0 50 1;
#X restore 130 12 pd initialize;
#X obj 392 505 r NB2_VEL_INPUT_SIG;
#X obj 731 469 r NB2_PROB_INPUT_SIG;
#X obj 58 546 r TGL_STEP_INPUT_SIG;
#X obj 433 592 array get \$0-vel-t1, f 21;
#X obj 838 590 array get \$0-prob-t1, f 21;
#X obj 1382 114 pack 0 \$0;
#X msg 1382 144 symbol \$2-pattern-\$1;
#X obj 1382 90 + 1;
#X obj 1253 295 array get \$0-pattern-1;
#X obj 1224 123 until;
#X msg 1224 101 4;
#X obj 1253 158 int;
#X obj 1281 157 + 1;
#X obj 1253 64 t b b f;
#X msg 1268 134 0;
#X obj 1424 296 pack 0 \$0;
#X obj 1424 272 + 1;
#X obj 1253 197 t f f, f 29;
#X msg 1318 264 64;
#X obj 1253 233 * 64;
#X obj 1253 42 r PATTERN_SEL;
#X text 1334 65 Loading from pattern into lenght;
#X obj 1253 363 array set \$0-len-t1;
#X obj 1432 345 print LEN;
#X msg 1424 323 symbol \$2-len-t\$1;
#X obj 1253 264 + 768;
#X obj 1266 322 print LEN;
#X obj 1280 759 array set \$0-pattern-1;
#X obj 1409 694 pack 0 \$0;
#X msg 1409 724 symbol \$2-pattern-\$1;
#X obj 1409 670 + 1;
#X obj 1280 543 t b l;
#X obj 1280 628 t l b;
#X obj 1409 646 r PATTERN_SEL;
#X obj 1403 456 r TRACK_SEL;
#X obj 1403 509 pack 0 \$0;
#X obj 1403 485 + 1;
#X msg 1313 650 64;
#X obj 1313 699 * 0;
#X obj 1328 672 r TRACK_SEL;
#X obj 1307 570 array set \$0-prob-t2;
#X obj 1280 518 r \$0-prob-input;
#X obj 1173 478 r NB2_LEN_INPUT_SIG;
#X msg 1403 539 symbol \$2-len-t\$1;
#X obj 1280 599 array get \$0-len-t1, f 21;
#X obj 1328 729 + 768;
#X text 1342 622 Writing from lenght into pattern;
#X connect 1 0 2 0;
#X connect 2 0 4 2;
#X connect 3 0 1 0;
#X connect 4 0 0 0;
#X connect 4 0 110 0;
#X connect 5 0 7 0;
#X connect 6 0 5 0;
#X connect 7 0 8 0;
#X connect 7 0 13 0;
#X connect 8 0 7 1;
#X connect 9 0 7 1;
#X connect 10 0 12 0;
#X connect 11 0 10 0;
#X connect 12 0 0 2;
#X connect 12 0 107 0;
#X connect 13 0 17 0;
#X connect 13 1 11 0;
#X connect 16 0 4 1;
#X connect 17 0 4 0;
#X connect 19 0 20 0;
#X connect 20 0 18 2;
#X connect 21 0 19 0;
#X connect 22 0 18 0;
#X connect 22 1 29 0;
#X connect 23 0 115 0;
#X connect 24 0 21 0;
#X connect 25 0 27 0;
#X connect 26 0 28 0;
#X connect 27 0 26 0;
#X connect 28 0 114 2;
#X connect 29 0 30 0;
#X connect 30 0 18 1;
#X connect 31 0 30 1;
#X connect 33 0 34 0;
#X connect 34 0 36 2;
#X connect 35 0 33 0;
#X connect 36 0 50 0;
#X connect 36 0 111 0;
#X connect 37 0 39 0;
#X connect 38 0 37 0;
#X connect 39 0 40 0;
#X connect 39 0 45 0;
#X connect 40 0 39 1;
#X connect 41 0 38 0;
#X connect 41 1 46 0;
#X connect 41 1 42 0;
#X connect 41 2 35 0;
#X connect 42 0 39 1;
#X connect 43 0 51 0;
#X connect 44 0 43 0;
#X connect 45 0 47 0;
#X connect 45 1 44 0;
#X connect 46 0 36 1;
#X connect 47 0 52 0;
#X connect 48 0 41 0;
#X connect 51 0 50 2;
#X connect 51 0 108 0;
#X connect 52 0 36 0;
#X connect 53 0 54 0;
#X connect 54 0 56 2;
#X connect 55 0 53 0;
#X connect 56 0 71 0;
#X connect 56 0 112 0;
#X connect 57 0 59 0;
#X connect 58 0 57 0;
#X connect 59 0 60 0;
#X connect 59 0 65 0;
#X connect 60 0 59 1;
#X connect 61 0 58 0;
#X connect 61 1 66 0;
#X connect 61 1 62 0;
#X connect 61 2 55 0;
#X connect 62 0 59 1;
#X connect 63 0 70 0;
#X connect 64 0 63 0;
#X connect 65 0 67 0;
#X connect 65 1 64 0;
#X connect 66 0 56 1;
#X connect 67 0 72 0;
#X connect 68 0 61 0;
#X connect 70 0 71 2;
#X connect 70 0 109 0;
#X connect 72 0 56 0;
#X connect 74 0 75 0;
#X connect 75 0 73 2;
#X connect 76 0 74 0;
#X connect 77 0 120 0;
#X connect 77 1 89 0;
#X connect 78 0 73 0;
#X connect 78 1 83 0;
#X connect 79 0 76 0;
#X connect 80 0 82 0;
#X connect 81 0 88 0;
#X connect 82 0 81 0;
#X connect 83 0 84 0;
#X connect 84 0 87 0;
#X connect 85 0 84 1;
#X connect 87 0 73 1;
#X connect 88 0 89 2;
#X connect 88 0 120 2;
#X connect 91 0 92 0;
#X connect 92 0 90 2;
#X connect 93 0 91 0;
#X connect 94 1 104 0;
#X connect 95 0 90 0;
#X connect 95 1 100 0;
#X connect 96 0 93 0;
#X connect 97 0 99 0;
#X connect 98 0 103 0;
#X connect 99 0 98 0;
#X connect 100 0 101 0;
#X connect 101 0 105 0;
#X connect 102 0 101 1;
#X connect 103 0 104 2;
#X connect 103 0 121 2;
#X connect 105 0 90 1;
#X connect 106 0 94 0;
#X connect 114 0 22 0;
#X connect 115 0 6 0;
#X connect 115 1 9 0;
#X connect 115 1 16 0;
#X connect 115 2 3 0;
#X connect 117 0 120 0;
#X connect 118 0 121 0;
#X connect 119 0 114 0;
#X connect 120 0 78 0;
#X connect 121 0 95 0;
#X connect 122 0 123 0;
#X connect 123 0 125 2;
#X connect 124 0 122 0;
#X connect 125 0 139 0;
#X connect 125 0 143 0;
#X connect 126 0 128 0;
#X connect 127 0 126 0;
#X connect 128 0 129 0;
#X connect 128 0 134 0;
#X connect 129 0 128 1;
#X connect 130 0 127 0;
#X connect 130 1 135 0;
#X connect 130 1 131 0;
#X connect 130 2 124 0;
#X connect 131 0 128 1;
#X connect 132 0 141 0;
#X connect 133 0 132 0;
#X connect 134 0 136 0;
#X connect 134 1 133 0;
#X connect 135 0 125 1;
#X connect 136 0 142 0;
#X connect 137 0 130 0;
#X connect 141 0 139 2;
#X connect 141 0 140 0;
#X connect 142 0 125 0;
#X connect 145 0 146 0;
#X connect 146 0 144 2;
#X connect 147 0 145 0;
#X connect 148 1 157 0;
#X connect 149 0 144 0;
#X connect 149 1 154 0;
#X connect 150 0 147 0;
#X connect 151 0 153 0;
#X connect 152 0 160 0;
#X connect 153 0 152 0;
#X connect 154 0 155 0;
#X connect 155 0 162 0;
#X connect 156 0 155 1;
#X connect 158 0 148 0;
#X connect 159 0 161 0;
#X connect 160 0 157 2;
#X connect 160 0 161 2;
#X connect 161 0 149 0;
#X connect 162 0 144 1;
#X restore 366 7 pd arrays;
#X obj 172 59 hradio 12 1 0 4 empty empty pattern 0 -9 0 10 #fcfcfc #000000 #000000 0;
#X obj 29 190 hradio 12 1 0 4 empty empty track 0 -9 0 10 #fcfcfc #000000 #000000 0;
#X obj 29 212 s TRACK_SEL;
#X obj 199 117 s PATTERN_SEL;
#X msg 48 62 0;
#X obj 253 95 print PATTERN;
#X obj 253 71 + 1;
#X obj 29 239 tgl 25 0 \$0-s-tgl-step-0 \$0-r-tgl-step-0 1 9 12 0 12 #fcfcfc #000000 #000000 0 1;
#X obj 60 239 tgl 25 0 \$0-s-tgl-step-1 \$0-r-tgl-step-1 2 9 12 0 12 #fcfcfc #000000 #000000 0 1;
#X obj 91 239 tgl 25 0 \$0-s-tgl-step-2 \$0-r-tgl-step-2 3 9 12 0 12 #fcfcfc #000000 #000000 0 1;
#X obj 122 239 tgl 25 0 \$0-s-tgl-step-3 \$0-r-tgl-step-3 4 9 12 0 12 #fcfcfc #000000 #000000 0 1;
#X obj 153 239 tgl 25 0 \$0-s-tgl-step-4 \$0-r-tgl-step-4 5 9 12 0 12 #fcfcfc #000000 #000000 0 1;
#X obj 184 239 tgl 25 0 \$0-s-tgl-step-5 \$0-r-tgl-step-5 6 9 12 0 12 #fcfcfc #000000 #000000 0 1;
#X obj 215 239 tgl 25 0 \$0-s-tgl-step-6 \$0-r-tgl-step-6 7 9 12 0 12 #fcfcfc #000000 #000000 0 1;
#X obj 246 239 tgl 25 0 \$0-s-tgl-step-7 \$0-r-tgl-step-7 8 9 12 0 12 #fcfcfc #000000 #000000 0 1;
#X obj 29 270 tgl 25 0 \$0-s-tgl-step-8 \$0-r-tgl-step-8 9 9 12 0 12 #fcfcfc #000000 #000000 0 1;
#X obj 60 270 tgl 25 0 \$0-s-tgl-step-9 \$0-r-tgl-step-9 10 6 12 0 12 #fcfcfc #000000 #000000 0 1;
#X obj 91 270 tgl 25 0 \$0-s-tgl-step-10 \$0-r-tgl-step-10 11 6 12 0 12 #fcfcfc #000000 #000000 0 1;
#X obj 122 270 tgl 25 0 \$0-s-tgl-step-11 \$0-r-tgl-step-11 12 6 12 0 12 #fcfcfc #000000 #000000 0 1;
#X obj 153 270 tgl 25 0 \$0-s-tgl-step-12 \$0-r-tgl-step-12 13 6 12 0 12 #fcfcfc #000000 #000000 0 1;
#X obj 184 270 tgl 25 0 \$0-s-tgl-step-13 \$0-r-tgl-step-13 14 6 12 0 12 #fcfcfc #000000 #000000 0 1;
#X obj 215 270 tgl 25 0 \$0-s-tgl-step-14 \$0-r-tgl-step-14 15 6 12 0 12 #fcfcfc #000000 #000000 0 1;
#X obj 246 270 tgl 25 0 \$0-s-tgl-step-15 \$0-r-tgl-step-15 16 6 12 0 12 #fcfcfc #000000 #000000 0 1;
#X obj 207 193 hradio 12 1 0 4 empty empty page 0 -9 0 10 #fcfcfc #000000 #000000 0;
#X obj 207 210 s PAGE_SEL;
#X obj 172 141 s \$0-pattern_changed;
#X obj 172 76 t f f;
#X obj 27 333 nbx 3 16 0 127 0 0 \$0-s-nb2-vel-0 \$0-r-nb2-vel-0 empty 0 -9 0 10 #fcfcfc #000000 #000000 0 256;
#X obj 69 333 nbx 3 16 0 127 0 0 \$0-s-nb2-vel-1 \$0-r-nb2-vel-1 empty 0 -9 0 10 #fcfcfc #000000 #000000 0 256;
#X obj 112 333 nbx 3 16 0 127 0 0 \$0-s-nb2-vel-2 \$0-r-nb2-vel-2 empty 0 -9 0 10 #fcfcfc #000000 #000000 0 256;
#X obj 154 333 nbx 3 16 0 127 0 0 \$0-s-nb2-vel-3 \$0-r-nb2-vel-3 empty 0 -9 0 10 #fcfcfc #000000 #000000 0 256;
#X obj 197 333 nbx 3 16 0 127 0 0 \$0-s-nb2-vel-4 \$0-r-nb2-vel-4 empty 0 -9 0 10 #fcfcfc #000000 #000000 0 256;
#X obj 239 333 nbx 3 16 0 127 0 0 \$0-s-nb2-vel-5 \$0-r-nb2-vel-5 empty 0 -9 0 10 #fcfcfc #000000 #000000 0 256;
#X obj 282 333 nbx 3 16 0 127 0 0 \$0-s-nb2-vel-6 \$0-r-nb2-vel-6 empty 0 -9 0 10 #fcfcfc #000000 #000000 0 256;
#X obj 324 333 nbx 3 16 0 127 0 0 \$0-s-nb2-vel-7 \$0-r-nb2-vel-7 empty 0 -9 0 10 #fcfcfc #000000 #000000 0 256;
#X obj 27 356 nbx 3 16 0 127 0 0 \$0-s-nb2-vel-8 \$0-r-nb2-vel-8 empty 0 -9 0 10 #fcfcfc #000000 #000000 0 256;
#X obj 69 356 nbx 3 16 0 127 0 0 \$0-s-nb2-vel-9 \$0-r-nb2-vel-9 empty 0 -9 0 10 #fcfcfc #000000 #000000 0 256;
#X obj 112 356 nbx 3 16 0 127 0 0 \$0-s-nb2-vel-10 \$0-r-nb2-vel-10 empty 0 -9 0 10 #fcfcfc #000000 #000000 0 256;
#X obj 154 356 nbx 3 16 0 127 0 0 \$0-s-nb2-vel-11 \$0-r-nb2-vel-11 empty 0 -9 0 10 #fcfcfc #000000 #000000 0 256;
#X obj 197 356 nbx 3 16 0 127 0 0 \$0-s-nb2-vel-12 \$0-r-nb2-vel-12 empty 0 -9 0 10 #fcfcfc #000000 #000000 0 256;
#X obj 239 356 nbx 3 16 0 127 0 0 \$0-s-nb2-vel-13 \$0-r-nb2-vel-13 empty 0 -9 0 10 #fcfcfc #000000 #000000 0 256;
#X obj 282 356 nbx 3 16 0 127 0 0 \$0-s-nb2-vel-14 \$0-r-nb2-vel-14 empty 0 -9 0 10 #fcfcfc #000000 #000000 0 256;
#X obj 324 356 nbx 3 16 0 127 0 0 \$0-s-nb2-vel-15 \$0-r-nb2-vel-15 empty 0 -9 0 10 #fcfcfc #000000 #000000 0 256;
#X obj 27 402 nbx 3 16 0 100 0 0 \$0-s-nb2-prob-0 \$0-r-nb2-prob-0 empty 0 -9 0 10 #fcfcfc #000000 #000000 0 256;
#X obj 69 402 nbx 3 16 0 100 0 0 \$0-s-nb2-prob-1 \$0-r-nb2-prob-1 empty 0 -9 0 10 #fcfcfc #000000 #000000 0 256;
#X obj 112 402 nbx 3 16 0 100 0 0 \$0-s-nb2-prob-2 \$0-r-nb2-prob-2 empty 0 -9 0 10 #fcfcfc #000000 #000000 0 256;
#X obj 154 402 nbx 3 16 0 100 0 0 \$0-s-nb2-prob-3 \$0-r-nb2-prob-3 empty 0 -9 0 10 #fcfcfc #000000 #000000 0 256;
#X obj 197 402 nbx 3 16 0 100 0 0 \$0-s-nb2-prob-4 \$0-r-nb2-prob-4 empty 0 -9 0 10 #fcfcfc #000000 #000000 0 256;
#X obj 239 402 nbx 3 16 0 100 0 0 \$0-s-nb2-prob-5 \$0-r-nb2-prob-5 empty 0 -9 0 10 #fcfcfc #000000 #000000 0 256;
#X obj 282 402 nbx 3 16 0 100 0 0 \$0-s-nb2-prob-6 \$0-r-nb2-prob-6 empty 0 -9 0 10 #fcfcfc #000000 #000000 0 256;
#X obj 324 402 nbx 3 16 0 100 0 0 \$0-s-nb2-prob-7 \$0-r-nb2-prob-7 empty 0 -9 0 10 #fcfcfc #000000 #000000 0 256;
#X obj 27 425 nbx 3 16 0 100 0 0 \$0-s-nb2-prob-8 \$0-r-nb2-prob-8 empty 0 -9 0 10 #fcfcfc #000000 #000000 0 256;
#X obj 69 425 nbx 3 16 0 100 0 0 \$0-s-nb2-prob-9 \$0-r-nb2-prob-9 empty 0 -9 0 10 #fcfcfc #000000 #000000 0 256;
#X obj 112 425 nbx 3 16 0 100 0 0 \$0-s-nb2-prob-10 \$0-r-nb2-prob-10 empty 0 -9 0 10 #fcfcfc #000000 #000000 0 256;
#X obj 154 425 nbx 3 16 0 100 0 0 \$0-s-nb2-prob-11 \$0-r-nb2-prob-11 empty 0 -9 0 10 #fcfcfc #000000 #000000 0 256;
#X obj 197 425 nbx 3 16 0 100 0 0 \$0-s-nb2-prob-12 \$0-r-nb2-prob-12 empty 0 -9 0 10 #fcfcfc #000000 #000000 0 256;
#X obj 239 425 nbx 3 16 0 100 0 0 \$0-s-nb2-prob-13 \$0-r-nb2-prob-13 empty 0 -9 0 10 #fcfcfc #000000 #000000 0 256;
#X obj 282 425 nbx 3 16 0 100 0 0 \$0-s-nb2-prob-14 \$0-r-nb2-prob-14 empty 0 -9 0 10 #fcfcfc #000000 #000000 0 256;
#X obj 324 425 nbx 3 16 0 100 0 0 \$0-s-nb2-prob-15 \$0-r-nb2-prob-15 empty 0 -9 0 10 #fcfcfc #000000 #000000 0 256;
#X text 25 314 Velocity;
#X text 24 385 Probability;
#N canvas 218 148 1483 758 sound_test 0;
#N canvas 165 140 1589 774 seq-data 0;
#X obj 19 29 r COUNTER;
#X obj 19 78 mod 16;
#X obj 19 126 tabread \$0-steps-t1;
#X obj 19 148 sel 1;
#X obj 52 52 r \$0-steps-length-t1;
#X obj 19 219 int 127;
#X obj 72 202 tabread \$0-vel-t1;
#X obj 124 167 tabread \$0-prob-t1;
#X obj 19 102 t f f f, f 18;
#N canvas 734 377 450 300 prob 0;
#X obj 22 13 inlet;
#X obj 22 35 random 100;
#X obj 22 79 sel 1;
#X obj 22 101 outlet;
#X obj 136 40 inlet;
#X obj 22 57 < 100;
#X obj 87 109 outlet;
#X obj 87 84 t b;
#X connect 0 0 1 0;
#X connect 1 0 5 0;
#X connect 2 0 3 0;
#X connect 2 1 7 0;
#X connect 4 0 5 1;
#X connect 5 0 2 0;
#X connect 7 0 6 0;
#X restore 19 184 pd prob;
#X obj 58 205 bng 10 100 25 0 empty empty empty 0 -9 0 10 #fcfcfc #000000 #000000;
#X text 143 127 TRACK 1;
#X obj 19 314 s output-data-t1;
#X obj 271 39 r COUNTER;
#X obj 271 88 mod 16;
#X obj 271 158 sel 1;
#X obj 271 229 int 127;
#X obj 271 112 t f f f, f 18;
#N canvas 734 377 450 300 prob 0;
#X obj 22 13 inlet;
#X obj 22 35 random 100;
#X obj 22 79 sel 1;
#X obj 22 101 outlet;
#X obj 136 40 inlet;
#X obj 22 57 < 100;
#X obj 87 109 outlet;
#X obj 87 84 t b;
#X connect 0 0 1 0;
#X connect 1 0 5 0;
#X connect 2 0 3 0;
#X connect 2 1 7 0;
#X connect 4 0 5 1;
#X connect 5 0 2 0;
#X connect 7 0 6 0;
#X restore 271 194 pd prob;
#X obj 310 215 bng 10 100 25 0 empty empty empty 0 -9 0 10 #fcfcfc #000000 #000000;
#X obj 533 49 r COUNTER;
#X obj 533 98 mod 16;
#X obj 533 168 sel 1;
#X obj 533 239 int 127;
#X obj 533 122 t f f f, f 18;
#N canvas 886 205 450 300 prob 0;
#X obj 22 13 inlet;
#X obj 22 35 random 100;
#X obj 22 79 sel 1;
#X obj 22 101 outlet;
#X obj 136 40 inlet;
#X obj 22 57 < 100;
#X obj 87 109 outlet;
#X obj 87 84 t b;
#X connect 0 0 1 0;
#X connect 1 0 5 0;
#X connect 2 0 3 0;
#X connect 2 1 7 0;
#X connect 4 0 5 1;
#X connect 5 0 2 0;
#X connect 7 0 6 0;
#X restore 533 204 pd prob;
#X obj 572 225 bng 10 100 25 0 empty empty empty 0 -9 0 10 #fcfcfc #000000 #000000;
#X text 395 137 TRACK 2;
#X text 657 147 TRACK 3;
#X obj 304 62 r \$0-steps-length-t2;
#X obj 271 136 tabread \$0-steps-t2;
#X obj 324 212 tabread \$0-vel-t2;
#X obj 376 177 tabread \$0-prob-t2;
#X obj 566 72 r \$0-steps-length-t3;
#X obj 533 146 tabread \$0-steps-t3;
#X obj 271 251 s output-data-t2;
#X obj 533 261 s output-data-t3;
#X obj 586 222 tabread \$0-vel-t3;
#X obj 638 187 tabread \$0-prob-t3;
#X obj 84 233 tabread \$0-len-t1;
#X obj 19 268 pack 0 0;
#X msg 19 291 len \$2 \, vel \$1;
#X connect 0 0 1 0;
#X connect 1 0 8 0;
#X connect 2 0 3 0;
#X connect 3 0 9 0;
#X connect 4 0 1 1;
#X connect 5 0 40 0;
#X connect 6 0 5 1;
#X connect 7 0 9 1;
#X connect 8 0 2 0;
#X connect 8 1 6 0;
#X connect 8 1 39 0;
#X connect 8 2 7 0;
#X connect 9 0 5 0;
#X connect 9 1 10 0;
#X connect 13 0 14 0;
#X connect 14 0 17 0;
#X connect 15 0 18 0;
#X connect 16 0 35 0;
#X connect 17 0 30 0;
#X connect 17 1 31 0;
#X connect 17 2 32 0;
#X connect 18 0 16 0;
#X connect 18 1 19 0;
#X connect 20 0 21 0;
#X connect 21 0 24 0;
#X connect 22 0 25 0;
#X connect 23 0 36 0;
#X connect 24 0 34 0;
#X connect 24 1 37 0;
#X connect 24 2 38 0;
#X connect 25 0 23 0;
#X connect 25 1 26 0;
#X connect 29 0 14 1;
#X connect 30 0 15 0;
#X connect 31 0 16 1;
#X connect 32 0 18 1;
#X connect 33 0 21 1;
#X connect 34 0 22 0;
#X connect 37 0 23 1;
#X connect 38 0 25 1;
#X connect 39 0 40 1;
#X connect 40 0 41 0;
#X connect 41 0 12 0;
#X restore 8 7 pd seq-data;
#X obj 404 637 throw~ dac;
#X obj 8 39 catch~ dac;
#X obj 8 61 /~ 2;
#X obj 8 83 dac~;
#X obj 95 281 osc~;
#X obj 95 204 *~ 12;
#X obj 95 233 +~ 60;
#X floatatom 138 188 5 0 0 0 - - - 0;
#X floatatom 139 217 5 0 0 0 - - - 0;
#X obj 95 151 else/envgen~;
#X obj 95 173 pow~ 1;
#X obj 211 81 else/function 130 70 empty empty 0 1 220 220 220 50 50 50 0 0 0 0 1 5.49231 0.892857 0.392308 0.664286 9.61153 0.307143 10.5923 0.4 24.9115 0;
#X msg 211 34 duration \$1 \, bang;
#X floatatom 211 10 5 0 0 0 - - - 0;
#X msg 221 64 width 130 \, height 70;
#X obj 95 358 *~;
#X floatatom 139 296 5 0 100 0 - - - 0;
#X obj 139 341 f2s~ 25;
#X obj 139 318 / 100;
#X obj 404 606 *~;
#X obj 549 265 r output-data-t1;
#X obj 419 543 line~;
#X obj 419 565 pow~ 2;
#X msg 144 263 0;
#X obj 95 257 mtof~;
#X obj 404 292 osc~;
#X obj 404 215 *~ 12;
#X obj 404 244 +~ 60;
#X floatatom 447 199 5 0 0 0 - - - 0;
#X floatatom 448 228 5 0 0 0 - - - 0;
#X obj 404 162 else/envgen~;
#X obj 404 184 pow~ 1;
#X obj 521 92 else/function 130 70 empty empty 0 1 220 220 220 50 50 50 0 0 0 0 1 38.4615 0.485714 72.3077 0.15 89.2308 0;
#X msg 521 45 duration \$1 \, bang;
#X floatatom 521 21 5 0 0 0 - - - 0;
#X msg 531 75 width 130 \, height 70;
#X obj 404 369 *~;
#X floatatom 448 307 5 0 100 0 - - - 0;
#X obj 448 352 f2s~ 25;
#X obj 448 329 / 100;
#X msg 452 274 0;
#X obj 404 268 mtof~;
#X msg 419 521 \$1 \, 0 \$2;
#X obj 419 499 pack 1 500;
#X obj 419 455 t f b;
#X obj 419 477 / 127;
#X obj 476 472 int 500;
#X obj 769 302 noise~;
#X obj 769 344 else/bandpass~ 1000 0.5;
#X obj 836 151 r output-data-t1;
#X obj 836 254 *~ 12;
#X obj 836 283 +~ 60;
#X obj 836 201 else/envgen~;
#X obj 836 223 pow~ 1;
#X obj 836 173 t b;
#X obj 836 307 mtof~;
#X obj 950 131 else/function 130 70 empty empty 0 1 220 220 220 50 50 50 0 0 0 0 0.55 26.3077 0.878571 33.2308 0.157143 40.8459 0.9 7.61567 0.485714 26.9999 0.485714 27 0.742857 18 0;
#X msg 950 84 duration \$1 \, bang;
#X floatatom 950 60 5 0 0 0 - - - 0;
#X msg 960 114 width 130 \, height 70;
#X obj 769 438 *~;
#X floatatom 813 376 5 0 100 0 - - - 0;
#X obj 813 421 f2s~ 25;
#X obj 813 398 / 100;
#X floatatom 904 293 5 0 0 0 - - - 0;
#X obj 904 314 else/f2s~ 20;
#X floatatom 880 238 5 0 0 0 - - - 0;
#X floatatom 882 267 5 0 0 0 - - - 0;
#X obj 587 358 s t1_len;
#X obj 661 282 t b;
#X obj 661 304 s t1_trg;
#X obj 471 252 r t1_trg;
#X obj 404 112 r t1_trg;
#X obj 95 115 r t1_trg;
#X obj 175 235 r t1_trg;
#X obj 419 430 r t1_vel;
#X obj 515 442 r t1_len;
#X obj 549 297 route vel len;
#X obj 549 323 s t1_vel;
#X connect 2 0 3 0;
#X connect 3 0 4 0;
#X connect 3 0 4 1;
#X connect 5 0 16 0;
#X connect 6 0 7 0;
#X connect 7 0 25 0;
#X connect 8 0 6 1;
#X connect 9 0 7 1;
#X connect 10 0 11 0;
#X connect 11 0 6 0;
#X connect 12 0 10 1;
#X connect 13 0 12 0;
#X connect 14 0 13 0;
#X connect 15 0 12 0;
#X connect 16 0 20 0;
#X connect 17 0 19 0;
#X connect 18 0 16 1;
#X connect 19 0 18 0;
#X connect 20 0 1 0;
#X connect 21 0 70 0;
#X connect 21 0 78 0;
#X connect 22 0 23 0;
#X connect 23 0 20 1;
#X connect 24 0 5 1;
#X connect 25 0 5 0;
#X connect 26 0 37 0;
#X connect 27 0 28 0;
#X connect 28 0 42 0;
#X connect 29 0 27 1;
#X connect 30 0 28 1;
#X connect 31 0 32 0;
#X connect 32 0 27 0;
#X connect 33 0 31 1;
#X connect 34 0 33 0;
#X connect 35 0 34 0;
#X connect 36 0 33 0;
#X connect 37 0 20 0;
#X connect 38 0 40 0;
#X connect 39 0 37 1;
#X connect 40 0 39 0;
#X connect 41 0 26 1;
#X connect 42 0 26 0;
#X connect 43 0 22 0;
#X connect 44 0 43 0;
#X connect 45 0 46 0;
#X connect 45 1 47 0;
#X connect 46 0 44 0;
#X connect 47 0 44 1;
#X connect 48 0 49 0;
#X connect 49 0 61 0;
#X connect 50 0 55 0;
#X connect 51 0 52 0;
#X connect 52 0 56 0;
#X connect 53 0 54 0;
#X connect 54 0 51 0;
#X connect 55 0 53 0;
#X connect 56 0 49 1;
#X connect 57 0 53 1;
#X connect 58 0 57 0;
#X connect 59 0 58 0;
#X connect 60 0 57 0;
#X connect 61 0 20 0;
#X connect 62 0 64 0;
#X connect 63 0 61 1;
#X connect 64 0 63 0;
#X connect 65 0 66 0;
#X connect 66 0 49 2;
#X connect 67 0 51 1;
#X connect 68 0 52 1;
#X connect 70 0 71 0;
#X connect 72 0 41 0;
#X connect 73 0 31 0;
#X connect 74 0 10 0;
#X connect 75 0 24 0;
#X connect 76 0 45 0;
#X connect 77 0 47 1;
#X connect 78 0 79 0;
#X connect 78 1 69 0;
#X restore 341 72 pd sound_test;
#X floatatom 89 15 5 0 0 0 - - - 0;
#X floatatom 88 187 5 1 64 2 Steps \$0-r-nb-t_steps \$0-s-nb-t_steps 0;
#X obj 27 468 nbx 3 16 0 1000 0 0 \$0-s-nb2-len-0 \$0-r-nb2-len-0 empty 0 -9 0 10 #fcfcfc #000000 #000000 0 256;
#X obj 69 468 nbx 3 16 0 1000 0 0 \$0-s-nb2-len-1 \$0-r-nb2-len-1 empty 0 -9 0 10 #fcfcfc #000000 #000000 0 256;
#X obj 112 468 nbx 3 16 0 1000 0 0 \$0-s-nb2-len-2 \$0-r-nb2-len-2 empty 0 -9 0 10 #fcfcfc #000000 #000000 0 256;
#X obj 154 468 nbx 3 16 0 1000 0 0 \$0-s-nb2-len-3 \$0-r-nb2-len-3 empty 0 -9 0 10 #fcfcfc #000000 #000000 0 256;
#X obj 197 468 nbx 3 16 0 1000 0 0 \$0-s-nb2-len-4 \$0-r-nb2-len-4 empty 0 -9 0 10 #fcfcfc #000000 #000000 0 256;
#X obj 239 468 nbx 3 16 0 1000 0 0 \$0-s-nb2-len-5 \$0-r-nb2-len-5 empty 0 -9 0 10 #fcfcfc #000000 #000000 0 256;
#X obj 282 468 nbx 3 16 0 1000 0 0 \$0-s-nb2-len-6 \$0-r-nb2-len-6 empty 0 -9 0 10 #fcfcfc #000000 #000000 0 256;
#X obj 324 468 nbx 3 16 0 1000 0 0 \$0-s-nb2-len-7 \$0-r-nb2-len-7 empty 0 -9 0 10 #fcfcfc #000000 #000000 0 256;
#X obj 27 491 nbx 3 16 0 1000 0 0 \$0-s-nb2-len-8 \$0-r-nb2-len-8 empty 0 -9 0 10 #fcfcfc #000000 #000000 0 256;
#X obj 69 491 nbx 3 16 0 1000 0 0 \$0-s-nb2-len-9 \$0-r-nb2-len-9 empty 0 -9 0 10 #fcfcfc #000000 #000000 0 256;
#X obj 112 491 nbx 3 16 0 1000 0 0 \$0-s-nb2-len-10 \$0-r-nb2-len-10 empty 0 -9 0 10 #fcfcfc #000000 #000000 0 256;
#X obj 154 491 nbx 3 16 0 1000 0 0 \$0-s-nb2-len-11 \$0-r-nb2-len-11 empty 0 -9 0 10 #fcfcfc #000000 #000000 0 256;
#X obj 197 491 nbx 3 16 0 1000 0 0 \$0-s-nb2-len-12 \$0-r-nb2-len-12 empty 0 -9 0 10 #fcfcfc #000000 #000000 0 256;
#X obj 239 491 nbx 3 16 0 1000 0 0 \$0-s-nb2-len-13 \$0-r-nb2-len-13 empty 0 -9 0 10 #fcfcfc #000000 #000000 0 256;
#X obj 282 491 nbx 3 16 0 1000 0 0 \$0-s-nb2-len-14 \$0-r-nb2-len-14 empty 0 -9 0 10 #fcfcfc #000000 #000000 0 256;
#X obj 324 491 nbx 3 16 0 1000 0 0 \$0-s-nb2-len-15 \$0-r-nb2-len-15 empty 0 -9 0 10 #fcfcfc #000000 #000000 0 256;
#X text 24 451 Lenght;
#N canvas 72 127 1774 801 interface 0;
#X obj 179 280 array set \$0-steps-t1;
#X obj 109 223 * 16;
#X obj 240 249 + 0, f 5;
#X obj 240 215 t b f;
#X obj 179 198 unpack;
#X obj 45 310 array get \$0-steps-t1;
#X obj 191 29 r TRACK_SEL;
#X obj 302 211 pack 0 \$0;
#X obj 302 187 + 1;
#N canvas 144 299 1631 457 handle_tgl_send 0;
#X obj 19 11 r \$0-s-tgl-step-0;
#X msg 19 33 \$1 0;
#X obj 69 33 r \$0-s-tgl-step-1;
#X msg 69 55 \$1 1;
#X msg 113 78 \$1 2;
#X msg 163 100 \$1 3;
#X obj 113 56 r \$0-s-tgl-step-2;
#X obj 163 78 r \$0-s-tgl-step-3;
#X msg 197 32 \$1 4;
#X msg 247 54 \$1 5;
#X msg 291 77 \$1 6;
#X msg 341 99 \$1 7;
#X obj 197 10 r \$0-s-tgl-step-4;
#X obj 247 32 r \$0-s-tgl-step-5;
#X obj 291 55 r \$0-s-tgl-step-6;
#X obj 341 77 r \$0-s-tgl-step-7;
#X msg 383 28 \$1 8;
#X msg 433 50 \$1 9;
#X msg 477 73 \$1 10;
#X msg 527 95 \$1 11;
#X obj 383 6 r \$0-s-tgl-step-8;
#X obj 433 28 r \$0-s-tgl-step-9;
#X obj 477 51 r \$0-s-tgl-step-10;
#X obj 527 73 r \$0-s-tgl-step-11;
#X msg 561 27 \$1 12;
#X msg 611 49 \$1 13;
#X msg 655 72 \$1 14;
#X msg 705 94 \$1 15;
#X obj 561 5 r \$0-s-tgl-step-12;
#X obj 611 27 r \$0-s-tgl-step-13;
#X obj 655 50 r \$0-s-tgl-step-14;
#X obj 705 72 r \$0-s-tgl-step-15;
#X obj 19 190 outlet;
#X connect 0 0 1 0;
#X connect 1 0 32 0;
#X connect 2 0 3 0;
#X connect 3 0 32 0;
#X connect 4 0 32 0;
#X connect 5 0 32 0;
#X connect 6 0 4 0;
#X connect 7 0 5 0;
#X connect 8 0 32 0;
#X connect 9 0 32 0;
#X connect 10 0 32 0;
#X connect 11 0 32 0;
#X connect 12 0 8 0;
#X connect 13 0 9 0;
#X connect 14 0 10 0;
#X connect 15 0 11 0;
#X connect 16 0 32 0;
#X connect 17 0 32 0;
#X connect 18 0 32 0;
#X connect 19 0 32 0;
#X connect 20 0 16 0;
#X connect 21 0 17 0;
#X connect 22 0 18 0;
#X connect 23 0 19 0;
#X connect 24 0 32 0;
#X connect 25 0 32 0;
#X connect 26 0 32 0;
#X connect 27 0 32 0;
#X connect 28 0 24 0;
#X connect 29 0 25 0;
#X connect 30 0 26 0;
#X connect 31 0 27 0;
#X restore 179 119 pd handle_tgl_send;
#X obj 45 82 r PAGE_SEL;
#X obj 45 281 * 16;
#X msg 107 269 16;
#X msg 302 243 symbol \$2-steps-t\$1;
#N canvas 628 225 662 605 handle_tgl_receive 0;
#X obj 37 37 inlet;
#X obj 37 68 unpack f f f f f f f f f f f f f f f f;
#X obj 37 94 s \$0-r-tgl-step-0;
#X obj 51 118 s \$0-r-tgl-step-1;
#X obj 67 145 s \$0-r-tgl-step-2;
#X obj 82 168 s \$0-r-tgl-step-3;
#X obj 97 195 s \$0-r-tgl-step-4;
#X obj 111 219 s \$0-r-tgl-step-5;
#X obj 127 246 s \$0-r-tgl-step-6;
#X obj 142 269 s \$0-r-tgl-step-7;
#X obj 157 294 s \$0-r-tgl-step-8;
#X obj 171 318 s \$0-r-tgl-step-9;
#X obj 187 345 s \$0-r-tgl-step-10;
#X obj 202 368 s \$0-r-tgl-step-11;
#X obj 217 395 s \$0-r-tgl-step-12;
#X obj 231 419 s \$0-r-tgl-step-13;
#X obj 247 446 s \$0-r-tgl-step-14;
#X obj 262 469 s \$0-r-tgl-step-15;
#X connect 0 0 1 0;
#X connect 1 0 2 0;
#X connect 1 1 3 0;
#X connect 1 2 4 0;
#X connect 1 3 5 0;
#X connect 1 4 6 0;
#X connect 1 5 7 0;
#X connect 1 6 8 0;
#X connect 1 7 9 0;
#X connect 1 8 10 0;
#X connect 1 9 11 0;
#X connect 1 10 12 0;
#X connect 1 11 13 0;
#X connect 1 12 14 0;
#X connect 1 13 15 0;
#X connect 1 14 16 0;
#X connect 1 15 17 0;
#X restore 45 352 pd handle_tgl_receive;
#X obj 45 206 t f b f;
#X text 201 297 Writing to array;
#X text 58 330 Loading from array;
#X obj 45 164 int, f 5;
#X obj 45 109 t b f;
#X obj 191 95 t b f, f 19;
#X obj 196 142 t b;
#X obj 191 73 int;
#X obj 191 51 t b f;
#X obj 38 26 r \$0-pattern_changed;
#X obj 542 228 * 16;
#X obj 673 255 + 0, f 5;
#X obj 673 221 t b f;
#X obj 612 204 unpack;
#X obj 624 34 r TRACK_SEL;
#X obj 735 217 pack 0 \$0;
#X obj 735 193 + 1;
#X obj 478 87 r PAGE_SEL;
#X obj 478 286 * 16;
#X msg 540 274 16;
#X obj 478 211 t f b f;
#X text 634 303 Writing to array;
#X text 491 335 Loading from array;
#X obj 478 169 int, f 5;
#X obj 478 114 t b f;
#X obj 624 100 t b f, f 19;
#X obj 629 147 t b;
#X obj 624 78 int;
#X obj 624 56 t b f;
#X obj 471 31 r \$0-pattern_changed;
#N canvas 144 299 1631 457 handle_vel_send 0;
#X msg 19 33 \$1 0;
#X msg 69 55 \$1 1;
#X msg 113 78 \$1 2;
#X msg 163 100 \$1 3;
#X msg 197 32 \$1 4;
#X msg 247 54 \$1 5;
#X msg 291 77 \$1 6;
#X msg 341 99 \$1 7;
#X msg 383 28 \$1 8;
#X msg 433 50 \$1 9;
#X msg 477 73 \$1 10;
#X msg 527 95 \$1 11;
#X msg 561 27 \$1 12;
#X msg 611 49 \$1 13;
#X msg 655 72 \$1 14;
#X msg 705 94 \$1 15;
#X obj 19 190 outlet;
#X obj 19 11 r \$0-s-nb2-vel-0;
#X obj 69 33 r \$0-s-nb2-vel-1;
#X obj 113 56 r \$0-s-nb2-vel-2;
#X obj 163 78 r \$0-s-nb2-vel-3;
#X obj 197 10 r \$0-s-nb2-vel-4;
#X obj 247 32 r \$0-s-nb2-vel-5;
#X obj 291 55 r \$0-s-nb2-vel-6;
#X obj 341 77 r \$0-s-nb2-vel-7;
#X obj 383 6 r \$0-s-nb2-vel-8;
#X obj 433 28 r \$0-s-nb2-vel-9;
#X obj 477 51 r \$0-s-nb2-vel-10;
#X obj 527 73 r \$0-s-nb2-vel-11;
#X obj 561 5 r \$0-s-nb2-vel-12;
#X obj 611 27 r \$0-s-nb2-vel-13;
#X obj 655 50 r \$0-s-nb2-vel-14;
#X obj 705 72 r \$0-s-nb2-vel-15;
#X connect 0 0 16 0;
#X connect 1 0 16 0;
#X connect 2 0 16 0;
#X connect 3 0 16 0;
#X connect 4 0 16 0;
#X connect 5 0 16 0;
#X connect 6 0 16 0;
#X connect 7 0 16 0;
#X connect 8 0 16 0;
#X connect 9 0 16 0;
#X connect 10 0 16 0;
#X connect 11 0 16 0;
#X connect 12 0 16 0;
#X connect 13 0 16 0;
#X connect 14 0 16 0;
#X connect 15 0 16 0;
#X connect 17 0 0 0;
#X connect 18 0 1 0;
#X connect 19 0 2 0;
#X connect 20 0 3 0;
#X connect 21 0 4 0;
#X connect 22 0 5 0;
#X connect 23 0 6 0;
#X connect 24 0 7 0;
#X connect 25 0 8 0;
#X connect 26 0 9 0;
#X connect 27 0 10 0;
#X connect 28 0 11 0;
#X connect 29 0 12 0;
#X connect 30 0 13 0;
#X connect 31 0 14 0;
#X connect 32 0 15 0;
#X restore 612 124 pd handle_vel_send;
#N canvas 628 225 662 605 handle_vel_receive 0;
#X obj 37 37 inlet;
#X obj 37 68 unpack f f f f f f f f f f f f f f f f;
#X obj 37 94 s \$0-r-nb2-vel-0;
#X obj 51 118 s \$0-r-nb2-vel-1;
#X obj 67 145 s \$0-r-nb2-vel-2;
#X obj 82 168 s \$0-r-nb2-vel-3;
#X obj 97 195 s \$0-r-nb2-vel-4;
#X obj 111 219 s \$0-r-nb2-vel-5;
#X obj 127 246 s \$0-r-nb2-vel-6;
#X obj 142 269 s \$0-r-nb2-vel-7;
#X obj 157 294 s \$0-r-nb2-vel-8;
#X obj 171 318 s \$0-r-nb2-vel-9;
#X obj 187 345 s \$0-r-nb2-vel-10;
#X obj 202 368 s \$0-r-nb2-vel-11;
#X obj 217 395 s \$0-r-nb2-vel-12;
#X obj 231 419 s \$0-r-nb2-vel-13;
#X obj 247 446 s \$0-r-nb2-vel-14;
#X obj 262 469 s \$0-r-nb2-vel-15;
#X connect 0 0 1 0;
#X connect 1 0 2 0;
#X connect 1 1 3 0;
#X connect 1 2 4 0;
#X connect 1 3 5 0;
#X connect 1 4 6 0;
#X connect 1 5 7 0;
#X connect 1 6 8 0;
#X connect 1 7 9 0;
#X connect 1 8 10 0;
#X connect 1 9 11 0;
#X connect 1 10 12 0;
#X connect 1 11 13 0;
#X connect 1 12 14 0;
#X connect 1 13 15 0;
#X connect 1 14 16 0;
#X connect 1 15 17 0;
#X restore 478 357 pd handle_vel_receive;
#X obj 612 286 array set \$0-vel-t1;
#X obj 478 315 array get \$0-vel-t1;
#X msg 735 249 symbol \$2-vel-t\$1;
#X obj 629 171 s NB2_VEL_INPUT_SIG;
#X obj 196 166 s TGL_STEP_INPUT_SIG;
#X obj 962 234 * 16;
#X obj 1093 261 + 0, f 5;
#X obj 1093 227 t b f;
#X obj 1032 210 unpack;
#X obj 1044 40 r TRACK_SEL;
#X obj 1155 223 pack 0 \$0;
#X obj 1155 199 + 1;
#X obj 898 93 r PAGE_SEL;
#X obj 898 292 * 16;
#X msg 960 280 16;
#X obj 898 217 t f b f;
#X text 1054 309 Writing to array;
#X text 911 341 Loading from array;
#X obj 898 175 int, f 5;
#X obj 898 120 t b f;
#X obj 1044 106 t b f, f 19;
#X obj 1049 153 t b;
#X obj 1044 84 int;
#X obj 1044 62 t b f;
#X obj 891 37 r \$0-pattern_changed;
#X obj 898 321 array get \$0-prob-t1;
#X obj 1032 292 array set \$0-prob-t1;
#X msg 1155 255 symbol \$2-prob-t\$1;
#X obj 1049 177 s NB2_PROB_INPUT_SIG;
#N canvas 144 299 1631 457 handle_prob_send 0;
#X msg 19 33 \$1 0;
#X msg 69 55 \$1 1;
#X msg 113 78 \$1 2;
#X msg 163 100 \$1 3;
#X msg 197 32 \$1 4;
#X msg 247 54 \$1 5;
#X msg 291 77 \$1 6;
#X msg 341 99 \$1 7;
#X msg 383 28 \$1 8;
#X msg 433 50 \$1 9;
#X msg 477 73 \$1 10;
#X msg 527 95 \$1 11;
#X msg 561 27 \$1 12;
#X msg 611 49 \$1 13;
#X msg 655 72 \$1 14;
#X msg 705 94 \$1 15;
#X obj 19 190 outlet;
#X obj 19 11 r \$0-s-nb2-prob-0;
#X obj 69 33 r \$0-s-nb2-prob-1;
#X obj 113 56 r \$0-s-nb2-prob-2;
#X obj 163 78 r \$0-s-nb2-prob-3;
#X obj 197 10 r \$0-s-nb2-prob-4;
#X obj 247 32 r \$0-s-nb2-prob-5;
#X obj 291 55 r \$0-s-nb2-prob-6;
#X obj 341 77 r \$0-s-nb2-prob-7;
#X obj 383 6 r \$0-s-nb2-prob-8;
#X obj 433 28 r \$0-s-nb2-prob-9;
#X obj 477 51 r \$0-s-nb2-prob-10;
#X obj 527 73 r \$0-s-nb2-prob-11;
#X obj 561 5 r \$0-s-nb2-prob-12;
#X obj 611 27 r \$0-s-nb2-prob-13;
#X obj 655 50 r \$0-s-nb2-prob-14;
#X obj 705 72 r \$0-s-nb2-prob-15;
#X connect 0 0 16 0;
#X connect 1 0 16 0;
#X connect 2 0 16 0;
#X connect 3 0 16 0;
#X connect 4 0 16 0;
#X connect 5 0 16 0;
#X connect 6 0 16 0;
#X connect 7 0 16 0;
#X connect 8 0 16 0;
#X connect 9 0 16 0;
#X connect 10 0 16 0;
#X connect 11 0 16 0;
#X connect 12 0 16 0;
#X connect 13 0 16 0;
#X connect 14 0 16 0;
#X connect 15 0 16 0;
#X connect 17 0 0 0;
#X connect 18 0 1 0;
#X connect 19 0 2 0;
#X connect 20 0 3 0;
#X connect 21 0 4 0;
#X connect 22 0 5 0;
#X connect 23 0 6 0;
#X connect 24 0 7 0;
#X connect 25 0 8 0;
#X connect 26 0 9 0;
#X connect 27 0 10 0;
#X connect 28 0 11 0;
#X connect 29 0 12 0;
#X connect 30 0 13 0;
#X connect 31 0 14 0;
#X connect 32 0 15 0;
#X restore 1032 130 pd handle_prob_send;
#N canvas 628 225 662 605 handle_prob_receive 0;
#X obj 37 37 inlet;
#X obj 37 68 unpack f f f f f f f f f f f f f f f f;
#X obj 37 94 s \$0-r-nb2-prob-0;
#X obj 51 118 s \$0-r-nb2-prob-1;
#X obj 67 145 s \$0-r-nb2-prob-2;
#X obj 82 168 s \$0-r-nb2-prob-3;
#X obj 97 195 s \$0-r-nb2-prob-4;
#X obj 111 219 s \$0-r-nb2-prob-5;
#X obj 127 246 s \$0-r-nb2-prob-6;
#X obj 142 269 s \$0-r-nb2-prob-7;
#X obj 157 294 s \$0-r-nb2-prob-8;
#X obj 171 318 s \$0-r-nb2-prob-9;
#X obj 187 345 s \$0-r-nb2-prob-10;
#X obj 202 368 s \$0-r-nb2-prob-11;
#X obj 217 395 s \$0-r-nb2-prob-12;
#X obj 231 419 s \$0-r-nb2-prob-13;
#X obj 247 446 s \$0-r-nb2-prob-14;
#X obj 262 469 s \$0-r-nb2-prob-15;
#X connect 0 0 1 0;
#X connect 1 0 2 0;
#X connect 1 1 3 0;
#X connect 1 2 4 0;
#X connect 1 3 5 0;
#X connect 1 4 6 0;
#X connect 1 5 7 0;
#X connect 1 6 8 0;
#X connect 1 7 9 0;
#X connect 1 8 10 0;
#X connect 1 9 11 0;
#X connect 1 10 12 0;
#X connect 1 11 13 0;
#X connect 1 12 14 0;
#X connect 1 13 15 0;
#X connect 1 14 16 0;
#X connect 1 15 17 0;
#X restore 898 363 pd handle_prob_receive;
#X obj 180 449 r \$0-s-nb-t_steps;
#X obj 253 474 r TRACK_SEL;
#X obj 180 503 array set \$0-steps_lenght;
#X obj 433 455 r TRACK_SEL;
#X obj 433 536 array get \$0-steps_lenght;
#X msg 506 500 1;
#X obj 433 478 t f b;
#X obj 433 593 s \$0-r-nb-t_steps;
#X msg 433 559 set \$1;
#X msg 231 583 symbol \$2-steps-length-t\$1;
#X obj 180 620 s, f 9;
#X obj 231 557 pack 1 \$0;
#X obj 231 530 + 1;
#X obj 1384 241 * 16;
#X obj 1515 268 + 0, f 5;
#X obj 1515 234 t b f;
#X obj 1454 217 unpack;
#X obj 1466 47 r TRACK_SEL;
#X obj 1577 230 pack 0 \$0;
#X obj 1577 206 + 1;
#X obj 1320 100 r PAGE_SEL;
#X obj 1320 299 * 16;
#X msg 1382 287 16;
#X obj 1320 224 t f b f;
#X text 1476 316 Writing to array;
#X text 1333 348 Loading from array;
#X obj 1320 182 int, f 5;
#X obj 1320 127 t b f;
#X obj 1466 113 t b f, f 19;
#X obj 1471 160 t b;
#X obj 1466 91 int;
#X obj 1466 69 t b f;
#X obj 1313 44 r \$0-pattern_changed;
#X obj 1320 329 array get \$0-len-t1;
#X obj 1454 299 array set \$0-len-t1;
#X msg 1577 262 symbol \$2-len-t\$1;
#X obj 1471 184 s NB2_LEN_INPUT_SIG;
#N canvas 628 225 662 605 handle_len_receive 0;
#X obj 37 37 inlet;
#X obj 37 68 unpack f f f f f f f f f f f f f f f f;
#X obj 37 94 s \$0-r-nb2-len-0;
#X obj 51 118 s \$0-r-nb2-len-1;
#X obj 67 145 s \$0-r-nb2-len-2;
#X obj 82 168 s \$0-r-nb2-len-3;
#X obj 97 195 s \$0-r-nb2-len-4;
#X obj 111 219 s \$0-r-nb2-len-5;
#X obj 127 246 s \$0-r-nb2-len-6;
#X obj 142 269 s \$0-r-nb2-len-7;
#X obj 157 294 s \$0-r-nb2-len-8;
#X obj 171 318 s \$0-r-nb2-len-9;
#X obj 187 345 s \$0-r-nb2-len-10;
#X obj 202 368 s \$0-r-nb2-len-11;
#X obj 217 395 s \$0-r-nb2-len-12;
#X obj 231 419 s \$0-r-nb2-len-13;
#X obj 247 446 s \$0-r-nb2-len-14;
#X obj 262 469 s \$0-r-nb2-len-15;
#X connect 0 0 1 0;
#X connect 1 0 2 0;
#X connect 1 1 3 0;
#X connect 1 2 4 0;
#X connect 1 3 5 0;
#X connect 1 4 6 0;
#X connect 1 5 7 0;
#X connect 1 6 8 0;
#X connect 1 7 9 0;
#X connect 1 8 10 0;
#X connect 1 9 11 0;
#X connect 1 10 12 0;
#X connect 1 11 13 0;
#X connect 1 12 14 0;
#X connect 1 13 15 0;
#X connect 1 14 16 0;
#X connect 1 15 17 0;
#X restore 1320 370 pd handle_len_receive;
#N canvas 144 299 1631 457 handle_len_send 0;
#X msg 19 33 \$1 0;
#X msg 69 55 \$1 1;
#X msg 113 78 \$1 2;
#X msg 163 100 \$1 3;
#X msg 197 32 \$1 4;
#X msg 247 54 \$1 5;
#X msg 291 77 \$1 6;
#X msg 341 99 \$1 7;
#X msg 383 28 \$1 8;
#X msg 433 50 \$1 9;
#X msg 477 73 \$1 10;
#X msg 527 95 \$1 11;
#X msg 561 27 \$1 12;
#X msg 611 49 \$1 13;
#X msg 655 72 \$1 14;
#X msg 705 94 \$1 15;
#X obj 19 190 outlet;
#X obj 19 11 r \$0-s-nb2-len-0;
#X obj 69 33 r \$0-s-nb2-len-1;
#X obj 113 56 r \$0-s-nb2-len-2;
#X obj 163 78 r \$0-s-nb2-len-3;
#X obj 197 10 r \$0-s-nb2-len-4;
#X obj 247 32 r \$0-s-nb2-len-5;
#X obj 291 55 r \$0-s-nb2-len-6;
#X obj 341 77 r \$0-s-nb2-len-7;
#X obj 383 6 r \$0-s-nb2-len-8;
#X obj 433 28 r \$0-s-nb2-len-9;
#X obj 477 51 r \$0-s-nb2-len-10;
#X obj 527 73 r \$0-s-nb2-len-11;
#X obj 561 5 r \$0-s-nb2-len-12;
#X obj 611 27 r \$0-s-nb2-len-13;
#X obj 655 50 r \$0-s-nb2-len-14;
#X obj 705 72 r \$0-s-nb2-len-15;
#X connect 0 0 16 0;
#X connect 1 0 16 0;
#X connect 2 0 16 0;
#X connect 3 0 16 0;
#X connect 4 0 16 0;
#X connect 5 0 16 0;
#X connect 6 0 16 0;
#X connect 7 0 16 0;
#X connect 8 0 16 0;
#X connect 9 0 16 0;
#X connect 10 0 16 0;
#X connect 11 0 16 0;
#X connect 12 0 16 0;
#X connect 13 0 16 0;
#X connect 14 0 16 0;
#X connect 15 0 16 0;
#X connect 17 0 0 0;
#X connect 18 0 1 0;
#X connect 19 0 2 0;
#X connect 20 0 3 0;
#X connect 21 0 4 0;
#X connect 22 0 5 0;
#X connect 23 0 6 0;
#X connect 24 0 7 0;
#X connect 25 0 8 0;
#X connect 26 0 9 0;
#X connect 27 0 10 0;
#X connect 28 0 11 0;
#X connect 29 0 12 0;
#X connect 30 0 13 0;
#X connect 31 0 14 0;
#X connect 32 0 15 0;
#X restore 1454 137 pd handle_len_send;
#X connect 1 0 2 0;
#X connect 2 0 0 1;
#X connect 3 0 2 0;
#X connect 3 1 2 1;
#X connect 4 0 0 0;
#X connect 4 1 3 0;
#X connect 5 0 14 0;
#X connect 6 0 23 0;
#X connect 7 0 13 0;
#X connect 8 0 7 0;
#X connect 9 0 4 0;
#X connect 9 0 21 0;
#X connect 10 0 19 0;
#X connect 11 0 5 0;
#X connect 12 0 5 1;
#X connect 13 0 5 2;
#X connect 13 0 0 2;
#X connect 15 0 11 0;
#X connect 15 1 12 0;
#X connect 15 2 1 0;
#X connect 18 0 15 0;
#X connect 19 0 18 0;
#X connect 19 1 18 1;
#X connect 20 0 18 0;
#X connect 20 1 8 0;
#X connect 21 0 51 0;
#X connect 22 0 20 0;
#X connect 23 0 22 0;
#X connect 23 1 22 1;
#X connect 24 0 22 0;
#X connect 25 0 26 0;
#X connect 26 0 47 1;
#X connect 27 0 26 0;
#X connect 27 1 26 1;
#X connect 28 0 47 0;
#X connect 28 1 27 0;
#X connect 29 0 43 0;
#X connect 30 0 49 0;
#X connect 31 0 30 0;
#X connect 32 0 39 0;
#X connect 33 0 48 0;
#X connect 34 0 48 1;
#X connect 35 0 33 0;
#X connect 35 1 34 0;
#X connect 35 2 25 0;
#X connect 38 0 35 0;
#X connect 39 0 38 0;
#X connect 39 1 38 1;
#X connect 40 0 38 0;
#X connect 40 1 31 0;
#X connect 41 0 50 0;
#X connect 42 0 40 0;
#X connect 43 0 42 0;
#X connect 43 1 42 1;
#X connect 44 0 42 0;
#X connect 45 0 28 0;
#X connect 45 0 41 0;
#X connect 48 0 46 0;
#X connect 49 0 47 2;
#X connect 49 0 48 2;
#X connect 52 0 53 0;
#X connect 53 0 73 1;
#X connect 54 0 53 0;
#X connect 54 1 53 1;
#X connect 55 0 73 0;
#X connect 55 1 54 0;
#X connect 56 0 70 0;
#X connect 57 0 74 0;
#X connect 58 0 57 0;
#X connect 59 0 66 0;
#X connect 60 0 72 0;
#X connect 61 0 72 1;
#X connect 62 0 60 0;
#X connect 62 1 61 0;
#X connect 62 2 52 0;
#X connect 65 0 62 0;
#X connect 66 0 65 0;
#X connect 66 1 65 1;
#X connect 67 0 65 0;
#X connect 67 1 58 0;
#X connect 68 0 75 0;
#X connect 69 0 67 0;
#X connect 70 0 69 0;
#X connect 70 1 69 1;
#X connect 71 0 69 0;
#X connect 72 0 77 0;
#X connect 74 0 72 2;
#X connect 74 0 73 2;
#X connect 76 0 55 0;
#X connect 76 0 68 0;
#X connect 78 0 80 0;
#X connect 78 0 88 0;
#X connect 79 0 80 1;
#X connect 79 0 90 0;
#X connect 81 0 84 0;
#X connect 82 0 86 0;
#X connect 83 0 82 1;
#X connect 84 0 82 0;
#X connect 84 1 83 0;
#X connect 86 0 85 0;
#X connect 87 0 88 1;
#X connect 89 0 87 0;
#X connect 90 0 89 0;
#X connect 91 0 92 0;
#X connect 92 0 112 1;
#X connect 93 0 92 0;
#X connect 93 1 92 1;
#X connect 94 0 112 0;
#X connect 94 1 93 0;
#X connect 95 0 109 0;
#X connect 96 0 113 0;
#X connect 97 0 96 0;
#X connect 98 0 105 0;
#X connect 99 0 111 0;
#X connect 100 0 111 1;
#X connect 101 0 99 0;
#X connect 101 1 100 0;
#X connect 101 2 91 0;
#X connect 104 0 101 0;
#X connect 105 0 104 0;
#X connect 105 1 104 1;
#X connect 106 0 104 0;
#X connect 106 1 97 0;
#X connect 107 0 114 0;
#X connect 108 0 106 0;
#X connect 109 0 108 0;
#X connect 109 1 108 1;
#X connect 110 0 108 0;
#X connect 111 0 115 0;
#X connect 113 0 111 2;
#X connect 113 0 112 2;
#X connect 116 0 94 0;
#X connect 116 0 107 0;
#X restore 346 37 pd interface;
#X connect 0 0 1 0;
#X connect 1 0 2 0;
#X connect 2 0 3 0;
#X connect 2 0 4 0;
#X connect 3 0 2 1;
#X connect 6 0 12 0;
#X connect 6 0 32 0;
#X connect 7 0 8 0;
#X connect 10 0 2 1;
#X connect 12 0 11 0;
#X connect 29 0 30 0;
#X connect 32 0 31 0;
#X connect 32 1 9 0;
#X connect 68 0 1 1;
