#N canvas 638 138 1177 799 10;
#X obj 28 18 tgl 18 0 empty empty empty 0 -9 0 10 #fcfcfc #000000 #000000 0 1;
#X obj 28 41 else/tempo -mul 4 100;
#X obj 28 83 int;
#X obj 63 83 + 1;
#X obj 28 105 s COUNTER;
#X obj 24 135 r COUNTER;
#X obj 24 184 mod 16;
#X obj 24 232 tabread \$0-steps-t1;
#X obj 24 254 sel 1;
#N canvas 343 124 1233 806 arrays 0;
#X obj 74 347 array set \$0-steps-t1;
#X obj 203 132 pack 0 \$0;
#X msg 203 162 symbol \$2-pattern-\$1;
#X obj 203 108 + 1;
#X obj 74 279 array get \$0-pattern-1;
#X obj 45 141 until;
#X msg 45 119 4;
#X obj 74 176 int;
#X obj 102 175 + 1;
#X msg 89 152 0;
#X obj 245 280 pack 0 \$0;
#X obj 245 256 + 1;
#X msg 245 307 symbol \$2-steps-t\$1;
#X obj 74 215 t f f, f 29;
#N canvas 155 207 1608 640 array_define 0;
#X obj 20 44 array define -yrange 0 1 \$0-steps-t1 64;
#X obj 20 68 array define -yrange 0 1 \$0-steps-t2 64;
#X obj 20 92 array define -yrange 0 1 \$0-steps-t3 64;
#X obj 20 116 array define -yrange 0 1 \$0-steps-t4 64;
#X obj 297 79 array define -yrange 0 127 \$0-vel-t1 64;
#X obj 297 103 array define -yrange 0 127 \$0-vel-t2 64;
#X obj 297 127 array define -yrange 0 127 \$0-vel-t3 64;
#X obj 297 151 array define -yrange 0 127 \$0-vel-t4 64;
#X obj 315 197 cnv 18 300 95 empty empty empty 20 12 0 10 #e0e0e0 #404040 0;
#X obj 321 240 cnv 18 65 45 empty empty empty 20 12 0 10 #feffc6 #404040 0;
#X text 322 199 Pattern[];
#X obj 546 79 array define -yrange 0 100 \$0-prob-t1 64;
#X obj 546 103 array define -yrange 0 100 \$0-prob-t2 64;
#X obj 546 127 array define -yrange 0 100 \$0-prob-t3 64;
#X obj 546 151 array define -yrange 0 100 \$0-prob-t4 64;
#X obj 19 174 array define -yrange 0 127 \$0-pattern-1 768;
#X obj 19 198 array define -yrange 0 127 \$0-pattern-2 768;
#X obj 19 222 array define -yrange 0 127 \$0-pattern-3 768;
#X obj 19 246 array define -yrange 0 127 \$0-pattern-4 768;
#X obj 394 240 cnv 18 65 45 empty empty empty 20 12 0 10 #feffc6 #404040 0;
#X obj 466 240 cnv 18 65 45 empty empty empty 20 12 0 10 #feffc6 #404040 0;
#X obj 539 240 cnv 18 65 45 empty empty empty 20 12 0 10 #feffc6 #404040 0;
#X text 324 268 t1-p[64];
#X text 324 254 t1-v[64];
#X text 324 239 t1-s[64];
#X text 397 239 t2-s[64];
#X text 397 254 t2-v[64];
#X text 397 268 t2-p[64];
#X text 469 239 t3-s[64];
#X text 469 254 t3-v[64];
#X text 469 268 t3-p[64];
#X text 542 239 t4-s[64];
#X text 542 254 t4-v[64];
#X text 542 268 t4-p[64];
#X text 333 221 T1[0];
#X text 404 222 T2[192];
#X text 476 222 T3[384];
#X text 549 222 T4[576];
#X obj 649 233 *;
#X floatatom 649 255 5 0 0 0 - - - 0;
#X msg 649 211 64 8;
#X obj 297 26 loadbang;
#X msg 297 48 const 127;
#X obj 546 27 loadbang;
#X msg 546 50 const 100;
#X connect 38 0 39 0;
#X connect 40 0 38 0;
#X connect 41 0 42 0;
#X connect 42 0 4 0;
#X connect 42 0 7 0;
#X connect 42 0 6 0;
#X connect 42 0 5 0;
#X connect 43 0 44 0;
#X connect 44 0 11 0;
#X connect 44 0 12 0;
#X connect 44 0 14 0;
#X connect 44 0 13 0;
#X restore 14 10 pd array_define;
#X text 155 82 Loading from pattern into steps;
#X msg 139 248 64;
#X obj 74 249 * 64;
#X obj 58 744 array set \$0-pattern-1;
#X obj 187 679 pack 0 \$0;
#X msg 187 709 symbol \$2-pattern-\$1;
#X obj 187 655 + 1;
#X obj 58 613 t l b;
#X obj 74 60 r PATTERN_SEL;
#X obj 187 631 r PATTERN_SEL;
#X obj 181 441 r TRACK_SEL;
#X obj 181 494 pack 0 \$0;
#X obj 181 470 + 1;
#X msg 181 524 symbol \$2-steps-t\$1;
#X msg 91 649 64;
#X obj 91 703 * 0;
#X obj 106 676 r TRACK_SEL;
#X text 120 607 Writing from steps into pattern;
#X obj 600 113 pack 0 \$0;
#X msg 600 143 symbol \$2-pattern-\$1;
#X obj 600 89 + 1;
#X obj 471 294 array get \$0-pattern-1;
#X obj 442 122 until;
#X msg 442 100 4;
#X obj 471 157 int;
#X obj 499 156 + 1;
#X obj 471 63 t b b f;
#X msg 486 133 0;
#X obj 642 295 pack 0 \$0;
#X obj 642 271 + 1;
#X obj 471 196 t f f, f 29;
#X msg 536 263 64;
#X obj 471 232 * 64;
#X obj 471 41 r PATTERN_SEL;
#X text 552 63 Loading from pattern into velocity;
#X obj 471 362 array set \$0-vel-t1;
#X msg 642 322 symbol \$2-vel-t\$1;
#X obj 471 263 + 256;
#X obj 1005 117 pack 0 \$0;
#X msg 1005 147 symbol \$2-pattern-\$1;
#X obj 1005 93 + 1;
#X obj 876 298 array get \$0-pattern-1;
#X obj 847 126 until;
#X msg 847 104 4;
#X obj 876 161 int;
#X obj 904 160 + 1;
#X obj 876 67 t b b f;
#X msg 891 137 0;
#X obj 1047 299 pack 0 \$0;
#X obj 1047 275 + 1;
#X obj 876 200 t f f, f 29;
#X msg 941 267 64;
#X obj 876 236 * 64;
#X obj 876 45 r PATTERN_SEL;
#X text 957 68 Loading from pattern into probability;
#X msg 1047 326 symbol \$2-prob-t\$1;
#X obj 876 366 array set \$0-prob-t1;
#X obj 876 267 + 512;
#X obj 433 752 array set \$0-pattern-1;
#X obj 562 687 pack 0 \$0;
#X msg 562 717 symbol \$2-pattern-\$1;
#X obj 562 663 + 1;
#X obj 433 536 t b l;
#X obj 433 621 t l b;
#X obj 562 639 r PATTERN_SEL;
#X obj 556 449 r TRACK_SEL;
#X obj 556 502 pack 0 \$0;
#X obj 556 478 + 1;
#X msg 466 643 64;
#X obj 466 692 * 0;
#X obj 481 665 r TRACK_SEL;
#X text 495 615 Writing from velocity into pattern;
#X obj 481 722 + 256;
#X obj 433 511 r \$0-vel-input;
#X msg 556 532 symbol \$2-vel-t\$1;
#X obj 460 563 array set \$0-vel-t2;
#X obj 433 592 array get \$0-vel-t2, f 21;
#X obj 838 750 array set \$0-pattern-1;
#X obj 967 685 pack 0 \$0;
#X msg 967 715 symbol \$2-pattern-\$1;
#X obj 967 661 + 1;
#X obj 838 534 t b l;
#X obj 838 619 t l b;
#X obj 967 637 r PATTERN_SEL;
#X obj 961 447 r TRACK_SEL;
#X obj 961 500 pack 0 \$0;
#X obj 961 476 + 1;
#X msg 871 641 64;
#X obj 871 690 * 0;
#X obj 886 663 r TRACK_SEL;
#X msg 961 530 symbol \$2-prob-t\$1;
#X obj 865 561 array set \$0-prob-t2;
#X obj 838 590 array get \$0-prob-t2, f 21;
#X obj 886 720 + 512;
#X obj 838 509 r \$0-prob-input;
#X obj 250 333 print STEPS;
#X obj 650 344 print VEL;
#X obj 1055 348 print PROB;
#X obj 87 306 print STEPS;
#X obj 484 321 print VEL;
#X obj 889 325 print PROB;
#X text 900 613 Writing from probability into pattern;
#X obj 58 584 array get \$0-steps-t1;
#X obj 58 546 r TGL_INPUT_SIG;
#X obj 74 82 t b b f;
#N canvas 324 71 1271 913 initialize 0;
#X obj 73 421 array set \$0-pattern-1;
#X obj 73 314 t l b;
#X msg 112 340 64;
#X obj 112 370 * 0;
#X obj 121 396 + 256;
#X obj 73 139 until;
#X obj 73 161 i;
#X obj 109 161 + 1;
#X obj 73 285 array get \$0-vel-t1;
#X obj 163 227 pack 0 \$0;
#X obj 163 200 + 1;
#X msg 163 254 symbol \$2-vel-t\$1;
#X msg 119 130 0;
#X obj 73 2 loadbang;
#X obj 202 361 pack 0 \$0;
#X obj 202 334 + 1;
#X msg 73 117 4;
#X obj 73 183 t b f f, f 11;
#X obj 73 47 until;
#X obj 73 69 i;
#X obj 109 69 + 1;
#X msg 119 38 0;
#X msg 73 25 4;
#X msg 202 388 symbol \$2-pattern-\$1;
#X obj 73 91 t b b f, f 22;
#X obj 347 429 array set \$0-pattern-1;
#X obj 347 322 t l b;
#X msg 386 348 64;
#X obj 386 378 * 0;
#X obj 347 147 until;
#X obj 347 169 i;
#X obj 383 169 + 1;
#X obj 437 235 pack 0 \$0;
#X obj 437 208 + 1;
#X msg 393 138 0;
#X obj 347 10 loadbang;
#X obj 476 369 pack 0 \$0;
#X obj 476 342 + 1;
#X msg 347 125 4;
#X obj 347 191 t b f f, f 11;
#X obj 347 55 until;
#X obj 347 77 i;
#X obj 383 77 + 1;
#X msg 393 46 0;
#X msg 347 33 4;
#X msg 476 396 symbol \$2-pattern-\$1;
#X obj 347 99 t b b f, f 22;
#X msg 437 262 symbol \$2-prob-t\$1;
#X obj 347 293 array get \$0-prob-t1;
#X obj 395 404 + 512;
#X connect 1 0 0 0;
#X connect 1 1 2 0;
#X connect 2 0 3 0;
#X connect 3 0 4 0;
#X connect 4 0 0 1;
#X connect 5 0 6 0;
#X connect 6 0 7 0;
#X connect 6 0 17 0;
#X connect 7 0 6 1;
#X connect 8 0 1 0;
#X connect 9 0 11 0;
#X connect 10 0 9 0;
#X connect 11 0 8 2;
#X connect 12 0 6 1;
#X connect 13 0 22 0;
#X connect 14 0 23 0;
#X connect 15 0 14 0;
#X connect 16 0 5 0;
#X connect 17 0 8 0;
#X connect 17 1 3 1;
#X connect 17 2 10 0;
#X connect 18 0 19 0;
#X connect 19 0 20 0;
#X connect 19 0 24 0;
#X connect 20 0 19 1;
#X connect 21 0 19 1;
#X connect 22 0 18 0;
#X connect 23 0 0 2;
#X connect 24 0 16 0;
#X connect 24 1 12 0;
#X connect 24 2 15 0;
#X connect 26 0 25 0;
#X connect 26 1 27 0;
#X connect 27 0 28 0;
#X connect 28 0 49 0;
#X connect 29 0 30 0;
#X connect 30 0 31 0;
#X connect 30 0 39 0;
#X connect 31 0 30 1;
#X connect 32 0 47 0;
#X connect 33 0 32 0;
#X connect 34 0 30 1;
#X connect 35 0 44 0;
#X connect 36 0 45 0;
#X connect 37 0 36 0;
#X connect 38 0 29 0;
#X connect 39 0 48 0;
#X connect 39 1 28 1;
#X connect 39 2 33 0;
#X connect 40 0 41 0;
#X connect 41 0 42 0;
#X connect 41 0 46 0;
#X connect 42 0 41 1;
#X connect 43 0 41 1;
#X connect 44 0 40 0;
#X connect 45 0 25 2;
#X connect 46 0 38 0;
#X connect 46 1 34 0;
#X connect 46 2 37 0;
#X connect 47 0 48 2;
#X connect 48 0 26 0;
#X connect 49 0 25 1;
#X restore 130 12 pd initialize;
#X connect 1 0 2 0;
#X connect 2 0 4 2;
#X connect 3 0 1 0;
#X connect 4 0 0 0;
#X connect 4 0 113 0;
#X connect 5 0 7 0;
#X connect 6 0 5 0;
#X connect 7 0 8 0;
#X connect 7 0 13 0;
#X connect 8 0 7 1;
#X connect 9 0 7 1;
#X connect 10 0 12 0;
#X connect 11 0 10 0;
#X connect 12 0 0 2;
#X connect 12 0 110 0;
#X connect 13 0 17 0;
#X connect 13 1 11 0;
#X connect 16 0 4 1;
#X connect 17 0 4 0;
#X connect 19 0 20 0;
#X connect 20 0 18 2;
#X connect 21 0 19 0;
#X connect 22 0 18 0;
#X connect 22 1 29 0;
#X connect 23 0 119 0;
#X connect 24 0 21 0;
#X connect 25 0 27 0;
#X connect 26 0 28 0;
#X connect 27 0 26 0;
#X connect 28 0 117 2;
#X connect 29 0 30 0;
#X connect 30 0 18 1;
#X connect 31 0 30 1;
#X connect 33 0 34 0;
#X connect 34 0 36 2;
#X connect 35 0 33 0;
#X connect 36 0 50 0;
#X connect 36 0 114 0;
#X connect 37 0 39 0;
#X connect 38 0 37 0;
#X connect 39 0 40 0;
#X connect 39 0 45 0;
#X connect 40 0 39 1;
#X connect 41 0 38 0;
#X connect 41 1 46 0;
#X connect 41 1 42 0;
#X connect 41 2 35 0;
#X connect 42 0 39 1;
#X connect 43 0 51 0;
#X connect 44 0 43 0;
#X connect 45 0 47 0;
#X connect 45 1 44 0;
#X connect 46 0 36 1;
#X connect 47 0 52 0;
#X connect 48 0 41 0;
#X connect 51 0 50 2;
#X connect 51 0 111 0;
#X connect 52 0 36 0;
#X connect 53 0 54 0;
#X connect 54 0 56 2;
#X connect 55 0 53 0;
#X connect 56 0 71 0;
#X connect 56 0 115 0;
#X connect 57 0 59 0;
#X connect 58 0 57 0;
#X connect 59 0 60 0;
#X connect 59 0 65 0;
#X connect 60 0 59 1;
#X connect 61 0 58 0;
#X connect 61 1 66 0;
#X connect 61 1 62 0;
#X connect 61 2 55 0;
#X connect 62 0 59 1;
#X connect 63 0 70 0;
#X connect 64 0 63 0;
#X connect 65 0 67 0;
#X connect 65 1 64 0;
#X connect 66 0 56 1;
#X connect 67 0 72 0;
#X connect 68 0 61 0;
#X connect 70 0 71 2;
#X connect 70 0 112 0;
#X connect 72 0 56 0;
#X connect 74 0 75 0;
#X connect 75 0 73 2;
#X connect 76 0 74 0;
#X connect 77 0 91 0;
#X connect 77 1 90 0;
#X connect 78 0 73 0;
#X connect 78 1 83 0;
#X connect 79 0 76 0;
#X connect 80 0 82 0;
#X connect 81 0 89 0;
#X connect 82 0 81 0;
#X connect 83 0 84 0;
#X connect 84 0 87 0;
#X connect 85 0 84 1;
#X connect 87 0 73 1;
#X connect 88 0 77 0;
#X connect 89 0 90 2;
#X connect 89 0 91 2;
#X connect 91 0 78 0;
#X connect 93 0 94 0;
#X connect 94 0 92 2;
#X connect 95 0 93 0;
#X connect 96 0 107 0;
#X connect 96 1 106 0;
#X connect 97 0 92 0;
#X connect 97 1 102 0;
#X connect 98 0 95 0;
#X connect 99 0 101 0;
#X connect 100 0 105 0;
#X connect 101 0 100 0;
#X connect 102 0 103 0;
#X connect 103 0 108 0;
#X connect 104 0 103 1;
#X connect 105 0 106 2;
#X connect 105 0 107 2;
#X connect 107 0 97 0;
#X connect 108 0 92 1;
#X connect 109 0 96 0;
#X connect 117 0 22 0;
#X connect 118 0 117 0;
#X connect 119 0 6 0;
#X connect 119 1 9 0;
#X connect 119 1 16 0;
#X connect 119 2 3 0;
#X restore 517 12 pd arrays;
#X obj 24 369 bng 18 100 25 0 empty empty empty 0 -9 0 10 #fcfcfc #000000 #000000;
#X obj 57 158 r \$0-steps-length-t1;
#X obj 290 92 hradio 12 1 0 4 empty empty pattern 0 -9 0 10 #fcfcfc #000000 #000000 0;
#X obj 292 236 hradio 12 1 0 4 empty empty track 0 -9 0 10 #fcfcfc #000000 #000000 0;
#X obj 292 258 s TRACK_SEL;
#X obj 317 150 s PATTERN_SEL;
#X msg 48 62 0;
#X obj 24 325 int 127;
#X obj 77 308 tabread \$0-vel-t1;
#X floatatom 24 347 5 0 0 0 - - - 0;
#X obj 371 128 print PATTERN;
#X obj 371 104 + 1;
#X obj 129 273 tabread \$0-prob-t1;
#X obj 24 208 t f f f, f 18;
#N canvas 734 377 450 300 prob 0;
#X obj 22 13 inlet;
#X obj 22 35 random 100;
#X obj 22 79 sel 1;
#X obj 22 101 outlet;
#X obj 136 40 inlet;
#X obj 22 57 < 100;
#X obj 87 109 outlet;
#X obj 87 84 t b;
#X connect 0 0 1 0;
#X connect 1 0 5 0;
#X connect 2 0 3 0;
#X connect 2 1 7 0;
#X connect 4 0 5 1;
#X connect 5 0 2 0;
#X connect 7 0 6 0;
#X restore 24 290 pd prob;
#X obj 63 311 bng 10 100 25 0 empty empty empty 0 -9 0 10 #fcfcfc #000000 #000000;
#X obj 292 285 tgl 25 0 \$0-s-tgl-step-0 \$0-r-tgl-step-0 1 9 12 0 12 #fcfcfc #000000 #000000 0 1;
#N canvas 627 361 665 332 interface 0;
#X obj 23 279 s \$0-steps-input;
#X msg 36 82 0 1 0 0 1 0 0 0 0 0 1 0 1 0 0 1, f 8;
#X msg 48 143 0 0 0 0 1 0 0 0 0 0 0 0 1 0 0 0, f 8;
#X msg 61 205 0 1 0 0 1 0 0 0 0 0 1 0 1 0 0 1, f 8;
#X text 294 29 TRACK 1;
#X text 101 102 TRACK 2;
#X text 116 159 TRACK 3;
#X text 134 221 TRACK 4;
#X msg 191 10 127 127 127 127 127 127 127 127 127 127 127 127 127 127 127 127, f 15;
#X obj 191 279 s \$0-vel-input;
#X msg 209 72 127 127 127 127 127 127 127 127 127 127 127 127 127 127 127 127, f 15;
#X text 312 91 TRACK 2;
#X msg 230 135 127 127 127 127 127 127 127 127 127 127 127 127 127 127 127 127, f 15;
#X msg 248 197 127 127 127 127 127 127 127 127 127 127 127 127 127 127 127 127, f 15;
#X text 95 37 TRACK 1;
#X text 333 154 TRACK 3;
#X text 351 216 TRACK 4;
#X text 542 38 TRACK 1;
#X text 556 109 TRACK 2;
#X text 578 176 TRACK 3;
#X text 596 241 TRACK 4;
#X obj 416 289 s \$0-prob-input;
#X msg 441 85 100 100 100 100 100 100 100 100 100 100 100 100 100 100 100 100, f 17;
#X msg 464 154 100 100 100 100 100 100 100 100 100 100 100 100 100 100 100 100, f 17;
#X msg 476 218 100 100 100 100 100 100 100 100 100 100 100 100 100 100 100 100, f 17;
#X msg 23 20 1 0 0 0 1 0 0 0 1 0 0 0 1 0 0 0, f 8;
#X msg 416 20 100 100 100 100 50 100 100 100 100 100 100 100 25 100 100 100, f 17;
#X connect 1 0 0 0;
#X connect 2 0 0 0;
#X connect 3 0 0 0;
#X connect 8 0 9 0;
#X connect 10 0 9 0;
#X connect 12 0 9 0;
#X connect 13 0 9 0;
#X connect 22 0 21 0;
#X connect 23 0 21 0;
#X connect 24 0 21 0;
#X connect 25 0 0 0;
#X connect 26 0 21 0;
#X restore 499 33 pd interface;
#X obj 323 285 tgl 25 0 \$0-s-tgl-step-1 \$0-r-tgl-step-1 2 9 12 0 12 #fcfcfc #000000 #000000 0 1;
#X obj 354 285 tgl 25 0 \$0-s-tgl-step-2 \$0-r-tgl-step-2 3 9 12 0 12 #fcfcfc #000000 #000000 0 1;
#X obj 385 285 tgl 25 0 \$0-s-tgl-step-3 \$0-r-tgl-step-3 4 9 12 0 12 #fcfcfc #000000 #000000 0 1;
#X obj 416 285 tgl 25 0 \$0-s-tgl-step-4 \$0-r-tgl-step-4 5 9 12 0 12 #fcfcfc #000000 #000000 0 1;
#X obj 447 285 tgl 25 0 \$0-s-tgl-step-5 \$0-r-tgl-step-5 6 9 12 0 12 #fcfcfc #000000 #000000 0 1;
#X obj 478 285 tgl 25 0 \$0-s-tgl-step-6 \$0-r-tgl-step-6 7 9 12 0 12 #fcfcfc #000000 #000000 0 1;
#X obj 509 285 tgl 25 0 \$0-s-tgl-step-7 \$0-r-tgl-step-7 8 9 12 0 12 #fcfcfc #000000 #000000 0 1;
#X obj 292 316 tgl 25 0 \$0-s-tgl-step-8 \$0-r-tgl-step-8 9 9 12 0 12 #fcfcfc #000000 #000000 0 1;
#X obj 323 316 tgl 25 0 \$0-s-tgl-step-9 \$0-r-tgl-step-9 10 6 12 0 12 #fcfcfc #000000 #000000 0 1;
#X obj 354 316 tgl 25 0 \$0-s-tgl-step-10 \$0-r-tgl-step-10 11 6 12 0 12 #fcfcfc #000000 #000000 0 1;
#X obj 385 316 tgl 25 0 \$0-s-tgl-step-11 \$0-r-tgl-step-11 12 6 12 0 12 #fcfcfc #000000 #000000 0 1;
#X obj 416 316 tgl 25 0 \$0-s-tgl-step-12 \$0-r-tgl-step-12 13 6 12 0 12 #fcfcfc #000000 #000000 0 1;
#X obj 447 316 tgl 25 0 \$0-s-tgl-step-13 \$0-r-tgl-step-13 14 6 12 0 12 #fcfcfc #000000 #000000 0 1;
#X obj 478 316 tgl 25 0 \$0-s-tgl-step-14 \$0-r-tgl-step-14 15 6 12 0 12 #fcfcfc #000000 #000000 0 1;
#X obj 509 316 tgl 25 0 \$0-s-tgl-step-15 \$0-r-tgl-step-15 16 6 12 0 12 #fcfcfc #000000 #000000 0 1;
#X obj 470 239 hradio 12 1 0 4 empty empty page 0 -9 0 10 #fcfcfc #000000 #000000 0;
#X obj 470 256 s PAGE_SEL;
#X obj 290 174 s \$0-pattern_changed;
#X obj 290 109 t f f;
#N canvas 504 145 910 765 steps 0;
#X obj 179 271 array set \$0-steps-t1;
#X obj 109 223 * 16;
#X obj 240 240 + 0, f 5;
#X obj 240 206 t b f;
#X obj 179 189 unpack;
#X obj 45 310 array get \$0-steps-t1;
#X obj 191 29 r TRACK_SEL;
#X obj 302 202 pack 0 \$0;
#X obj 302 178 + 1;
#N canvas 144 299 1631 457 handle_tgl_send 0;
#X obj 19 11 r \$0-s-tgl-step-0;
#X msg 19 33 \$1 0;
#X obj 69 33 r \$0-s-tgl-step-1;
#X msg 69 55 \$1 1;
#X msg 113 78 \$1 2;
#X msg 163 100 \$1 3;
#X obj 113 56 r \$0-s-tgl-step-2;
#X obj 163 78 r \$0-s-tgl-step-3;
#X msg 197 32 \$1 4;
#X msg 247 54 \$1 5;
#X msg 291 77 \$1 6;
#X msg 341 99 \$1 7;
#X obj 197 10 r \$0-s-tgl-step-4;
#X obj 247 32 r \$0-s-tgl-step-5;
#X obj 291 55 r \$0-s-tgl-step-6;
#X obj 341 77 r \$0-s-tgl-step-7;
#X msg 383 28 \$1 8;
#X msg 433 50 \$1 9;
#X msg 477 73 \$1 10;
#X msg 527 95 \$1 11;
#X obj 383 6 r \$0-s-tgl-step-8;
#X obj 433 28 r \$0-s-tgl-step-9;
#X obj 477 51 r \$0-s-tgl-step-10;
#X obj 527 73 r \$0-s-tgl-step-11;
#X msg 561 27 \$1 12;
#X msg 611 49 \$1 13;
#X msg 655 72 \$1 14;
#X msg 705 94 \$1 15;
#X obj 561 5 r \$0-s-tgl-step-12;
#X obj 611 27 r \$0-s-tgl-step-13;
#X obj 655 50 r \$0-s-tgl-step-14;
#X obj 705 72 r \$0-s-tgl-step-15;
#X obj 19 190 outlet;
#X connect 0 0 1 0;
#X connect 1 0 32 0;
#X connect 2 0 3 0;
#X connect 3 0 32 0;
#X connect 4 0 32 0;
#X connect 5 0 32 0;
#X connect 6 0 4 0;
#X connect 7 0 5 0;
#X connect 8 0 32 0;
#X connect 9 0 32 0;
#X connect 10 0 32 0;
#X connect 11 0 32 0;
#X connect 12 0 8 0;
#X connect 13 0 9 0;
#X connect 14 0 10 0;
#X connect 15 0 11 0;
#X connect 16 0 32 0;
#X connect 17 0 32 0;
#X connect 18 0 32 0;
#X connect 19 0 32 0;
#X connect 20 0 16 0;
#X connect 21 0 17 0;
#X connect 22 0 18 0;
#X connect 23 0 19 0;
#X connect 24 0 32 0;
#X connect 25 0 32 0;
#X connect 26 0 32 0;
#X connect 27 0 32 0;
#X connect 28 0 24 0;
#X connect 29 0 25 0;
#X connect 30 0 26 0;
#X connect 31 0 27 0;
#X restore 179 119 pd handle_tgl_send;
#X obj 45 83 r PAGE_SEL;
#X obj 45 281 * 16;
#X msg 107 269 16;
#X msg 302 234 symbol \$2-steps-t\$1;
#N canvas 843 228 662 605 handle_tgl_receive 0;
#X obj 37 37 inlet;
#X obj 37 68 unpack f f f f f f f f f f f f f f f f;
#X obj 37 94 s \$0-r-tgl-step-0;
#X obj 51 118 s \$0-r-tgl-step-1;
#X obj 67 145 s \$0-r-tgl-step-2;
#X obj 82 168 s \$0-r-tgl-step-3;
#X obj 97 195 s \$0-r-tgl-step-4;
#X obj 111 219 s \$0-r-tgl-step-5;
#X obj 127 246 s \$0-r-tgl-step-6;
#X obj 142 269 s \$0-r-tgl-step-7;
#X obj 157 294 s \$0-r-tgl-step-8;
#X obj 171 318 s \$0-r-tgl-step-9;
#X obj 187 345 s \$0-r-tgl-step-10;
#X obj 202 368 s \$0-r-tgl-step-11;
#X obj 217 395 s \$0-r-tgl-step-12;
#X obj 231 419 s \$0-r-tgl-step-13;
#X obj 247 446 s \$0-r-tgl-step-14;
#X obj 262 469 s \$0-r-tgl-step-15;
#X connect 0 0 1 0;
#X connect 1 0 2 0;
#X connect 1 1 3 0;
#X connect 1 2 4 0;
#X connect 1 3 5 0;
#X connect 1 4 6 0;
#X connect 1 5 7 0;
#X connect 1 6 8 0;
#X connect 1 7 9 0;
#X connect 1 8 10 0;
#X connect 1 9 11 0;
#X connect 1 10 12 0;
#X connect 1 11 13 0;
#X connect 1 12 14 0;
#X connect 1 13 15 0;
#X connect 1 14 16 0;
#X connect 1 15 17 0;
#X restore 45 352 pd handle_tgl_receive;
#X obj 45 206 t f b f;
#X text 201 288 Writing to array;
#X text 58 330 Loading from array;
#X obj 45 164 int, f 5;
#X obj 45 109 t b f;
#X obj 191 95 t b f, f 19;
#X obj 196 166 s TGL_INPUT_SIG;
#X obj 196 142 t b;
#X obj 191 73 int;
#X obj 191 51 t b f;
#X obj 38 26 r \$0-pattern_changed;
#X connect 1 0 2 0;
#X connect 2 0 0 1;
#X connect 3 0 2 0;
#X connect 3 1 2 1;
#X connect 4 0 0 0;
#X connect 4 1 3 0;
#X connect 5 0 14 0;
#X connect 6 0 24 0;
#X connect 7 0 13 0;
#X connect 8 0 7 0;
#X connect 9 0 4 0;
#X connect 9 0 22 0;
#X connect 10 0 19 0;
#X connect 11 0 5 0;
#X connect 12 0 5 1;
#X connect 13 0 5 2;
#X connect 13 0 0 2;
#X connect 15 0 11 0;
#X connect 15 1 12 0;
#X connect 15 2 1 0;
#X connect 18 0 15 0;
#X connect 19 0 18 0;
#X connect 19 1 18 1;
#X connect 20 0 18 0;
#X connect 20 1 8 0;
#X connect 22 0 21 0;
#X connect 23 0 20 0;
#X connect 24 0 23 0;
#X connect 24 1 23 1;
#X connect 25 0 23 0;
#X restore 523 55 pd steps;
#X connect 0 0 1 0;
#X connect 1 0 2 0;
#X connect 2 0 3 0;
#X connect 2 0 4 0;
#X connect 3 0 2 1;
#X connect 5 0 6 0;
#X connect 6 0 23 0;
#X connect 7 0 8 0;
#X connect 8 0 24 0;
#X connect 11 0 6 1;
#X connect 12 0 21 0;
#X connect 12 0 46 0;
#X connect 13 0 14 0;
#X connect 16 0 2 1;
#X connect 17 0 19 0;
#X connect 18 0 17 1;
#X connect 19 0 10 0;
#X connect 21 0 20 0;
#X connect 22 0 24 1;
#X connect 23 0 7 0;
#X connect 23 1 18 0;
#X connect 23 2 22 0;
#X connect 24 0 17 0;
#X connect 24 1 25 0;
#X connect 43 0 44 0;
#X connect 46 0 45 0;
#X connect 46 1 15 0;
