#N canvas 611 95 863 935 10;
#X obj 28 18 tgl 18 0 empty empty empty 0 -9 0 10 #fcfcfc #000000 #000000 0 1;
#X obj 28 41 else/tempo -mul 4 100;
#X obj 28 83 int;
#X obj 63 83 + 1;
#X obj 28 105 s COUNTER;
#N canvas 343 124 1233 806 arrays 0;
#X obj 74 347 array set \$0-steps-t1;
#X obj 203 132 pack 0 \$0;
#X msg 203 162 symbol \$2-pattern-\$1;
#X obj 203 108 + 1;
#X obj 74 279 array get \$0-pattern-1;
#X obj 45 141 until;
#X msg 45 119 4;
#X obj 74 176 int;
#X obj 102 175 + 1;
#X msg 89 152 0;
#X obj 245 280 pack 0 \$0;
#X obj 245 256 + 1;
#X msg 245 307 symbol \$2-steps-t\$1;
#X obj 74 215 t f f, f 29;
#N canvas 155 207 1608 640 array_define 0;
#X obj 20 44 array define -yrange 0 1 \$0-steps-t1 64;
#X obj 20 68 array define -yrange 0 1 \$0-steps-t2 64;
#X obj 20 92 array define -yrange 0 1 \$0-steps-t3 64;
#X obj 20 116 array define -yrange 0 1 \$0-steps-t4 64;
#X obj 297 79 array define -yrange 0 127 \$0-vel-t1 64;
#X obj 297 103 array define -yrange 0 127 \$0-vel-t2 64;
#X obj 297 127 array define -yrange 0 127 \$0-vel-t3 64;
#X obj 297 151 array define -yrange 0 127 \$0-vel-t4 64;
#X obj 315 197 cnv 18 300 95 empty empty empty 20 12 0 10 #e0e0e0 #404040 0;
#X obj 321 240 cnv 18 65 45 empty empty empty 20 12 0 10 #feffc6 #404040 0;
#X text 322 199 Pattern[];
#X obj 546 79 array define -yrange 0 100 \$0-prob-t1 64;
#X obj 546 103 array define -yrange 0 100 \$0-prob-t2 64;
#X obj 546 127 array define -yrange 0 100 \$0-prob-t3 64;
#X obj 546 151 array define -yrange 0 100 \$0-prob-t4 64;
#X obj 19 174 array define -yrange 0 127 \$0-pattern-1 768;
#X obj 19 198 array define -yrange 0 127 \$0-pattern-2 768;
#X obj 19 222 array define -yrange 0 127 \$0-pattern-3 768;
#X obj 19 246 array define -yrange 0 127 \$0-pattern-4 768;
#X obj 394 240 cnv 18 65 45 empty empty empty 20 12 0 10 #feffc6 #404040 0;
#X obj 466 240 cnv 18 65 45 empty empty empty 20 12 0 10 #feffc6 #404040 0;
#X obj 539 240 cnv 18 65 45 empty empty empty 20 12 0 10 #feffc6 #404040 0;
#X text 324 268 t1-p[64];
#X text 324 254 t1-v[64];
#X text 324 239 t1-s[64];
#X text 397 239 t2-s[64];
#X text 397 254 t2-v[64];
#X text 397 268 t2-p[64];
#X text 469 239 t3-s[64];
#X text 469 254 t3-v[64];
#X text 469 268 t3-p[64];
#X text 542 239 t4-s[64];
#X text 542 254 t4-v[64];
#X text 542 268 t4-p[64];
#X text 333 221 T1[0];
#X text 404 222 T2[192];
#X text 476 222 T3[384];
#X text 549 222 T4[576];
#X obj 649 233 *;
#X floatatom 649 255 5 0 0 0 - - - 0;
#X msg 649 211 64 8;
#X obj 297 26 loadbang;
#X msg 297 48 const 127;
#X obj 546 27 loadbang;
#X msg 546 50 const 100;
#X connect 38 0 39 0;
#X connect 40 0 38 0;
#X connect 41 0 42 0;
#X connect 42 0 4 0;
#X connect 42 0 7 0;
#X connect 42 0 6 0;
#X connect 42 0 5 0;
#X connect 43 0 44 0;
#X connect 44 0 11 0;
#X connect 44 0 12 0;
#X connect 44 0 14 0;
#X connect 44 0 13 0;
#X restore 14 10 pd array_define;
#X text 155 82 Loading from pattern into steps;
#X msg 139 248 64;
#X obj 74 249 * 64;
#X obj 58 744 array set \$0-pattern-1;
#X obj 187 679 pack 0 \$0;
#X msg 187 709 symbol \$2-pattern-\$1;
#X obj 187 655 + 1;
#X obj 58 613 t l b;
#X obj 74 60 r PATTERN_SEL;
#X obj 187 631 r PATTERN_SEL;
#X obj 181 441 r TRACK_SEL;
#X obj 181 494 pack 0 \$0;
#X obj 181 470 + 1;
#X msg 181 524 symbol \$2-steps-t\$1;
#X msg 91 649 64;
#X obj 91 703 * 0;
#X obj 106 676 r TRACK_SEL;
#X text 120 607 Writing from steps into pattern;
#X obj 600 113 pack 0 \$0;
#X msg 600 143 symbol \$2-pattern-\$1;
#X obj 600 89 + 1;
#X obj 471 294 array get \$0-pattern-1;
#X obj 442 122 until;
#X msg 442 100 4;
#X obj 471 157 int;
#X obj 499 156 + 1;
#X obj 471 63 t b b f;
#X msg 486 133 0;
#X obj 642 295 pack 0 \$0;
#X obj 642 271 + 1;
#X obj 471 196 t f f, f 29;
#X msg 536 263 64;
#X obj 471 232 * 64;
#X obj 471 41 r PATTERN_SEL;
#X text 552 63 Loading from pattern into velocity;
#X obj 471 362 array set \$0-vel-t1;
#X msg 642 322 symbol \$2-vel-t\$1;
#X obj 471 263 + 256;
#X obj 1005 117 pack 0 \$0;
#X msg 1005 147 symbol \$2-pattern-\$1;
#X obj 1005 93 + 1;
#X obj 876 298 array get \$0-pattern-1;
#X obj 847 126 until;
#X msg 847 104 4;
#X obj 876 161 int;
#X obj 904 160 + 1;
#X obj 876 67 t b b f;
#X msg 891 137 0;
#X obj 1047 299 pack 0 \$0;
#X obj 1047 275 + 1;
#X obj 876 200 t f f, f 29;
#X msg 941 267 64;
#X obj 876 236 * 64;
#X obj 876 45 r PATTERN_SEL;
#X text 957 68 Loading from pattern into probability;
#X msg 1047 326 symbol \$2-prob-t\$1;
#X obj 876 366 array set \$0-prob-t1;
#X obj 876 267 + 512;
#X obj 433 752 array set \$0-pattern-1;
#X obj 562 687 pack 0 \$0;
#X msg 562 717 symbol \$2-pattern-\$1;
#X obj 562 663 + 1;
#X obj 433 536 t b l;
#X obj 433 621 t l b;
#X obj 562 639 r PATTERN_SEL;
#X obj 556 449 r TRACK_SEL;
#X obj 556 502 pack 0 \$0;
#X obj 556 478 + 1;
#X msg 466 643 64;
#X obj 466 692 * 0;
#X obj 481 665 r TRACK_SEL;
#X text 495 615 Writing from velocity into pattern;
#X obj 481 722 + 256;
#X msg 556 532 symbol \$2-vel-t\$1;
#X obj 460 563 array set \$0-vel-t2;
#X obj 838 750 array set \$0-pattern-1;
#X obj 967 685 pack 0 \$0;
#X msg 967 715 symbol \$2-pattern-\$1;
#X obj 967 661 + 1;
#X obj 838 534 t b l;
#X obj 838 619 t l b;
#X obj 967 637 r PATTERN_SEL;
#X obj 961 447 r TRACK_SEL;
#X obj 961 500 pack 0 \$0;
#X obj 961 476 + 1;
#X msg 871 641 64;
#X obj 871 690 * 0;
#X obj 886 663 r TRACK_SEL;
#X msg 961 530 symbol \$2-prob-t\$1;
#X obj 865 561 array set \$0-prob-t2;
#X obj 886 720 + 512;
#X obj 838 509 r \$0-prob-input;
#X obj 250 333 print STEPS;
#X obj 650 344 print VEL;
#X obj 1055 348 print PROB;
#X obj 87 306 print STEPS;
#X obj 484 321 print VEL;
#X obj 889 325 print PROB;
#X text 900 613 Writing from probability into pattern;
#X obj 58 584 array get \$0-steps-t1;
#X obj 74 82 t b b f;
#N canvas 324 71 1271 913 initialize 0;
#X obj 73 421 array set \$0-pattern-1;
#X obj 73 314 t l b;
#X msg 112 340 64;
#X obj 112 370 * 0;
#X obj 121 396 + 256;
#X obj 73 139 until;
#X obj 73 161 i;
#X obj 109 161 + 1;
#X obj 73 285 array get \$0-vel-t1;
#X obj 163 227 pack 0 \$0;
#X obj 163 200 + 1;
#X msg 163 254 symbol \$2-vel-t\$1;
#X msg 119 130 0;
#X obj 73 2 loadbang;
#X obj 202 361 pack 0 \$0;
#X obj 202 334 + 1;
#X msg 73 117 4;
#X obj 73 183 t b f f, f 11;
#X obj 73 47 until;
#X obj 73 69 i;
#X obj 109 69 + 1;
#X msg 119 38 0;
#X msg 73 25 4;
#X msg 202 388 symbol \$2-pattern-\$1;
#X obj 73 91 t b b f, f 22;
#X obj 347 429 array set \$0-pattern-1;
#X obj 347 322 t l b;
#X msg 386 348 64;
#X obj 386 378 * 0;
#X obj 347 147 until;
#X obj 347 169 i;
#X obj 383 169 + 1;
#X obj 437 235 pack 0 \$0;
#X obj 437 208 + 1;
#X msg 393 138 0;
#X obj 347 10 loadbang;
#X obj 476 369 pack 0 \$0;
#X obj 476 342 + 1;
#X msg 347 125 4;
#X obj 347 191 t b f f, f 11;
#X obj 347 55 until;
#X obj 347 77 i;
#X obj 383 77 + 1;
#X msg 393 46 0;
#X msg 347 33 4;
#X msg 476 396 symbol \$2-pattern-\$1;
#X obj 347 99 t b b f, f 22;
#X msg 437 262 symbol \$2-prob-t\$1;
#X obj 347 293 array get \$0-prob-t1;
#X obj 395 404 + 512;
#X connect 1 0 0 0;
#X connect 1 1 2 0;
#X connect 2 0 3 0;
#X connect 3 0 4 0;
#X connect 4 0 0 1;
#X connect 5 0 6 0;
#X connect 6 0 7 0;
#X connect 6 0 17 0;
#X connect 7 0 6 1;
#X connect 8 0 1 0;
#X connect 9 0 11 0;
#X connect 10 0 9 0;
#X connect 11 0 8 2;
#X connect 12 0 6 1;
#X connect 13 0 22 0;
#X connect 14 0 23 0;
#X connect 15 0 14 0;
#X connect 16 0 5 0;
#X connect 17 0 8 0;
#X connect 17 1 3 1;
#X connect 17 2 10 0;
#X connect 18 0 19 0;
#X connect 19 0 20 0;
#X connect 19 0 24 0;
#X connect 20 0 19 1;
#X connect 21 0 19 1;
#X connect 22 0 18 0;
#X connect 23 0 0 2;
#X connect 24 0 16 0;
#X connect 24 1 12 0;
#X connect 24 2 15 0;
#X connect 26 0 25 0;
#X connect 26 1 27 0;
#X connect 27 0 28 0;
#X connect 28 0 49 0;
#X connect 29 0 30 0;
#X connect 30 0 31 0;
#X connect 30 0 39 0;
#X connect 31 0 30 1;
#X connect 32 0 47 0;
#X connect 33 0 32 0;
#X connect 34 0 30 1;
#X connect 35 0 44 0;
#X connect 36 0 45 0;
#X connect 37 0 36 0;
#X connect 38 0 29 0;
#X connect 39 0 48 0;
#X connect 39 1 28 1;
#X connect 39 2 33 0;
#X connect 40 0 41 0;
#X connect 41 0 42 0;
#X connect 41 0 46 0;
#X connect 42 0 41 1;
#X connect 43 0 41 1;
#X connect 44 0 40 0;
#X connect 45 0 25 2;
#X connect 46 0 38 0;
#X connect 46 1 34 0;
#X connect 46 2 37 0;
#X connect 47 0 48 2;
#X connect 48 0 26 0;
#X connect 49 0 25 1;
#X restore 130 12 pd initialize;
#X obj 392 505 r NB2_VEL_INPUT_SIG;
#X obj 731 469 r NB2_PROB_INPUT_SIG;
#X obj 58 546 r TGL_STEP_INPUT_SIG;
#X obj 433 592 array get \$0-vel-t1, f 21;
#X obj 838 590 array get \$0-prob-t1, f 21;
#X connect 1 0 2 0;
#X connect 2 0 4 2;
#X connect 3 0 1 0;
#X connect 4 0 0 0;
#X connect 4 0 110 0;
#X connect 5 0 7 0;
#X connect 6 0 5 0;
#X connect 7 0 8 0;
#X connect 7 0 13 0;
#X connect 8 0 7 1;
#X connect 9 0 7 1;
#X connect 10 0 12 0;
#X connect 11 0 10 0;
#X connect 12 0 0 2;
#X connect 12 0 107 0;
#X connect 13 0 17 0;
#X connect 13 1 11 0;
#X connect 16 0 4 1;
#X connect 17 0 4 0;
#X connect 19 0 20 0;
#X connect 20 0 18 2;
#X connect 21 0 19 0;
#X connect 22 0 18 0;
#X connect 22 1 29 0;
#X connect 23 0 115 0;
#X connect 24 0 21 0;
#X connect 25 0 27 0;
#X connect 26 0 28 0;
#X connect 27 0 26 0;
#X connect 28 0 114 2;
#X connect 29 0 30 0;
#X connect 30 0 18 1;
#X connect 31 0 30 1;
#X connect 33 0 34 0;
#X connect 34 0 36 2;
#X connect 35 0 33 0;
#X connect 36 0 50 0;
#X connect 36 0 111 0;
#X connect 37 0 39 0;
#X connect 38 0 37 0;
#X connect 39 0 40 0;
#X connect 39 0 45 0;
#X connect 40 0 39 1;
#X connect 41 0 38 0;
#X connect 41 1 46 0;
#X connect 41 1 42 0;
#X connect 41 2 35 0;
#X connect 42 0 39 1;
#X connect 43 0 51 0;
#X connect 44 0 43 0;
#X connect 45 0 47 0;
#X connect 45 1 44 0;
#X connect 46 0 36 1;
#X connect 47 0 52 0;
#X connect 48 0 41 0;
#X connect 51 0 50 2;
#X connect 51 0 108 0;
#X connect 52 0 36 0;
#X connect 53 0 54 0;
#X connect 54 0 56 2;
#X connect 55 0 53 0;
#X connect 56 0 71 0;
#X connect 56 0 112 0;
#X connect 57 0 59 0;
#X connect 58 0 57 0;
#X connect 59 0 60 0;
#X connect 59 0 65 0;
#X connect 60 0 59 1;
#X connect 61 0 58 0;
#X connect 61 1 66 0;
#X connect 61 1 62 0;
#X connect 61 2 55 0;
#X connect 62 0 59 1;
#X connect 63 0 70 0;
#X connect 64 0 63 0;
#X connect 65 0 67 0;
#X connect 65 1 64 0;
#X connect 66 0 56 1;
#X connect 67 0 72 0;
#X connect 68 0 61 0;
#X connect 70 0 71 2;
#X connect 70 0 109 0;
#X connect 72 0 56 0;
#X connect 74 0 75 0;
#X connect 75 0 73 2;
#X connect 76 0 74 0;
#X connect 77 0 120 0;
#X connect 77 1 89 0;
#X connect 78 0 73 0;
#X connect 78 1 83 0;
#X connect 79 0 76 0;
#X connect 80 0 82 0;
#X connect 81 0 88 0;
#X connect 82 0 81 0;
#X connect 83 0 84 0;
#X connect 84 0 87 0;
#X connect 85 0 84 1;
#X connect 87 0 73 1;
#X connect 88 0 89 2;
#X connect 88 0 120 2;
#X connect 91 0 92 0;
#X connect 92 0 90 2;
#X connect 93 0 91 0;
#X connect 94 1 104 0;
#X connect 95 0 90 0;
#X connect 95 1 100 0;
#X connect 96 0 93 0;
#X connect 97 0 99 0;
#X connect 98 0 103 0;
#X connect 99 0 98 0;
#X connect 100 0 101 0;
#X connect 101 0 105 0;
#X connect 102 0 101 1;
#X connect 103 0 104 2;
#X connect 103 0 121 2;
#X connect 105 0 90 1;
#X connect 106 0 94 0;
#X connect 114 0 22 0;
#X connect 115 0 6 0;
#X connect 115 1 9 0;
#X connect 115 1 16 0;
#X connect 115 2 3 0;
#X connect 117 0 120 0;
#X connect 118 0 121 0;
#X connect 119 0 114 0;
#X connect 120 0 78 0;
#X connect 121 0 95 0;
#X restore 366 7 pd arrays;
#X obj 172 59 hradio 12 1 0 4 empty empty pattern 0 -9 0 10 #fcfcfc #000000 #000000 0;
#X obj 29 190 hradio 12 1 0 4 empty empty track 0 -9 0 10 #fcfcfc #000000 #000000 0;
#X obj 29 212 s TRACK_SEL;
#X obj 199 117 s PATTERN_SEL;
#X msg 48 62 0;
#X obj 253 95 print PATTERN;
#X obj 253 71 + 1;
#X obj 29 239 tgl 25 0 \$0-s-tgl-step-0 \$0-r-tgl-step-0 1 9 12 0 12 #fcfcfc #000000 #000000 0 1;
#N canvas 627 361 665 332 interface 0;
#X obj 23 279 s \$0-steps-input;
#X msg 36 82 0 1 0 0 1 0 0 0 0 0 1 0 1 0 0 1, f 8;
#X msg 48 143 0 0 0 0 1 0 0 0 0 0 0 0 1 0 0 0, f 8;
#X msg 61 205 0 1 0 0 1 0 0 0 0 0 1 0 1 0 0 1, f 8;
#X text 294 29 TRACK 1;
#X text 101 102 TRACK 2;
#X text 116 159 TRACK 3;
#X text 134 221 TRACK 4;
#X msg 191 10 127 127 127 127 127 127 127 127 127 127 127 127 127 127 127 127, f 15;
#X obj 191 279 s \$0-vel-input;
#X msg 209 72 127 127 127 127 127 127 127 127 127 127 127 127 127 127 127 127, f 15;
#X text 312 91 TRACK 2;
#X msg 230 135 127 127 127 127 127 127 127 127 127 127 127 127 127 127 127 127, f 15;
#X msg 248 197 127 127 127 127 127 127 127 127 127 127 127 127 127 127 127 127, f 15;
#X text 95 37 TRACK 1;
#X text 333 154 TRACK 3;
#X text 351 216 TRACK 4;
#X text 542 38 TRACK 1;
#X text 556 109 TRACK 2;
#X text 578 176 TRACK 3;
#X text 596 241 TRACK 4;
#X obj 416 289 s \$0-prob-input;
#X msg 441 85 100 100 100 100 100 100 100 100 100 100 100 100 100 100 100 100, f 17;
#X msg 464 154 100 100 100 100 100 100 100 100 100 100 100 100 100 100 100 100, f 17;
#X msg 476 218 100 100 100 100 100 100 100 100 100 100 100 100 100 100 100 100, f 17;
#X msg 23 20 1 0 0 0 1 0 0 0 1 0 0 0 1 0 0 0, f 8;
#X msg 416 20 100 100 100 100 50 100 100 100 100 100 100 100 25 100 100 100, f 17;
#X connect 1 0 0 0;
#X connect 2 0 0 0;
#X connect 3 0 0 0;
#X connect 8 0 9 0;
#X connect 10 0 9 0;
#X connect 12 0 9 0;
#X connect 13 0 9 0;
#X connect 22 0 21 0;
#X connect 23 0 21 0;
#X connect 24 0 21 0;
#X connect 25 0 0 0;
#X connect 26 0 21 0;
#X restore 348 28 pd interface;
#X obj 60 239 tgl 25 0 \$0-s-tgl-step-1 \$0-r-tgl-step-1 2 9 12 0 12 #fcfcfc #000000 #000000 0 1;
#X obj 91 239 tgl 25 0 \$0-s-tgl-step-2 \$0-r-tgl-step-2 3 9 12 0 12 #fcfcfc #000000 #000000 0 1;
#X obj 122 239 tgl 25 0 \$0-s-tgl-step-3 \$0-r-tgl-step-3 4 9 12 0 12 #fcfcfc #000000 #000000 0 1;
#X obj 153 239 tgl 25 0 \$0-s-tgl-step-4 \$0-r-tgl-step-4 5 9 12 0 12 #fcfcfc #000000 #000000 0 1;
#X obj 184 239 tgl 25 0 \$0-s-tgl-step-5 \$0-r-tgl-step-5 6 9 12 0 12 #fcfcfc #000000 #000000 0 1;
#X obj 215 239 tgl 25 0 \$0-s-tgl-step-6 \$0-r-tgl-step-6 7 9 12 0 12 #fcfcfc #000000 #000000 0 1;
#X obj 246 239 tgl 25 0 \$0-s-tgl-step-7 \$0-r-tgl-step-7 8 9 12 0 12 #fcfcfc #000000 #000000 0 1;
#X obj 29 270 tgl 25 0 \$0-s-tgl-step-8 \$0-r-tgl-step-8 9 9 12 0 12 #fcfcfc #000000 #000000 0 1;
#X obj 60 270 tgl 25 0 \$0-s-tgl-step-9 \$0-r-tgl-step-9 10 6 12 0 12 #fcfcfc #000000 #000000 0 1;
#X obj 91 270 tgl 25 0 \$0-s-tgl-step-10 \$0-r-tgl-step-10 11 6 12 0 12 #fcfcfc #000000 #000000 0 1;
#X obj 122 270 tgl 25 0 \$0-s-tgl-step-11 \$0-r-tgl-step-11 12 6 12 0 12 #fcfcfc #000000 #000000 0 1;
#X obj 153 270 tgl 25 0 \$0-s-tgl-step-12 \$0-r-tgl-step-12 13 6 12 0 12 #fcfcfc #000000 #000000 0 1;
#X obj 184 270 tgl 25 0 \$0-s-tgl-step-13 \$0-r-tgl-step-13 14 6 12 0 12 #fcfcfc #000000 #000000 0 1;
#X obj 215 270 tgl 25 0 \$0-s-tgl-step-14 \$0-r-tgl-step-14 15 6 12 0 12 #fcfcfc #000000 #000000 0 1;
#X obj 246 270 tgl 25 0 \$0-s-tgl-step-15 \$0-r-tgl-step-15 16 6 12 0 12 #fcfcfc #000000 #000000 0 1;
#X obj 207 193 hradio 12 1 0 4 empty empty page 0 -9 0 10 #fcfcfc #000000 #000000 0;
#X obj 207 210 s PAGE_SEL;
#X obj 172 141 s \$0-pattern_changed;
#X obj 172 76 t f f;
#N canvas 72 127 1774 801 steps 0;
#X obj 179 280 array set \$0-steps-t1;
#X obj 109 223 * 16;
#X obj 240 249 + 0, f 5;
#X obj 240 215 t b f;
#X obj 179 198 unpack;
#X obj 45 310 array get \$0-steps-t1;
#X obj 191 29 r TRACK_SEL;
#X obj 302 211 pack 0 \$0;
#X obj 302 187 + 1;
#N canvas 144 299 1631 457 handle_tgl_send 0;
#X obj 19 11 r \$0-s-tgl-step-0;
#X msg 19 33 \$1 0;
#X obj 69 33 r \$0-s-tgl-step-1;
#X msg 69 55 \$1 1;
#X msg 113 78 \$1 2;
#X msg 163 100 \$1 3;
#X obj 113 56 r \$0-s-tgl-step-2;
#X obj 163 78 r \$0-s-tgl-step-3;
#X msg 197 32 \$1 4;
#X msg 247 54 \$1 5;
#X msg 291 77 \$1 6;
#X msg 341 99 \$1 7;
#X obj 197 10 r \$0-s-tgl-step-4;
#X obj 247 32 r \$0-s-tgl-step-5;
#X obj 291 55 r \$0-s-tgl-step-6;
#X obj 341 77 r \$0-s-tgl-step-7;
#X msg 383 28 \$1 8;
#X msg 433 50 \$1 9;
#X msg 477 73 \$1 10;
#X msg 527 95 \$1 11;
#X obj 383 6 r \$0-s-tgl-step-8;
#X obj 433 28 r \$0-s-tgl-step-9;
#X obj 477 51 r \$0-s-tgl-step-10;
#X obj 527 73 r \$0-s-tgl-step-11;
#X msg 561 27 \$1 12;
#X msg 611 49 \$1 13;
#X msg 655 72 \$1 14;
#X msg 705 94 \$1 15;
#X obj 561 5 r \$0-s-tgl-step-12;
#X obj 611 27 r \$0-s-tgl-step-13;
#X obj 655 50 r \$0-s-tgl-step-14;
#X obj 705 72 r \$0-s-tgl-step-15;
#X obj 19 190 outlet;
#X connect 0 0 1 0;
#X connect 1 0 32 0;
#X connect 2 0 3 0;
#X connect 3 0 32 0;
#X connect 4 0 32 0;
#X connect 5 0 32 0;
#X connect 6 0 4 0;
#X connect 7 0 5 0;
#X connect 8 0 32 0;
#X connect 9 0 32 0;
#X connect 10 0 32 0;
#X connect 11 0 32 0;
#X connect 12 0 8 0;
#X connect 13 0 9 0;
#X connect 14 0 10 0;
#X connect 15 0 11 0;
#X connect 16 0 32 0;
#X connect 17 0 32 0;
#X connect 18 0 32 0;
#X connect 19 0 32 0;
#X connect 20 0 16 0;
#X connect 21 0 17 0;
#X connect 22 0 18 0;
#X connect 23 0 19 0;
#X connect 24 0 32 0;
#X connect 25 0 32 0;
#X connect 26 0 32 0;
#X connect 27 0 32 0;
#X connect 28 0 24 0;
#X connect 29 0 25 0;
#X connect 30 0 26 0;
#X connect 31 0 27 0;
#X restore 179 119 pd handle_tgl_send;
#X obj 45 82 r PAGE_SEL;
#X obj 45 281 * 16;
#X msg 107 269 16;
#X msg 302 243 symbol \$2-steps-t\$1;
#N canvas 628 225 662 605 handle_tgl_receive 0;
#X obj 37 37 inlet;
#X obj 37 68 unpack f f f f f f f f f f f f f f f f;
#X obj 37 94 s \$0-r-tgl-step-0;
#X obj 51 118 s \$0-r-tgl-step-1;
#X obj 67 145 s \$0-r-tgl-step-2;
#X obj 82 168 s \$0-r-tgl-step-3;
#X obj 97 195 s \$0-r-tgl-step-4;
#X obj 111 219 s \$0-r-tgl-step-5;
#X obj 127 246 s \$0-r-tgl-step-6;
#X obj 142 269 s \$0-r-tgl-step-7;
#X obj 157 294 s \$0-r-tgl-step-8;
#X obj 171 318 s \$0-r-tgl-step-9;
#X obj 187 345 s \$0-r-tgl-step-10;
#X obj 202 368 s \$0-r-tgl-step-11;
#X obj 217 395 s \$0-r-tgl-step-12;
#X obj 231 419 s \$0-r-tgl-step-13;
#X obj 247 446 s \$0-r-tgl-step-14;
#X obj 262 469 s \$0-r-tgl-step-15;
#X connect 0 0 1 0;
#X connect 1 0 2 0;
#X connect 1 1 3 0;
#X connect 1 2 4 0;
#X connect 1 3 5 0;
#X connect 1 4 6 0;
#X connect 1 5 7 0;
#X connect 1 6 8 0;
#X connect 1 7 9 0;
#X connect 1 8 10 0;
#X connect 1 9 11 0;
#X connect 1 10 12 0;
#X connect 1 11 13 0;
#X connect 1 12 14 0;
#X connect 1 13 15 0;
#X connect 1 14 16 0;
#X connect 1 15 17 0;
#X restore 45 352 pd handle_tgl_receive;
#X obj 45 206 t f b f;
#X text 201 297 Writing to array;
#X text 58 330 Loading from array;
#X obj 45 164 int, f 5;
#X obj 45 109 t b f;
#X obj 191 95 t b f, f 19;
#X obj 196 142 t b;
#X obj 191 73 int;
#X obj 191 51 t b f;
#X obj 38 26 r \$0-pattern_changed;
#X obj 542 228 * 16;
#X obj 673 255 + 0, f 5;
#X obj 673 221 t b f;
#X obj 612 204 unpack;
#X obj 624 34 r TRACK_SEL;
#X obj 735 217 pack 0 \$0;
#X obj 735 193 + 1;
#X obj 478 87 r PAGE_SEL;
#X obj 478 286 * 16;
#X msg 540 274 16;
#X obj 478 211 t f b f;
#X text 634 303 Writing to array;
#X text 491 335 Loading from array;
#X obj 478 169 int, f 5;
#X obj 478 114 t b f;
#X obj 624 100 t b f, f 19;
#X obj 629 147 t b;
#X obj 624 78 int;
#X obj 624 56 t b f;
#X obj 471 31 r \$0-pattern_changed;
#N canvas 144 299 1631 457 handle_vel_send 0;
#X msg 19 33 \$1 0;
#X msg 69 55 \$1 1;
#X msg 113 78 \$1 2;
#X msg 163 100 \$1 3;
#X msg 197 32 \$1 4;
#X msg 247 54 \$1 5;
#X msg 291 77 \$1 6;
#X msg 341 99 \$1 7;
#X msg 383 28 \$1 8;
#X msg 433 50 \$1 9;
#X msg 477 73 \$1 10;
#X msg 527 95 \$1 11;
#X msg 561 27 \$1 12;
#X msg 611 49 \$1 13;
#X msg 655 72 \$1 14;
#X msg 705 94 \$1 15;
#X obj 19 190 outlet;
#X obj 19 11 r \$0-s-nb2-vel-0;
#X obj 69 33 r \$0-s-nb2-vel-1;
#X obj 113 56 r \$0-s-nb2-vel-2;
#X obj 163 78 r \$0-s-nb2-vel-3;
#X obj 197 10 r \$0-s-nb2-vel-4;
#X obj 247 32 r \$0-s-nb2-vel-5;
#X obj 291 55 r \$0-s-nb2-vel-6;
#X obj 341 77 r \$0-s-nb2-vel-7;
#X obj 383 6 r \$0-s-nb2-vel-8;
#X obj 433 28 r \$0-s-nb2-vel-9;
#X obj 477 51 r \$0-s-nb2-vel-10;
#X obj 527 73 r \$0-s-nb2-vel-11;
#X obj 561 5 r \$0-s-nb2-vel-12;
#X obj 611 27 r \$0-s-nb2-vel-13;
#X obj 655 50 r \$0-s-nb2-vel-14;
#X obj 705 72 r \$0-s-nb2-vel-15;
#X connect 0 0 16 0;
#X connect 1 0 16 0;
#X connect 2 0 16 0;
#X connect 3 0 16 0;
#X connect 4 0 16 0;
#X connect 5 0 16 0;
#X connect 6 0 16 0;
#X connect 7 0 16 0;
#X connect 8 0 16 0;
#X connect 9 0 16 0;
#X connect 10 0 16 0;
#X connect 11 0 16 0;
#X connect 12 0 16 0;
#X connect 13 0 16 0;
#X connect 14 0 16 0;
#X connect 15 0 16 0;
#X connect 17 0 0 0;
#X connect 18 0 1 0;
#X connect 19 0 2 0;
#X connect 20 0 3 0;
#X connect 21 0 4 0;
#X connect 22 0 5 0;
#X connect 23 0 6 0;
#X connect 24 0 7 0;
#X connect 25 0 8 0;
#X connect 26 0 9 0;
#X connect 27 0 10 0;
#X connect 28 0 11 0;
#X connect 29 0 12 0;
#X connect 30 0 13 0;
#X connect 31 0 14 0;
#X connect 32 0 15 0;
#X restore 612 124 pd handle_vel_send;
#N canvas 628 225 662 605 handle_vel_receive 0;
#X obj 37 37 inlet;
#X obj 37 68 unpack f f f f f f f f f f f f f f f f;
#X obj 37 94 s \$0-r-nb2-vel-0;
#X obj 51 118 s \$0-r-nb2-vel-1;
#X obj 67 145 s \$0-r-nb2-vel-2;
#X obj 82 168 s \$0-r-nb2-vel-3;
#X obj 97 195 s \$0-r-nb2-vel-4;
#X obj 111 219 s \$0-r-nb2-vel-5;
#X obj 127 246 s \$0-r-nb2-vel-6;
#X obj 142 269 s \$0-r-nb2-vel-7;
#X obj 157 294 s \$0-r-nb2-vel-8;
#X obj 171 318 s \$0-r-nb2-vel-9;
#X obj 187 345 s \$0-r-nb2-vel-10;
#X obj 202 368 s \$0-r-nb2-vel-11;
#X obj 217 395 s \$0-r-nb2-vel-12;
#X obj 231 419 s \$0-r-nb2-vel-13;
#X obj 247 446 s \$0-r-nb2-vel-14;
#X obj 262 469 s \$0-r-nb2-vel-15;
#X connect 0 0 1 0;
#X connect 1 0 2 0;
#X connect 1 1 3 0;
#X connect 1 2 4 0;
#X connect 1 3 5 0;
#X connect 1 4 6 0;
#X connect 1 5 7 0;
#X connect 1 6 8 0;
#X connect 1 7 9 0;
#X connect 1 8 10 0;
#X connect 1 9 11 0;
#X connect 1 10 12 0;
#X connect 1 11 13 0;
#X connect 1 12 14 0;
#X connect 1 13 15 0;
#X connect 1 14 16 0;
#X connect 1 15 17 0;
#X restore 478 357 pd handle_vel_receive;
#X obj 612 286 array set \$0-vel-t1;
#X obj 478 315 array get \$0-vel-t1;
#X msg 735 249 symbol \$2-vel-t\$1;
#X obj 629 171 s NB2_VEL_INPUT_SIG;
#X obj 196 166 s TGL_STEP_INPUT_SIG;
#X obj 962 234 * 16;
#X obj 1093 261 + 0, f 5;
#X obj 1093 227 t b f;
#X obj 1032 210 unpack;
#X obj 1044 40 r TRACK_SEL;
#X obj 1155 223 pack 0 \$0;
#X obj 1155 199 + 1;
#X obj 898 93 r PAGE_SEL;
#X obj 898 292 * 16;
#X msg 960 280 16;
#X obj 898 217 t f b f;
#X text 1054 309 Writing to array;
#X text 911 341 Loading from array;
#X obj 898 175 int, f 5;
#X obj 898 120 t b f;
#X obj 1044 106 t b f, f 19;
#X obj 1049 153 t b;
#X obj 1044 84 int;
#X obj 1044 62 t b f;
#X obj 891 37 r \$0-pattern_changed;
#X obj 898 321 array get \$0-prob-t1;
#X obj 1032 292 array set \$0-prob-t1;
#X msg 1155 255 symbol \$2-prob-t\$1;
#X obj 1049 177 s NB2_PROB_INPUT_SIG;
#N canvas 144 299 1631 457 handle_prob_send 0;
#X msg 19 33 \$1 0;
#X msg 69 55 \$1 1;
#X msg 113 78 \$1 2;
#X msg 163 100 \$1 3;
#X msg 197 32 \$1 4;
#X msg 247 54 \$1 5;
#X msg 291 77 \$1 6;
#X msg 341 99 \$1 7;
#X msg 383 28 \$1 8;
#X msg 433 50 \$1 9;
#X msg 477 73 \$1 10;
#X msg 527 95 \$1 11;
#X msg 561 27 \$1 12;
#X msg 611 49 \$1 13;
#X msg 655 72 \$1 14;
#X msg 705 94 \$1 15;
#X obj 19 190 outlet;
#X obj 19 11 r \$0-s-nb2-prob-0;
#X obj 69 33 r \$0-s-nb2-prob-1;
#X obj 113 56 r \$0-s-nb2-prob-2;
#X obj 163 78 r \$0-s-nb2-prob-3;
#X obj 197 10 r \$0-s-nb2-prob-4;
#X obj 247 32 r \$0-s-nb2-prob-5;
#X obj 291 55 r \$0-s-nb2-prob-6;
#X obj 341 77 r \$0-s-nb2-prob-7;
#X obj 383 6 r \$0-s-nb2-prob-8;
#X obj 433 28 r \$0-s-nb2-prob-9;
#X obj 477 51 r \$0-s-nb2-prob-10;
#X obj 527 73 r \$0-s-nb2-prob-11;
#X obj 561 5 r \$0-s-nb2-prob-12;
#X obj 611 27 r \$0-s-nb2-prob-13;
#X obj 655 50 r \$0-s-nb2-prob-14;
#X obj 705 72 r \$0-s-nb2-prob-15;
#X connect 0 0 16 0;
#X connect 1 0 16 0;
#X connect 2 0 16 0;
#X connect 3 0 16 0;
#X connect 4 0 16 0;
#X connect 5 0 16 0;
#X connect 6 0 16 0;
#X connect 7 0 16 0;
#X connect 8 0 16 0;
#X connect 9 0 16 0;
#X connect 10 0 16 0;
#X connect 11 0 16 0;
#X connect 12 0 16 0;
#X connect 13 0 16 0;
#X connect 14 0 16 0;
#X connect 15 0 16 0;
#X connect 17 0 0 0;
#X connect 18 0 1 0;
#X connect 19 0 2 0;
#X connect 20 0 3 0;
#X connect 21 0 4 0;
#X connect 22 0 5 0;
#X connect 23 0 6 0;
#X connect 24 0 7 0;
#X connect 25 0 8 0;
#X connect 26 0 9 0;
#X connect 27 0 10 0;
#X connect 28 0 11 0;
#X connect 29 0 12 0;
#X connect 30 0 13 0;
#X connect 31 0 14 0;
#X connect 32 0 15 0;
#X restore 1032 130 pd handle_prob_send;
#N canvas 628 225 662 605 handle_prob_receive 0;
#X obj 37 37 inlet;
#X obj 37 68 unpack f f f f f f f f f f f f f f f f;
#X obj 37 94 s \$0-r-nb2-prob-0;
#X obj 51 118 s \$0-r-nb2-prob-1;
#X obj 67 145 s \$0-r-nb2-prob-2;
#X obj 82 168 s \$0-r-nb2-prob-3;
#X obj 97 195 s \$0-r-nb2-prob-4;
#X obj 111 219 s \$0-r-nb2-prob-5;
#X obj 127 246 s \$0-r-nb2-prob-6;
#X obj 142 269 s \$0-r-nb2-prob-7;
#X obj 157 294 s \$0-r-nb2-prob-8;
#X obj 171 318 s \$0-r-nb2-prob-9;
#X obj 187 345 s \$0-r-nb2-prob-10;
#X obj 202 368 s \$0-r-nb2-prob-11;
#X obj 217 395 s \$0-r-nb2-prob-12;
#X obj 231 419 s \$0-r-nb2-prob-13;
#X obj 247 446 s \$0-r-nb2-prob-14;
#X obj 262 469 s \$0-r-nb2-prob-15;
#X connect 0 0 1 0;
#X connect 1 0 2 0;
#X connect 1 1 3 0;
#X connect 1 2 4 0;
#X connect 1 3 5 0;
#X connect 1 4 6 0;
#X connect 1 5 7 0;
#X connect 1 6 8 0;
#X connect 1 7 9 0;
#X connect 1 8 10 0;
#X connect 1 9 11 0;
#X connect 1 10 12 0;
#X connect 1 11 13 0;
#X connect 1 12 14 0;
#X connect 1 13 15 0;
#X connect 1 14 16 0;
#X connect 1 15 17 0;
#X restore 898 363 pd handle_prob_receive;
#X connect 1 0 2 0;
#X connect 2 0 0 1;
#X connect 3 0 2 0;
#X connect 3 1 2 1;
#X connect 4 0 0 0;
#X connect 4 1 3 0;
#X connect 5 0 14 0;
#X connect 6 0 23 0;
#X connect 7 0 13 0;
#X connect 8 0 7 0;
#X connect 9 0 4 0;
#X connect 9 0 21 0;
#X connect 10 0 19 0;
#X connect 11 0 5 0;
#X connect 12 0 5 1;
#X connect 13 0 5 2;
#X connect 13 0 0 2;
#X connect 15 0 11 0;
#X connect 15 1 12 0;
#X connect 15 2 1 0;
#X connect 18 0 15 0;
#X connect 19 0 18 0;
#X connect 19 1 18 1;
#X connect 20 0 18 0;
#X connect 20 1 8 0;
#X connect 21 0 51 0;
#X connect 22 0 20 0;
#X connect 23 0 22 0;
#X connect 23 1 22 1;
#X connect 24 0 22 0;
#X connect 25 0 26 0;
#X connect 26 0 47 1;
#X connect 27 0 26 0;
#X connect 27 1 26 1;
#X connect 28 0 47 0;
#X connect 28 1 27 0;
#X connect 29 0 43 0;
#X connect 30 0 49 0;
#X connect 31 0 30 0;
#X connect 32 0 39 0;
#X connect 33 0 48 0;
#X connect 34 0 48 1;
#X connect 35 0 33 0;
#X connect 35 1 34 0;
#X connect 35 2 25 0;
#X connect 38 0 35 0;
#X connect 39 0 38 0;
#X connect 39 1 38 1;
#X connect 40 0 38 0;
#X connect 40 1 31 0;
#X connect 41 0 50 0;
#X connect 42 0 40 0;
#X connect 43 0 42 0;
#X connect 43 1 42 1;
#X connect 44 0 42 0;
#X connect 45 0 28 0;
#X connect 45 0 41 0;
#X connect 48 0 46 0;
#X connect 49 0 47 2;
#X connect 49 0 48 2;
#X connect 52 0 53 0;
#X connect 53 0 73 1;
#X connect 54 0 53 0;
#X connect 54 1 53 1;
#X connect 55 0 73 0;
#X connect 55 1 54 0;
#X connect 56 0 70 0;
#X connect 57 0 74 0;
#X connect 58 0 57 0;
#X connect 59 0 66 0;
#X connect 60 0 72 0;
#X connect 61 0 72 1;
#X connect 62 0 60 0;
#X connect 62 1 61 0;
#X connect 62 2 52 0;
#X connect 65 0 62 0;
#X connect 66 0 65 0;
#X connect 66 1 65 1;
#X connect 67 0 65 0;
#X connect 67 1 58 0;
#X connect 68 0 75 0;
#X connect 69 0 67 0;
#X connect 70 0 69 0;
#X connect 70 1 69 1;
#X connect 71 0 69 0;
#X connect 72 0 77 0;
#X connect 74 0 72 2;
#X connect 74 0 73 2;
#X connect 76 0 55 0;
#X connect 76 0 68 0;
#X restore 372 50 pd steps;
#X obj 27 333 nbx 3 16 0 127 0 0 \$0-s-nb2-vel-0 \$0-r-nb2-vel-0 empty 0 -9 0 10 #fcfcfc #000000 #000000 0 256;
#X obj 69 333 nbx 3 16 0 127 0 0 \$0-s-nb2-vel-1 \$0-r-nb2-vel-1 empty 0 -9 0 10 #fcfcfc #000000 #000000 0 256;
#X obj 112 333 nbx 3 16 0 127 0 0 \$0-s-nb2-vel-2 \$0-r-nb2-vel-2 empty 0 -9 0 10 #fcfcfc #000000 #000000 0 256;
#X obj 154 333 nbx 3 16 0 127 0 0 \$0-s-nb2-vel-3 \$0-r-nb2-vel-3 empty 0 -9 0 10 #fcfcfc #000000 #000000 0 256;
#X obj 197 333 nbx 3 16 0 127 0 0 \$0-s-nb2-vel-4 \$0-r-nb2-vel-4 empty 0 -9 0 10 #fcfcfc #000000 #000000 0 256;
#X obj 239 333 nbx 3 16 0 127 0 0 \$0-s-nb2-vel-5 \$0-r-nb2-vel-5 empty 0 -9 0 10 #fcfcfc #000000 #000000 0 256;
#X obj 282 333 nbx 3 16 0 127 0 0 \$0-s-nb2-vel-6 \$0-r-nb2-vel-6 empty 0 -9 0 10 #fcfcfc #000000 #000000 0 256;
#X obj 324 333 nbx 3 16 0 127 0 0 \$0-s-nb2-vel-7 \$0-r-nb2-vel-7 empty 0 -9 0 10 #fcfcfc #000000 #000000 0 256;
#X obj 27 356 nbx 3 16 0 127 0 0 \$0-s-nb2-vel-8 \$0-r-nb2-vel-8 empty 0 -9 0 10 #fcfcfc #000000 #000000 0 256;
#X obj 69 356 nbx 3 16 0 127 0 0 \$0-s-nb2-vel-9 \$0-r-nb2-vel-9 empty 0 -9 0 10 #fcfcfc #000000 #000000 0 256;
#X obj 112 356 nbx 3 16 0 127 0 0 \$0-s-nb2-vel-10 \$0-r-nb2-vel-10 empty 0 -9 0 10 #fcfcfc #000000 #000000 0 256;
#X obj 154 356 nbx 3 16 0 127 0 0 \$0-s-nb2-vel-11 \$0-r-nb2-vel-11 empty 0 -9 0 10 #fcfcfc #000000 #000000 0 256;
#X obj 197 356 nbx 3 16 0 127 0 0 \$0-s-nb2-vel-12 \$0-r-nb2-vel-12 empty 0 -9 0 10 #fcfcfc #000000 #000000 0 256;
#X obj 239 356 nbx 3 16 0 127 0 0 \$0-s-nb2-vel-13 \$0-r-nb2-vel-13 empty 0 -9 0 10 #fcfcfc #000000 #000000 0 256;
#X obj 282 356 nbx 3 16 0 127 0 0 \$0-s-nb2-vel-14 \$0-r-nb2-vel-14 empty 0 -9 0 10 #fcfcfc #000000 #000000 0 256;
#X obj 324 356 nbx 3 16 0 127 0 0 \$0-s-nb2-vel-15 \$0-r-nb2-vel-15 empty 0 -9 0 10 #fcfcfc #000000 #000000 0 256;
#X obj 27 402 nbx 3 16 0 100 0 0 \$0-s-nb2-prob-0 \$0-r-nb2-prob-0 empty 0 -9 0 10 #fcfcfc #000000 #000000 0 256;
#X obj 69 402 nbx 3 16 0 100 0 0 \$0-s-nb2-prob-1 \$0-r-nb2-prob-1 empty 0 -9 0 10 #fcfcfc #000000 #000000 0 256;
#X obj 112 402 nbx 3 16 0 100 0 0 \$0-s-nb2-prob-2 \$0-r-nb2-prob-2 empty 0 -9 0 10 #fcfcfc #000000 #000000 0 256;
#X obj 154 402 nbx 3 16 0 100 0 0 \$0-s-nb2-prob-3 \$0-r-nb2-prob-3 empty 0 -9 0 10 #fcfcfc #000000 #000000 0 256;
#X obj 197 402 nbx 3 16 0 100 0 0 \$0-s-nb2-prob-4 \$0-r-nb2-prob-4 empty 0 -9 0 10 #fcfcfc #000000 #000000 0 256;
#X obj 239 402 nbx 3 16 0 100 0 0 \$0-s-nb2-prob-5 \$0-r-nb2-prob-5 empty 0 -9 0 10 #fcfcfc #000000 #000000 0 256;
#X obj 282 402 nbx 3 16 0 100 0 0 \$0-s-nb2-prob-6 \$0-r-nb2-prob-6 empty 0 -9 0 10 #fcfcfc #000000 #000000 0 256;
#X obj 324 402 nbx 3 16 0 100 0 0 \$0-s-nb2-prob-7 \$0-r-nb2-prob-7 empty 0 -9 0 10 #fcfcfc #000000 #000000 0 256;
#X obj 27 425 nbx 3 16 0 100 0 0 \$0-s-nb2-prob-8 \$0-r-nb2-prob-8 empty 0 -9 0 10 #fcfcfc #000000 #000000 0 256;
#X obj 69 425 nbx 3 16 0 100 0 0 \$0-s-nb2-prob-9 \$0-r-nb2-prob-9 empty 0 -9 0 10 #fcfcfc #000000 #000000 0 256;
#X obj 112 425 nbx 3 16 0 100 0 0 \$0-s-nb2-prob-10 \$0-r-nb2-prob-10 empty 0 -9 0 10 #fcfcfc #000000 #000000 0 256;
#X obj 154 425 nbx 3 16 0 100 0 0 \$0-s-nb2-prob-11 \$0-r-nb2-prob-11 empty 0 -9 0 10 #fcfcfc #000000 #000000 0 256;
#X obj 197 425 nbx 3 16 0 100 0 0 \$0-s-nb2-prob-12 \$0-r-nb2-prob-12 empty 0 -9 0 10 #fcfcfc #000000 #000000 0 256;
#X obj 239 425 nbx 3 16 0 100 0 0 \$0-s-nb2-prob-13 \$0-r-nb2-prob-13 empty 0 -9 0 10 #fcfcfc #000000 #000000 0 256;
#X obj 282 425 nbx 3 16 0 100 0 0 \$0-s-nb2-prob-14 \$0-r-nb2-prob-14 empty 0 -9 0 10 #fcfcfc #000000 #000000 0 256;
#X obj 324 425 nbx 3 16 0 100 0 0 \$0-s-nb2-prob-15 \$0-r-nb2-prob-15 empty 0 -9 0 10 #fcfcfc #000000 #000000 0 256;
#X text 25 314 Velocity;
#X text 24 385 Probability;
#N canvas 55 163 584 761 sound_test 0;
#N canvas 174 273 1571 508 seq-data 0;
#X obj 19 29 r COUNTER;
#X obj 19 78 mod 16;
#X obj 19 126 tabread \$0-steps-t1;
#X obj 19 148 sel 1;
#X obj 52 52 r \$0-steps-length-t1;
#X obj 19 219 int 127;
#X obj 72 202 tabread \$0-vel-t1;
#X obj 124 167 tabread \$0-prob-t1;
#X obj 19 102 t f f f, f 18;
#N canvas 734 377 450 300 prob 0;
#X obj 22 13 inlet;
#X obj 22 35 random 100;
#X obj 22 79 sel 1;
#X obj 22 101 outlet;
#X obj 136 40 inlet;
#X obj 22 57 < 100;
#X obj 87 109 outlet;
#X obj 87 84 t b;
#X connect 0 0 1 0;
#X connect 1 0 5 0;
#X connect 2 0 3 0;
#X connect 2 1 7 0;
#X connect 4 0 5 1;
#X connect 5 0 2 0;
#X connect 7 0 6 0;
#X restore 19 184 pd prob;
#X obj 58 205 bng 10 100 25 0 empty empty empty 0 -9 0 10 #fcfcfc #000000 #000000;
#X text 143 127 TRACK 1;
#X obj 19 241 s output-data-t1;
#X obj 271 39 r COUNTER;
#X obj 271 88 mod 16;
#X obj 271 158 sel 1;
#X obj 271 229 int 127;
#X obj 271 112 t f f f, f 18;
#N canvas 734 377 450 300 prob 0;
#X obj 22 13 inlet;
#X obj 22 35 random 100;
#X obj 22 79 sel 1;
#X obj 22 101 outlet;
#X obj 136 40 inlet;
#X obj 22 57 < 100;
#X obj 87 109 outlet;
#X obj 87 84 t b;
#X connect 0 0 1 0;
#X connect 1 0 5 0;
#X connect 2 0 3 0;
#X connect 2 1 7 0;
#X connect 4 0 5 1;
#X connect 5 0 2 0;
#X connect 7 0 6 0;
#X restore 271 194 pd prob;
#X obj 310 215 bng 10 100 25 0 empty empty empty 0 -9 0 10 #fcfcfc #000000 #000000;
#X obj 533 49 r COUNTER;
#X obj 533 98 mod 16;
#X obj 533 168 sel 1;
#X obj 533 239 int 127;
#X obj 533 122 t f f f, f 18;
#N canvas 886 205 450 300 prob 0;
#X obj 22 13 inlet;
#X obj 22 35 random 100;
#X obj 22 79 sel 1;
#X obj 22 101 outlet;
#X obj 136 40 inlet;
#X obj 22 57 < 100;
#X obj 87 109 outlet;
#X obj 87 84 t b;
#X connect 0 0 1 0;
#X connect 1 0 5 0;
#X connect 2 0 3 0;
#X connect 2 1 7 0;
#X connect 4 0 5 1;
#X connect 5 0 2 0;
#X connect 7 0 6 0;
#X restore 533 204 pd prob;
#X obj 572 225 bng 10 100 25 0 empty empty empty 0 -9 0 10 #fcfcfc #000000 #000000;
#X text 395 137 TRACK 2;
#X text 657 147 TRACK 3;
#X obj 304 62 r \$0-steps-length-t2;
#X obj 271 136 tabread \$0-steps-t2;
#X obj 324 212 tabread \$0-vel-t2;
#X obj 376 177 tabread \$0-prob-t2;
#X obj 566 72 r \$0-steps-length-t3;
#X obj 533 146 tabread \$0-steps-t3;
#X obj 271 251 s output-data-t2;
#X obj 533 261 s output-data-t3;
#X obj 586 222 tabread \$0-vel-t3;
#X obj 638 187 tabread \$0-prob-t3;
#X connect 0 0 1 0;
#X connect 1 0 8 0;
#X connect 2 0 3 0;
#X connect 3 0 9 0;
#X connect 4 0 1 1;
#X connect 5 0 12 0;
#X connect 6 0 5 1;
#X connect 7 0 9 1;
#X connect 8 0 2 0;
#X connect 8 1 6 0;
#X connect 8 2 7 0;
#X connect 9 0 5 0;
#X connect 9 1 10 0;
#X connect 13 0 14 0;
#X connect 14 0 17 0;
#X connect 15 0 18 0;
#X connect 16 0 35 0;
#X connect 17 0 30 0;
#X connect 17 1 31 0;
#X connect 17 2 32 0;
#X connect 18 0 16 0;
#X connect 18 1 19 0;
#X connect 20 0 21 0;
#X connect 21 0 24 0;
#X connect 22 0 25 0;
#X connect 23 0 36 0;
#X connect 24 0 34 0;
#X connect 24 1 37 0;
#X connect 24 2 38 0;
#X connect 25 0 23 0;
#X connect 25 1 26 0;
#X connect 29 0 14 1;
#X connect 30 0 15 0;
#X connect 31 0 16 1;
#X connect 32 0 18 1;
#X connect 33 0 21 1;
#X connect 34 0 22 0;
#X connect 37 0 23 1;
#X connect 38 0 25 1;
#X restore 8 7 pd seq-data;
#X obj 320 126 r output-data-t1;
#X obj 119 225 osc~;
#X obj 119 171 +~;
#X obj 176 110 line~;
#X obj 176 132 pow~ 2;
#X msg 176 87 1 \, 0 \$1;
#X obj 176 61 int 250;
#X obj 119 263 *~;
#X obj 119 307 throw~ dac;
#X obj 8 39 catch~ dac;
#X obj 8 61 /~ 2;
#X obj 8 83 dac~;
#X obj 320 224 line~;
#X obj 320 246 pow~ 2;
#X msg 320 201 \$1 \, 0 \$2;
#X obj 320 148 / 127;
#X obj 119 191 mtof~;
#X obj 176 15 r output-data-t1;
#X obj 176 37 t b;
#X obj 176 154 *~ 12;
#X obj 161 201 r output-data-t1;
#X msg 161 223 0;
#X obj 246 110 line~;
#X obj 246 132 pow~ 2;
#X msg 246 87 1 \, 0 \$1;
#X obj 320 175 pack 1 650;
#X obj 446 44 noise~;
#X obj 446 236 *~;
#X obj 484 197 line~;
#X msg 484 174 \$1 \, 0 \$2;
#X obj 484 121 / 127;
#X obj 484 99 r output-data-t2;
#X obj 484 148 pack 1 350;
#X obj 446 305 throw~ dac;
#X obj 484 219 pow~ 4;
#X obj 246 154 *~ 60;
#X obj 246 54 int 30;
#X obj 119 34 sig~ 34;
#X obj 446 66 else/bandpass~ 2500 1.1;
#X obj 631 63 *~ 1;
#X obj 631 36 mtof~;
#X obj 631 87 else/saw~;
#X obj 697 87 else/saw~;
#X obj 763 87 else/saw~;
#X obj 829 87 else/saw~;
#X obj 631 140 else/saw~;
#X obj 697 140 else/saw~;
#X obj 763 140 else/saw~;
#X obj 829 140 else/saw~;
#X obj 631 235 *~;
#X obj 804 273 line~;
#X msg 804 250 \$1 \, 0 \$2;
#X obj 804 197 / 127;
#X obj 631 304 throw~ dac;
#X obj 804 295 pow~ 4;
#X obj 804 175 r output-data-t3;
#X obj 697 63 *~ 2.03;
#X obj 763 63 *~ 3.23;
#X obj 829 63 *~ 5.66;
#X obj 631 116 *~ 6.12;
#X obj 697 116 *~ 7.42;
#X obj 763 116 *~ 7.77;
#X obj 829 116 *~ 9.07;
#X obj 631 173 else/highpass~ 6000 0.7;
#X obj 631 198 else/highpass~ 8000 0.7;
#X obj 804 224 pack 1 100;
#X obj 631 9 sig~ 78;
#X connect 1 0 16 0;
#X connect 2 0 8 0;
#X connect 3 0 17 0;
#X connect 4 0 5 0;
#X connect 5 0 20 0;
#X connect 6 0 4 0;
#X connect 7 0 6 0;
#X connect 8 0 9 0;
#X connect 10 0 11 0;
#X connect 11 0 12 0;
#X connect 11 0 12 1;
#X connect 13 0 14 0;
#X connect 14 0 8 1;
#X connect 15 0 13 0;
#X connect 16 0 26 0;
#X connect 17 0 2 0;
#X connect 18 0 19 0;
#X connect 19 0 7 0;
#X connect 19 0 37 0;
#X connect 20 0 3 1;
#X connect 21 0 22 0;
#X connect 22 0 2 1;
#X connect 23 0 24 0;
#X connect 24 0 36 0;
#X connect 25 0 23 0;
#X connect 26 0 15 0;
#X connect 27 0 39 0;
#X connect 28 0 34 0;
#X connect 29 0 35 0;
#X connect 30 0 29 0;
#X connect 31 0 33 0;
#X connect 32 0 31 0;
#X connect 33 0 30 0;
#X connect 35 0 28 1;
#X connect 36 0 3 1;
#X connect 37 0 25 0;
#X connect 38 0 3 0;
#X connect 39 0 28 0;
#X connect 40 0 42 0;
#X connect 41 0 40 0;
#X connect 41 0 57 0;
#X connect 41 0 58 0;
#X connect 41 0 59 0;
#X connect 41 0 60 0;
#X connect 41 0 61 0;
#X connect 41 0 62 0;
#X connect 41 0 63 0;
#X connect 42 0 64 0;
#X connect 43 0 64 0;
#X connect 44 0 64 0;
#X connect 45 0 64 0;
#X connect 46 0 64 0;
#X connect 47 0 64 0;
#X connect 48 0 64 0;
#X connect 49 0 64 0;
#X connect 50 0 54 0;
#X connect 51 0 55 0;
#X connect 52 0 51 0;
#X connect 53 0 66 0;
#X connect 55 0 50 1;
#X connect 56 0 53 0;
#X connect 57 0 43 0;
#X connect 58 0 44 0;
#X connect 59 0 45 0;
#X connect 60 0 46 0;
#X connect 61 0 47 0;
#X connect 62 0 48 0;
#X connect 63 0 49 0;
#X connect 64 0 65 0;
#X connect 65 0 50 0;
#X connect 66 0 52 0;
#X connect 67 0 41 0;
#X restore 341 72 pd sound_test;
#X floatatom 151 11 5 0 0 0 - - - 0;
#X connect 0 0 1 0;
#X connect 1 0 2 0;
#X connect 2 0 3 0;
#X connect 2 0 4 0;
#X connect 3 0 2 1;
#X connect 6 0 12 0;
#X connect 6 0 33 0;
#X connect 7 0 8 0;
#X connect 10 0 2 1;
#X connect 12 0 11 0;
#X connect 30 0 31 0;
#X connect 33 0 32 0;
#X connect 33 1 9 0;
#X connect 70 0 1 1;
