#N canvas 851 66 1399 957 10;
#X obj 26 20 tgl 18 0 empty empty empty 0 -9 0 10 #fcfcfc #000000 #000000 0 1;
#N canvas 663 121 1233 806 arrays 0;
#X obj 74 347 array set \$0-steps-t1;
#X obj 203 132 pack 0 \$0;
#X msg 203 162 symbol \$2-pattern-\$1;
#X obj 203 108 + 1;
#X obj 74 279 array get \$0-pattern-1;
#X obj 45 141 until;
#X msg 45 119 4;
#X obj 74 176 int;
#X obj 102 175 + 1;
#X msg 89 152 0;
#X obj 245 280 pack 0 \$0;
#X obj 245 256 + 1;
#X msg 245 307 symbol \$2-steps-t\$1;
#X obj 74 215 t f f, f 29;
#N canvas 173 190 1611 806 array_define 0;
#X obj 18 279 array define -yrange 0 1 \$0-steps-t1 64;
#X obj 18 303 array define -yrange 0 1 \$0-steps-t2 64;
#X obj 18 327 array define -yrange 0 1 \$0-steps-t3 64;
#X obj 18 351 array define -yrange 0 1 \$0-steps-t4 64;
#X obj 353 70 array define -yrange 0 127 \$0-vel-t1 64;
#X obj 353 94 array define -yrange 0 127 \$0-vel-t2 64;
#X obj 353 118 array define -yrange 0 127 \$0-vel-t3 64;
#X obj 353 142 array define -yrange 0 127 \$0-vel-t4 64;
#X obj 16 16 cnv 18 300 105 empty empty empty 20 12 0 10 #e0e0e0 #404040 0;
#X obj 22 59 cnv 18 65 57 empty empty empty 20 12 0 10 #feffc6 #404040 0;
#X text 23 18 Pattern[];
#X obj 602 70 array define -yrange 0 100 \$0-prob-t1 64;
#X obj 602 94 array define -yrange 0 100 \$0-prob-t2 64;
#X obj 602 118 array define -yrange 0 100 \$0-prob-t3 64;
#X obj 602 142 array define -yrange 0 100 \$0-prob-t4 64;
#X text 25 73 t1-v[64];
#X text 25 58 t1-s[64];
#X text 34 40 T1[0];
#X obj 353 17 loadbang;
#X msg 353 39 const 127;
#X obj 602 18 loadbang;
#X msg 602 41 const 100;
#X obj 353 195 array define -yrange 1 64 \$0-steps_lenght 4;
#X msg 353 175 const 16;
#X obj 860 18 loadbang;
#X msg 860 41 const 500;
#X text 25 87 t1-p[64];
#X text 25 101 t1-l[64];
#X obj 98 59 cnv 18 65 57 empty empty empty 20 12 0 10 #feffc6 #404040 0;
#X obj 171 59 cnv 18 65 57 empty empty empty 20 12 0 10 #feffc6 #404040 0;
#X obj 243 59 cnv 18 65 57 empty empty empty 20 12 0 10 #feffc6 #404040 0;
#X text 101 58 t2-s[64];
#X text 101 73 t2-v[64];
#X text 101 87 t2-p[64];
#X text 101 101 t2-l[64];
#X text 174 58 t3-s[64];
#X text 174 73 t3-v[64];
#X text 174 87 t3-p[64];
#X text 174 101 t3-l[64];
#X text 246 58 t4-s[64];
#X text 246 73 t4-v[64];
#X text 246 87 t4-p[64];
#X text 246 101 t4-l[64];
#X text 107 41 T2[256];
#X text 177 41 T3[512];
#X text 250 41 T4[768];
#X obj 17 154 array define -yrange 0 127 \$0-pattern-1 1024;
#X obj 17 178 array define -yrange 0 127 \$0-pattern-2 1024;
#X obj 17 202 array define -yrange 0 127 \$0-pattern-3 1024;
#X obj 17 226 array define -yrange 0 127 \$0-pattern-4 1024;
#X obj 860 70 array define -yrange 0 1000 \$0-len-t1 64;
#X obj 860 94 array define -yrange 0 1000 \$0-len-t2 64;
#X obj 860 118 array define -yrange 0 1000 \$0-len-t3 64;
#X obj 860 142 array define -yrange 0 1000 \$0-len-t4 64;
#X obj 350 259 array define \$0-machine-t1 18;
#X obj 350 282 array define \$0-machine-t2 18;
#X obj 350 306 array define \$0-machine-t3 18;
#X obj 350 329 array define \$0-machine-t4 18;
#X obj 540 258 array define \$0-machine-func-t1 24;
#X obj 540 281 array define \$0-machine-func-t2 24;
#X obj 540 305 array define \$0-machine-func-t3 24;
#X obj 540 328 array define \$0-machine-func-t4 24;
#X text 14 136 PATTERNS;
#X text 15 262 TRACK STEPS;
#X text 421 39 TRACK VELOCITY;
#X text 669 40 TRACK PROBABILITY;
#X text 924 41 TRACK LENGTH;
#X text 411 174 TRACK BAR LENGHT;
#X text 345 237 TRACK MACHINE (tone1 \, tone2 \, vol \, sweep \, wave \, dur)*3;
#X connect 18 0 19 0;
#X connect 18 0 23 0;
#X connect 19 0 4 0;
#X connect 19 0 7 0;
#X connect 19 0 6 0;
#X connect 19 0 5 0;
#X connect 20 0 21 0;
#X connect 21 0 11 0;
#X connect 21 0 12 0;
#X connect 21 0 14 0;
#X connect 21 0 13 0;
#X connect 23 0 22 0;
#X connect 24 0 25 0;
#X connect 25 0 50 0;
#X connect 25 0 51 0;
#X connect 25 0 52 0;
#X connect 25 0 53 0;
#X restore 14 10 pd array_define;
#X text 155 82 Loading from pattern into steps;
#X msg 139 248 64;
#X obj 74 249 * 64;
#X obj 58 744 array set \$0-pattern-1;
#X obj 187 679 pack 0 \$0;
#X msg 187 709 symbol \$2-pattern-\$1;
#X obj 187 655 + 1;
#X obj 58 613 t l b;
#X obj 74 60 r PATTERN_SEL;
#X obj 187 631 r PATTERN_SEL;
#X obj 181 441 r TRACK_SEL;
#X obj 181 494 pack 0 \$0;
#X obj 181 470 + 1;
#X msg 181 524 symbol \$2-steps-t\$1;
#X msg 91 649 64;
#X obj 91 703 * 0;
#X obj 106 676 r TRACK_SEL;
#X text 120 607 Writing from steps into pattern;
#X obj 600 113 pack 0 \$0;
#X msg 600 143 symbol \$2-pattern-\$1;
#X obj 600 89 + 1;
#X obj 471 294 array get \$0-pattern-1;
#X obj 442 122 until;
#X msg 442 100 4;
#X obj 471 157 int;
#X obj 499 156 + 1;
#X obj 471 63 t b b f;
#X msg 486 133 0;
#X obj 642 295 pack 0 \$0;
#X obj 642 271 + 1;
#X obj 471 196 t f f, f 29;
#X msg 536 263 64;
#X obj 471 232 * 64;
#X obj 471 41 r PATTERN_SEL;
#X text 552 63 Loading from pattern into velocity;
#X obj 471 362 array set \$0-vel-t1;
#X msg 642 322 symbol \$2-vel-t\$1;
#X obj 471 263 + 256;
#X obj 1005 117 pack 0 \$0;
#X msg 1005 147 symbol \$2-pattern-\$1;
#X obj 1005 93 + 1;
#X obj 876 298 array get \$0-pattern-1;
#X obj 847 126 until;
#X msg 847 104 4;
#X obj 876 161 int;
#X obj 904 160 + 1;
#X obj 876 67 t b b f;
#X msg 891 137 0;
#X obj 1047 299 pack 0 \$0;
#X obj 1047 275 + 1;
#X obj 876 200 t f f, f 29;
#X msg 941 267 64;
#X obj 876 236 * 64;
#X obj 876 45 r PATTERN_SEL;
#X text 957 68 Loading from pattern into probability;
#X msg 1047 326 symbol \$2-prob-t\$1;
#X obj 876 366 array set \$0-prob-t1;
#X obj 876 267 + 512;
#X obj 433 752 array set \$0-pattern-1;
#X obj 562 687 pack 0 \$0;
#X msg 562 717 symbol \$2-pattern-\$1;
#X obj 562 663 + 1;
#X obj 433 536 t b l;
#X obj 433 621 t l b;
#X obj 562 639 r PATTERN_SEL;
#X obj 556 449 r TRACK_SEL;
#X obj 556 502 pack 0 \$0;
#X obj 556 478 + 1;
#X msg 466 643 64;
#X obj 466 692 * 0;
#X obj 481 665 r TRACK_SEL;
#X text 495 615 Writing from velocity into pattern;
#X obj 481 722 + 256;
#X msg 556 532 symbol \$2-vel-t\$1;
#X obj 460 563 array set \$0-vel-t2;
#X obj 838 750 array set \$0-pattern-1;
#X obj 967 685 pack 0 \$0;
#X msg 967 715 symbol \$2-pattern-\$1;
#X obj 967 661 + 1;
#X obj 838 534 t b l;
#X obj 838 619 t l b;
#X obj 967 637 r PATTERN_SEL;
#X obj 961 447 r TRACK_SEL;
#X obj 961 500 pack 0 \$0;
#X obj 961 476 + 1;
#X msg 871 641 64;
#X obj 871 690 * 0;
#X obj 886 663 r TRACK_SEL;
#X msg 961 530 symbol \$2-prob-t\$1;
#X obj 865 561 array set \$0-prob-t2;
#X obj 886 720 + 512;
#X obj 838 509 r \$0-prob-input;
#X obj 250 333 print STEPS;
#X obj 650 344 print VEL;
#X obj 1055 348 print PROB;
#X obj 87 306 print STEPS;
#X obj 484 321 print VEL;
#X obj 889 325 print PROB;
#X text 900 613 Writing from probability into pattern;
#X obj 58 584 array get \$0-steps-t1;
#X obj 74 82 t b b f;
#N canvas 324 71 1271 913 initialize 0;
#X obj 73 421 array set \$0-pattern-1;
#X obj 73 314 t l b;
#X msg 112 340 64;
#X obj 112 370 * 0;
#X obj 121 396 + 256;
#X obj 73 139 until;
#X obj 73 161 i;
#X obj 109 161 + 1;
#X obj 73 285 array get \$0-vel-t1;
#X obj 163 227 pack 0 \$0;
#X obj 163 200 + 1;
#X msg 163 254 symbol \$2-vel-t\$1;
#X msg 119 130 0;
#X obj 73 2 loadbang;
#X obj 202 361 pack 0 \$0;
#X obj 202 334 + 1;
#X msg 73 117 4;
#X obj 73 183 t b f f, f 11;
#X obj 73 47 until;
#X obj 73 69 i;
#X obj 109 69 + 1;
#X msg 119 38 0;
#X msg 73 25 4;
#X msg 202 388 symbol \$2-pattern-\$1;
#X obj 73 91 t b b f, f 22;
#X obj 347 429 array set \$0-pattern-1;
#X obj 347 322 t l b;
#X msg 386 348 64;
#X obj 386 378 * 0;
#X obj 347 147 until;
#X obj 347 169 i;
#X obj 383 169 + 1;
#X obj 437 235 pack 0 \$0;
#X obj 437 208 + 1;
#X msg 393 138 0;
#X obj 347 10 loadbang;
#X obj 476 369 pack 0 \$0;
#X obj 476 342 + 1;
#X msg 347 125 4;
#X obj 347 191 t b f f, f 11;
#X obj 347 55 until;
#X obj 347 77 i;
#X obj 383 77 + 1;
#X msg 393 46 0;
#X msg 347 33 4;
#X msg 476 396 symbol \$2-pattern-\$1;
#X obj 347 99 t b b f, f 22;
#X msg 437 262 symbol \$2-prob-t\$1;
#X obj 347 293 array get \$0-prob-t1;
#X obj 395 404 + 512;
#X obj 645 442 array set \$0-pattern-1;
#X obj 645 335 t l b;
#X msg 684 361 64;
#X obj 684 391 * 0;
#X obj 645 160 until;
#X obj 645 182 i;
#X obj 681 182 + 1;
#X obj 735 248 pack 0 \$0;
#X obj 735 221 + 1;
#X msg 691 151 0;
#X obj 645 23 loadbang;
#X obj 774 382 pack 0 \$0;
#X obj 774 355 + 1;
#X msg 645 138 4;
#X obj 645 204 t b f f, f 11;
#X obj 645 68 until;
#X obj 645 90 i;
#X obj 681 90 + 1;
#X msg 691 59 0;
#X msg 645 46 4;
#X msg 774 409 symbol \$2-pattern-\$1;
#X obj 645 112 t b b f, f 22;
#X msg 735 275 symbol \$2-len-t\$1;
#X obj 645 306 array get \$0-len-t1;
#X obj 693 417 + 768;
#X connect 1 0 0 0;
#X connect 1 1 2 0;
#X connect 2 0 3 0;
#X connect 3 0 4 0;
#X connect 4 0 0 1;
#X connect 5 0 6 0;
#X connect 6 0 7 0;
#X connect 6 0 17 0;
#X connect 7 0 6 1;
#X connect 8 0 1 0;
#X connect 9 0 11 0;
#X connect 10 0 9 0;
#X connect 11 0 8 2;
#X connect 12 0 6 1;
#X connect 13 0 22 0;
#X connect 14 0 23 0;
#X connect 15 0 14 0;
#X connect 16 0 5 0;
#X connect 17 0 8 0;
#X connect 17 1 3 1;
#X connect 17 2 10 0;
#X connect 18 0 19 0;
#X connect 19 0 20 0;
#X connect 19 0 24 0;
#X connect 20 0 19 1;
#X connect 21 0 19 1;
#X connect 22 0 18 0;
#X connect 23 0 0 2;
#X connect 24 0 16 0;
#X connect 24 1 12 0;
#X connect 24 2 15 0;
#X connect 26 0 25 0;
#X connect 26 1 27 0;
#X connect 27 0 28 0;
#X connect 28 0 49 0;
#X connect 29 0 30 0;
#X connect 30 0 31 0;
#X connect 30 0 39 0;
#X connect 31 0 30 1;
#X connect 32 0 47 0;
#X connect 33 0 32 0;
#X connect 34 0 30 1;
#X connect 35 0 44 0;
#X connect 36 0 45 0;
#X connect 37 0 36 0;
#X connect 38 0 29 0;
#X connect 39 0 48 0;
#X connect 39 1 28 1;
#X connect 39 2 33 0;
#X connect 40 0 41 0;
#X connect 41 0 42 0;
#X connect 41 0 46 0;
#X connect 42 0 41 1;
#X connect 43 0 41 1;
#X connect 44 0 40 0;
#X connect 45 0 25 2;
#X connect 46 0 38 0;
#X connect 46 1 34 0;
#X connect 46 2 37 0;
#X connect 47 0 48 2;
#X connect 48 0 26 0;
#X connect 49 0 25 1;
#X connect 51 0 50 0;
#X connect 51 1 52 0;
#X connect 52 0 53 0;
#X connect 53 0 74 0;
#X connect 54 0 55 0;
#X connect 55 0 56 0;
#X connect 55 0 64 0;
#X connect 56 0 55 1;
#X connect 57 0 72 0;
#X connect 58 0 57 0;
#X connect 59 0 55 1;
#X connect 60 0 69 0;
#X connect 61 0 70 0;
#X connect 62 0 61 0;
#X connect 63 0 54 0;
#X connect 64 0 73 0;
#X connect 64 1 53 1;
#X connect 64 2 58 0;
#X connect 65 0 66 0;
#X connect 66 0 67 0;
#X connect 66 0 71 0;
#X connect 67 0 66 1;
#X connect 68 0 66 1;
#X connect 69 0 65 0;
#X connect 70 0 50 2;
#X connect 71 0 63 0;
#X connect 71 1 59 0;
#X connect 71 2 62 0;
#X connect 72 0 73 2;
#X connect 73 0 51 0;
#X connect 74 0 50 1;
#X restore 130 12 pd initialize;
#X obj 392 505 r NB2_VEL_INPUT_SIG;
#X obj 731 469 r NB2_PROB_INPUT_SIG;
#X obj 58 546 r TGL_STEP_INPUT_SIG;
#X obj 433 592 array get \$0-vel-t1, f 21;
#X obj 838 590 array get \$0-prob-t1, f 21;
#X obj 1382 114 pack 0 \$0;
#X msg 1382 144 symbol \$2-pattern-\$1;
#X obj 1382 90 + 1;
#X obj 1253 295 array get \$0-pattern-1;
#X obj 1224 123 until;
#X msg 1224 101 4;
#X obj 1253 158 int;
#X obj 1281 157 + 1;
#X obj 1253 64 t b b f;
#X msg 1268 134 0;
#X obj 1424 296 pack 0 \$0;
#X obj 1424 272 + 1;
#X obj 1253 197 t f f, f 29;
#X msg 1318 264 64;
#X obj 1253 233 * 64;
#X obj 1253 42 r PATTERN_SEL;
#X text 1334 65 Loading from pattern into lenght;
#X obj 1253 363 array set \$0-len-t1;
#X obj 1432 345 print LEN;
#X msg 1424 323 symbol \$2-len-t\$1;
#X obj 1253 264 + 768;
#X obj 1266 322 print LEN;
#X obj 1280 759 array set \$0-pattern-1;
#X obj 1409 694 pack 0 \$0;
#X msg 1409 724 symbol \$2-pattern-\$1;
#X obj 1409 670 + 1;
#X obj 1280 543 t b l;
#X obj 1280 628 t l b;
#X obj 1409 646 r PATTERN_SEL;
#X obj 1403 456 r TRACK_SEL;
#X obj 1403 509 pack 0 \$0;
#X obj 1403 485 + 1;
#X msg 1313 650 64;
#X obj 1313 699 * 0;
#X obj 1328 672 r TRACK_SEL;
#X obj 1307 570 array set \$0-prob-t2;
#X obj 1280 518 r \$0-prob-input;
#X obj 1173 478 r NB2_LEN_INPUT_SIG;
#X msg 1403 539 symbol \$2-len-t\$1;
#X obj 1280 599 array get \$0-len-t1, f 21;
#X obj 1328 729 + 768;
#X text 1342 622 Writing from lenght into pattern;
#X connect 1 0 2 0;
#X connect 2 0 4 2;
#X connect 3 0 1 0;
#X connect 4 0 0 0;
#X connect 4 0 110 0;
#X connect 5 0 7 0;
#X connect 6 0 5 0;
#X connect 7 0 8 0;
#X connect 7 0 13 0;
#X connect 8 0 7 1;
#X connect 9 0 7 1;
#X connect 10 0 12 0;
#X connect 11 0 10 0;
#X connect 12 0 0 2;
#X connect 12 0 107 0;
#X connect 13 0 17 0;
#X connect 13 1 11 0;
#X connect 16 0 4 1;
#X connect 17 0 4 0;
#X connect 19 0 20 0;
#X connect 20 0 18 2;
#X connect 21 0 19 0;
#X connect 22 0 18 0;
#X connect 22 1 29 0;
#X connect 23 0 115 0;
#X connect 24 0 21 0;
#X connect 25 0 27 0;
#X connect 26 0 28 0;
#X connect 27 0 26 0;
#X connect 28 0 114 2;
#X connect 29 0 30 0;
#X connect 30 0 18 1;
#X connect 31 0 30 1;
#X connect 33 0 34 0;
#X connect 34 0 36 2;
#X connect 35 0 33 0;
#X connect 36 0 50 0;
#X connect 36 0 111 0;
#X connect 37 0 39 0;
#X connect 38 0 37 0;
#X connect 39 0 40 0;
#X connect 39 0 45 0;
#X connect 40 0 39 1;
#X connect 41 0 38 0;
#X connect 41 1 46 0;
#X connect 41 1 42 0;
#X connect 41 2 35 0;
#X connect 42 0 39 1;
#X connect 43 0 51 0;
#X connect 44 0 43 0;
#X connect 45 0 47 0;
#X connect 45 1 44 0;
#X connect 46 0 36 1;
#X connect 47 0 52 0;
#X connect 48 0 41 0;
#X connect 51 0 50 2;
#X connect 51 0 108 0;
#X connect 52 0 36 0;
#X connect 53 0 54 0;
#X connect 54 0 56 2;
#X connect 55 0 53 0;
#X connect 56 0 71 0;
#X connect 56 0 112 0;
#X connect 57 0 59 0;
#X connect 58 0 57 0;
#X connect 59 0 60 0;
#X connect 59 0 65 0;
#X connect 60 0 59 1;
#X connect 61 0 58 0;
#X connect 61 1 66 0;
#X connect 61 1 62 0;
#X connect 61 2 55 0;
#X connect 62 0 59 1;
#X connect 63 0 70 0;
#X connect 64 0 63 0;
#X connect 65 0 67 0;
#X connect 65 1 64 0;
#X connect 66 0 56 1;
#X connect 67 0 72 0;
#X connect 68 0 61 0;
#X connect 70 0 71 2;
#X connect 70 0 109 0;
#X connect 72 0 56 0;
#X connect 74 0 75 0;
#X connect 75 0 73 2;
#X connect 76 0 74 0;
#X connect 77 0 120 0;
#X connect 77 1 89 0;
#X connect 78 0 73 0;
#X connect 78 1 83 0;
#X connect 79 0 76 0;
#X connect 80 0 82 0;
#X connect 81 0 88 0;
#X connect 82 0 81 0;
#X connect 83 0 84 0;
#X connect 84 0 87 0;
#X connect 85 0 84 1;
#X connect 87 0 73 1;
#X connect 88 0 89 2;
#X connect 88 0 120 2;
#X connect 91 0 92 0;
#X connect 92 0 90 2;
#X connect 93 0 91 0;
#X connect 94 1 104 0;
#X connect 95 0 90 0;
#X connect 95 1 100 0;
#X connect 96 0 93 0;
#X connect 97 0 99 0;
#X connect 98 0 103 0;
#X connect 99 0 98 0;
#X connect 100 0 101 0;
#X connect 101 0 105 0;
#X connect 102 0 101 1;
#X connect 103 0 104 2;
#X connect 103 0 121 2;
#X connect 105 0 90 1;
#X connect 106 0 94 0;
#X connect 114 0 22 0;
#X connect 115 0 6 0;
#X connect 115 1 9 0;
#X connect 115 1 16 0;
#X connect 115 2 3 0;
#X connect 117 0 120 0;
#X connect 118 0 121 0;
#X connect 119 0 114 0;
#X connect 120 0 78 0;
#X connect 121 0 95 0;
#X connect 122 0 123 0;
#X connect 123 0 125 2;
#X connect 124 0 122 0;
#X connect 125 0 139 0;
#X connect 125 0 143 0;
#X connect 126 0 128 0;
#X connect 127 0 126 0;
#X connect 128 0 129 0;
#X connect 128 0 134 0;
#X connect 129 0 128 1;
#X connect 130 0 127 0;
#X connect 130 1 135 0;
#X connect 130 1 131 0;
#X connect 130 2 124 0;
#X connect 131 0 128 1;
#X connect 132 0 141 0;
#X connect 133 0 132 0;
#X connect 134 0 136 0;
#X connect 134 1 133 0;
#X connect 135 0 125 1;
#X connect 136 0 142 0;
#X connect 137 0 130 0;
#X connect 141 0 139 2;
#X connect 141 0 140 0;
#X connect 142 0 125 0;
#X connect 145 0 146 0;
#X connect 146 0 144 2;
#X connect 147 0 145 0;
#X connect 148 1 157 0;
#X connect 149 0 144 0;
#X connect 149 1 154 0;
#X connect 150 0 147 0;
#X connect 151 0 153 0;
#X connect 152 0 160 0;
#X connect 153 0 152 0;
#X connect 154 0 155 0;
#X connect 155 0 162 0;
#X connect 156 0 155 1;
#X connect 158 0 148 0;
#X connect 159 0 161 0;
#X connect 160 0 157 2;
#X connect 160 0 161 2;
#X connect 161 0 149 0;
#X connect 162 0 144 1;
#X restore 350 169 pd arrays;
#X obj 438 24 hradio 12 1 0 4 empty empty pattern 0 -9 0 10 #fcfcfc #000000 #000000 0;
#X obj 27 90 hradio 12 1 0 4 empty empty track 0 -9 0 10 #fcfcfc #000000 #000000 0;
#X obj 27 112 s TRACK_SEL;
#X obj 465 82 s PATTERN_SEL;
#X obj 519 60 print PATTERN;
#X obj 519 36 + 1;
#X obj 27 139 tgl 25 0 \$0-s-tgl-step-0 \$0-r-tgl-step-0 1 9 12 0 12 #fcfcfc #000000 #000000 0 1;
#X obj 58 139 tgl 25 0 \$0-s-tgl-step-1 \$0-r-tgl-step-1 2 9 12 0 12 #fcfcfc #000000 #000000 0 1;
#X obj 89 139 tgl 25 0 \$0-s-tgl-step-2 \$0-r-tgl-step-2 3 9 12 0 12 #fcfcfc #000000 #000000 0 1;
#X obj 120 139 tgl 25 0 \$0-s-tgl-step-3 \$0-r-tgl-step-3 4 9 12 0 12 #fcfcfc #000000 #000000 0 1;
#X obj 151 139 tgl 25 0 \$0-s-tgl-step-4 \$0-r-tgl-step-4 5 9 12 0 12 #fcfcfc #000000 #000000 0 1;
#X obj 182 139 tgl 25 0 \$0-s-tgl-step-5 \$0-r-tgl-step-5 6 9 12 0 12 #fcfcfc #000000 #000000 0 1;
#X obj 213 139 tgl 25 0 \$0-s-tgl-step-6 \$0-r-tgl-step-6 7 9 12 0 12 #fcfcfc #000000 #000000 0 1;
#X obj 244 139 tgl 25 0 \$0-s-tgl-step-7 \$0-r-tgl-step-7 8 9 12 0 12 #fcfcfc #000000 #000000 0 1;
#X obj 27 170 tgl 25 0 \$0-s-tgl-step-8 \$0-r-tgl-step-8 9 9 12 0 12 #fcfcfc #000000 #000000 0 1;
#X obj 58 170 tgl 25 0 \$0-s-tgl-step-9 \$0-r-tgl-step-9 10 6 12 0 12 #fcfcfc #000000 #000000 0 1;
#X obj 89 170 tgl 25 0 \$0-s-tgl-step-10 \$0-r-tgl-step-10 11 6 12 0 12 #fcfcfc #000000 #000000 0 1;
#X obj 120 170 tgl 25 0 \$0-s-tgl-step-11 \$0-r-tgl-step-11 12 6 12 0 12 #fcfcfc #000000 #000000 0 1;
#X obj 151 170 tgl 25 0 \$0-s-tgl-step-12 \$0-r-tgl-step-12 13 6 12 0 12 #fcfcfc #000000 #000000 0 1;
#X obj 182 170 tgl 25 0 \$0-s-tgl-step-13 \$0-r-tgl-step-13 14 6 12 0 12 #fcfcfc #000000 #000000 0 1;
#X obj 213 170 tgl 25 0 \$0-s-tgl-step-14 \$0-r-tgl-step-14 15 6 12 0 12 #fcfcfc #000000 #000000 0 1;
#X obj 244 170 tgl 25 0 \$0-s-tgl-step-15 \$0-r-tgl-step-15 16 6 12 0 12 #fcfcfc #000000 #000000 0 1;
#X obj 205 93 hradio 12 1 0 4 empty empty page 0 -9 0 10 #fcfcfc #000000 #000000 0;
#X obj 205 110 s PAGE_SEL;
#X obj 438 106 s \$0-pattern_changed;
#X obj 438 57 t f f;
#X obj 333 281 nbx 3 16 0 127 0 0 \$0-s-nb2-vel-0 \$0-r-nb2-vel-0 empty 0 -9 0 10 #fcfcfc #000000 #000000 0 256;
#X obj 375 281 nbx 3 16 0 127 0 0 \$0-s-nb2-vel-1 \$0-r-nb2-vel-1 empty 0 -9 0 10 #fcfcfc #000000 #000000 0 256;
#X obj 418 281 nbx 3 16 0 127 0 0 \$0-s-nb2-vel-2 \$0-r-nb2-vel-2 empty 0 -9 0 10 #fcfcfc #000000 #000000 0 256;
#X obj 460 281 nbx 3 16 0 127 0 0 \$0-s-nb2-vel-3 \$0-r-nb2-vel-3 empty 0 -9 0 10 #fcfcfc #000000 #000000 0 256;
#X obj 503 281 nbx 3 16 0 127 0 0 \$0-s-nb2-vel-4 \$0-r-nb2-vel-4 empty 0 -9 0 10 #fcfcfc #000000 #000000 0 256;
#X obj 545 281 nbx 3 16 0 127 0 0 \$0-s-nb2-vel-5 \$0-r-nb2-vel-5 empty 0 -9 0 10 #fcfcfc #000000 #000000 0 256;
#X obj 588 281 nbx 3 16 0 127 0 0 \$0-s-nb2-vel-6 \$0-r-nb2-vel-6 empty 0 -9 0 10 #fcfcfc #000000 #000000 0 256;
#X obj 630 281 nbx 3 16 0 127 0 0 \$0-s-nb2-vel-7 \$0-r-nb2-vel-7 empty 0 -9 0 10 #fcfcfc #000000 #000000 0 256;
#X obj 333 304 nbx 3 16 0 127 0 0 \$0-s-nb2-vel-8 \$0-r-nb2-vel-8 empty 0 -9 0 10 #fcfcfc #000000 #000000 0 256;
#X obj 375 304 nbx 3 16 0 127 0 0 \$0-s-nb2-vel-9 \$0-r-nb2-vel-9 empty 0 -9 0 10 #fcfcfc #000000 #000000 0 256;
#X obj 418 304 nbx 3 16 0 127 0 0 \$0-s-nb2-vel-10 \$0-r-nb2-vel-10 empty 0 -9 0 10 #fcfcfc #000000 #000000 0 256;
#X obj 460 304 nbx 3 16 0 127 0 0 \$0-s-nb2-vel-11 \$0-r-nb2-vel-11 empty 0 -9 0 10 #fcfcfc #000000 #000000 0 256;
#X obj 503 304 nbx 3 16 0 127 0 0 \$0-s-nb2-vel-12 \$0-r-nb2-vel-12 empty 0 -9 0 10 #fcfcfc #000000 #000000 0 256;
#X obj 545 304 nbx 3 16 0 127 0 0 \$0-s-nb2-vel-13 \$0-r-nb2-vel-13 empty 0 -9 0 10 #fcfcfc #000000 #000000 0 256;
#X obj 588 304 nbx 3 16 0 127 0 0 \$0-s-nb2-vel-14 \$0-r-nb2-vel-14 empty 0 -9 0 10 #fcfcfc #000000 #000000 0 256;
#X obj 630 304 nbx 3 16 0 127 0 0 \$0-s-nb2-vel-15 \$0-r-nb2-vel-15 empty 0 -9 0 10 #fcfcfc #000000 #000000 0 256;
#X obj 333 350 nbx 3 16 0 100 0 0 \$0-s-nb2-prob-0 \$0-r-nb2-prob-0 empty 0 -9 0 10 #fcfcfc #000000 #000000 0 256;
#X obj 375 350 nbx 3 16 0 100 0 0 \$0-s-nb2-prob-1 \$0-r-nb2-prob-1 empty 0 -9 0 10 #fcfcfc #000000 #000000 0 256;
#X obj 418 350 nbx 3 16 0 100 0 0 \$0-s-nb2-prob-2 \$0-r-nb2-prob-2 empty 0 -9 0 10 #fcfcfc #000000 #000000 0 256;
#X obj 460 350 nbx 3 16 0 100 0 0 \$0-s-nb2-prob-3 \$0-r-nb2-prob-3 empty 0 -9 0 10 #fcfcfc #000000 #000000 0 256;
#X obj 503 350 nbx 3 16 0 100 0 0 \$0-s-nb2-prob-4 \$0-r-nb2-prob-4 empty 0 -9 0 10 #fcfcfc #000000 #000000 0 256;
#X obj 545 350 nbx 3 16 0 100 0 0 \$0-s-nb2-prob-5 \$0-r-nb2-prob-5 empty 0 -9 0 10 #fcfcfc #000000 #000000 0 256;
#X obj 588 350 nbx 3 16 0 100 0 0 \$0-s-nb2-prob-6 \$0-r-nb2-prob-6 empty 0 -9 0 10 #fcfcfc #000000 #000000 0 256;
#X obj 630 350 nbx 3 16 0 100 0 0 \$0-s-nb2-prob-7 \$0-r-nb2-prob-7 empty 0 -9 0 10 #fcfcfc #000000 #000000 0 256;
#X obj 333 373 nbx 3 16 0 100 0 0 \$0-s-nb2-prob-8 \$0-r-nb2-prob-8 empty 0 -9 0 10 #fcfcfc #000000 #000000 0 256;
#X obj 375 373 nbx 3 16 0 100 0 0 \$0-s-nb2-prob-9 \$0-r-nb2-prob-9 empty 0 -9 0 10 #fcfcfc #000000 #000000 0 256;
#X obj 418 373 nbx 3 16 0 100 0 0 \$0-s-nb2-prob-10 \$0-r-nb2-prob-10 empty 0 -9 0 10 #fcfcfc #000000 #000000 0 256;
#X obj 460 373 nbx 3 16 0 100 0 0 \$0-s-nb2-prob-11 \$0-r-nb2-prob-11 empty 0 -9 0 10 #fcfcfc #000000 #000000 0 256;
#X obj 503 373 nbx 3 16 0 100 0 0 \$0-s-nb2-prob-12 \$0-r-nb2-prob-12 empty 0 -9 0 10 #fcfcfc #000000 #000000 0 256;
#X obj 545 373 nbx 3 16 0 100 0 0 \$0-s-nb2-prob-13 \$0-r-nb2-prob-13 empty 0 -9 0 10 #fcfcfc #000000 #000000 0 256;
#X obj 588 373 nbx 3 16 0 100 0 0 \$0-s-nb2-prob-14 \$0-r-nb2-prob-14 empty 0 -9 0 10 #fcfcfc #000000 #000000 0 256;
#X obj 630 373 nbx 3 16 0 100 0 0 \$0-s-nb2-prob-15 \$0-r-nb2-prob-15 empty 0 -9 0 10 #fcfcfc #000000 #000000 0 256;
#X text 331 262 Velocity;
#X text 330 333 Probability;
#N canvas 801 159 957 730 sound_test 0;
#N canvas 437 135 1589 774 seq-data 0;
#X obj 19 29 r COUNTER;
#X obj 19 78 mod 16;
#X obj 19 126 tabread \$0-steps-t1;
#X obj 19 148 sel 1;
#X obj 52 52 r \$0-steps-length-t1;
#X obj 19 219 int 127;
#X obj 72 202 tabread \$0-vel-t1;
#X obj 124 167 tabread \$0-prob-t1;
#X obj 19 102 t f f f, f 18;
#N canvas 734 377 450 300 prob 0;
#X obj 22 13 inlet;
#X obj 22 35 random 100;
#X obj 22 79 sel 1;
#X obj 22 101 outlet;
#X obj 136 40 inlet;
#X obj 22 57 < 100;
#X obj 87 109 outlet;
#X obj 87 84 t b;
#X connect 0 0 1 0;
#X connect 1 0 5 0;
#X connect 2 0 3 0;
#X connect 2 1 7 0;
#X connect 4 0 5 1;
#X connect 5 0 2 0;
#X connect 7 0 6 0;
#X restore 19 184 pd prob;
#X obj 58 205 bng 10 100 25 0 empty empty empty 0 -9 0 10 #fcfcfc #000000 #000000;
#X text 143 127 TRACK 1;
#X obj 19 314 s output-data-t1;
#X obj 84 233 tabread \$0-len-t1;
#X obj 19 268 pack 0 0;
#X msg 19 291 len \$2 \, vel \$1;
#X obj 265 35 r COUNTER;
#X obj 265 84 mod 16;
#X obj 265 154 sel 1;
#X obj 265 225 int 127;
#X obj 265 108 t f f f, f 18;
#N canvas 734 377 450 300 prob 0;
#X obj 22 13 inlet;
#X obj 22 35 random 100;
#X obj 22 79 sel 1;
#X obj 22 101 outlet;
#X obj 136 40 inlet;
#X obj 22 57 < 100;
#X obj 87 109 outlet;
#X obj 87 84 t b;
#X connect 0 0 1 0;
#X connect 1 0 5 0;
#X connect 2 0 3 0;
#X connect 2 1 7 0;
#X connect 4 0 5 1;
#X connect 5 0 2 0;
#X connect 7 0 6 0;
#X restore 265 190 pd prob;
#X obj 304 211 bng 10 100 25 0 empty empty empty 0 -9 0 10 #fcfcfc #000000 #000000;
#X obj 265 274 pack 0 0;
#X msg 265 297 len \$2 \, vel \$1;
#X obj 298 58 r \$0-steps-length-t2;
#X obj 265 132 tabread \$0-steps-t2;
#X text 389 133 TRACK 2;
#X obj 370 173 tabread \$0-prob-t2;
#X obj 318 208 tabread \$0-vel-t2;
#X obj 330 239 tabread \$0-len-t2;
#X obj 265 320 s output-data-t2;
#X connect 0 0 1 0;
#X connect 1 0 8 0;
#X connect 2 0 3 0;
#X connect 3 0 9 0;
#X connect 4 0 1 1;
#X connect 5 0 14 0;
#X connect 6 0 5 1;
#X connect 7 0 9 1;
#X connect 8 0 2 0;
#X connect 8 1 6 0;
#X connect 8 1 13 0;
#X connect 8 2 7 0;
#X connect 9 0 5 0;
#X connect 9 1 10 0;
#X connect 13 0 14 1;
#X connect 14 0 15 0;
#X connect 15 0 12 0;
#X connect 16 0 17 0;
#X connect 17 0 20 0;
#X connect 18 0 21 0;
#X connect 19 0 23 0;
#X connect 20 0 26 0;
#X connect 20 1 29 0;
#X connect 20 1 30 0;
#X connect 20 2 28 0;
#X connect 21 0 19 0;
#X connect 21 1 22 0;
#X connect 23 0 24 0;
#X connect 24 0 31 0;
#X connect 25 0 17 1;
#X connect 26 0 18 0;
#X connect 28 0 21 1;
#X connect 29 0 19 1;
#X connect 30 0 23 1;
#X restore 8 7 pd seq-data;
#X obj 8 39 catch~ dac;
#X obj 8 61 /~ 2;
#X obj 8 83 dac~;
#X obj 364 1100 throw~ dac;
#X obj 55 744 osc~;
#X obj 55 667 *~ 12;
#X obj 55 696 +~ 60;
#X floatatom 98 651 5 0 0 0 - - - 0;
#X floatatom 99 680 5 0 0 0 - - - 0;
#X obj 55 614 else/envgen~;
#X obj 55 636 pow~ 1;
#X obj 171 544 else/function 130 70 empty empty 0 1 220 220 220 50 50 50 0 0 0 0 0 1000 0;
#X msg 171 497 duration \$1 \, bang;
#X floatatom 171 473 5 0 0 0 - - - 0;
#X msg 181 527 width 130 \, height 70;
#X obj 55 821 *~;
#X floatatom 99 759 5 0 100 0 - - - 0;
#X obj 99 781 / 100;
#X obj 364 1069 *~;
#X obj 379 1006 line~;
#X obj 379 1028 pow~ 2;
#X msg 104 726 0;
#X obj 55 720 mtof~;
#X obj 364 755 osc~;
#X obj 364 678 *~ 12;
#X obj 364 707 +~ 60;
#X floatatom 407 662 5 0 0 0 - - - 0;
#X floatatom 408 691 5 0 0 0 - - - 0;
#X obj 364 625 else/envgen~;
#X obj 364 647 pow~ 1;
#X obj 481 555 else/function 130 70 empty empty 0 1 220 220 220 50 50 50 0 0 0 0 0 1000 0;
#X msg 481 508 duration \$1 \, bang;
#X floatatom 481 484 5 0 0 0 - - - 0;
#X msg 491 538 width 130 \, height 70;
#X obj 364 832 *~;
#X floatatom 408 770 5 0 100 0 - - - 0;
#X obj 408 792 / 100;
#X msg 412 737 0;
#X obj 364 731 mtof~;
#X msg 379 984 \$1 \, 0 \$2;
#X obj 379 962 pack 1 500;
#X obj 379 918 t f b;
#X obj 379 940 / 127;
#X obj 436 935 int 500;
#X obj 729 765 noise~;
#X obj 729 807 else/bandpass~ 1000 0.5;
#X obj 796 717 *~ 12;
#X obj 796 746 +~ 60;
#X obj 796 664 else/envgen~;
#X obj 796 686 pow~ 1;
#X obj 796 770 mtof~;
#X obj 910 594 else/function 130 70 empty empty 0 1 220 220 220 50 50 50 0 0 0 0 0 1000 0;
#X msg 910 547 duration \$1 \, bang;
#X floatatom 910 523 5 0 0 0 - - - 0;
#X msg 920 577 width 130 \, height 70;
#X obj 729 901 *~;
#X floatatom 773 839 5 0 100 0 - - - 0;
#X obj 773 884 f2s~ 25;
#X obj 773 861 / 100;
#X floatatom 864 756 5 0 0 0 - - - 0;
#X obj 864 777 else/f2s~ 20;
#X floatatom 840 701 5 0 0 0 - - - 0;
#X floatatom 842 730 5 0 0 0 - - - 0;
#X obj 621 745 t b;
#X obj 509 760 route vel len;
#X obj 509 728 r output-data-t2;
#X obj 509 786 s t2_vel;
#X obj 547 821 s t2_len;
#X obj 621 767 s t2_trg;
#X obj 135 698 r t2_trg;
#X obj 379 893 r t2_vel;
#X obj 475 905 r t2_len;
#X obj 431 715 r t2_trg;
#X obj 796 632 r t2_trg;
#X obj 364 577 r t2_trg;
#X obj 55 578 r t2_trg;
#X obj 99 804 else/f2s~ 25;
#X obj 408 815 else/f2s~ 25;
#X obj 38 249 clone machine 4;
#X obj 37 286 throw~ dac;
#X msg 85 225 vis 0 0;
#X msg 86 203 vis 0 1;
#X obj 414 66 else/function 160 70 \$0-s-func-osc1 \$0-r-func-osc1 0 1 220 220 220 50 50 50 0 0 0 0 1 100 0;
#X obj 217 77 nbx 3 16 -127 127 0 0 \$0-s-nb2-tone1-osc1 \$0-r-nb2-tone1-osc1 tone\ 1 0 -9 0 10 #fcfcfc #000000 #000000 0 256;
#X obj 269 77 nbx 3 16 -127 127 0 0 \$0-s-nb2-tone2-osc1 \$0-r-nb2-tone2-osc1 tone\ 2 0 -9 0 10 #fcfcfc #000000 #000000 0 256;
#X obj 217 119 nbx 3 16 0 100 0 0 \$0-s-nb2-vol-osc1 \$0-r-nb2-vol-osc1 vol 0 -9 0 10 #fcfcfc #000000 #000000 0 256;
#X obj 269 119 nbx 3 16 0 100 0 0 \$0-s-nb2-sweep-osc1 \$0-r-nb2-sweep-osc1 sweep 0 -9 0 10 #fcfcfc #000000 #000000 0 256;
#X obj 325 76 vradio 15 1 0 4 \$0-s-radio-wave-osc1 \$0-r-radio-wave-osc1 wave -5 -9 0 10 #fcfcfc #000000 #000000 0;
#X obj 360 76 nbx 3 16 0 1000 0 0 \$0-s-nb2-dur-osc1 \$0-r-nb2-dur-osc1 dur 0 -9 0 10 #fcfcfc #000000 #000000 0 256;
#X obj 351 106 cnv 18 55 30 empty empty OSC1 10 15 0 15 #e0e0e0 #404040 0;
#X obj 418 185 else/function 160 70 \$0-s-func-osc2 \$0-r-func-osc2 0 1 220 220 220 50 50 50 0 0 0 0 1 100 0;
#X obj 220 196 nbx 3 16 -127 127 0 0 \$0-s-nb2-tone1-osc2 \$0-r-nb2-tone1-osc2 tone\ 1 0 -9 0 10 #fcfcfc #000000 #000000 0 256;
#X obj 272 196 nbx 3 16 -127 127 0 0 \$0-s-nb2-tone2-osc2 \$0-r-nb2-tone2-osc2 tone\ 2 0 -9 0 10 #fcfcfc #000000 #000000 0 256;
#X obj 220 238 nbx 3 16 0 100 0 0 \$0-s-nb2-vol-osc2 \$0-r-nb2-vol-osc2 vol 0 -9 0 10 #fcfcfc #000000 #000000 0 256;
#X obj 272 238 nbx 3 16 0 100 0 0 \$0-s-nb2-sweep-osc2 \$0-r-nb2-sweep-osc2 sweep 0 -9 0 10 #fcfcfc #000000 #000000 0 256;
#X obj 328 195 vradio 15 1 0 4 \$0-s-radio-wave-osc2 \$0-r-radio-wave-osc2 wave -5 -9 0 10 #fcfcfc #000000 #000000 0;
#X obj 363 195 nbx 3 16 0 1000 0 0 \$0-s-nb2-dur-osc2 \$0-r-nb2-dur-osc2 dur 0 -9 0 10 #fcfcfc #000000 #000000 0 256;
#X obj 354 225 cnv 18 55 30 empty empty OSC2 10 15 0 15 #e0e0e0 #404040 0;
#X obj 421 300 else/function 160 70 \$0-s-func-osc3 \$0-r-func-osc3 0 1 220 220 220 50 50 50 0 0 0 0 1 100 0;
#X obj 223 311 nbx 3 16 -127 127 0 0 \$0-s-nb2-tone1-osc3 \$0-r-nb2-tone1-osc3 tone\ 1 0 -9 0 10 #fcfcfc #000000 #000000 0 256;
#X obj 275 311 nbx 3 16 -127 127 0 0 \$0-s-nb2-tone2-osc3 \$0-r-nb2-tone2-osc3 tone\ 2 0 -9 0 10 #fcfcfc #000000 #000000 0 256;
#X obj 223 353 nbx 3 16 0 100 0 0 \$0-s-nb2-vol-osc3 \$0-r-nb2-vol-osc3 vol 0 -9 0 10 #fcfcfc #000000 #000000 0 256;
#X obj 275 353 nbx 3 16 0 100 0 0 \$0-s-nb2-sweep-osc3 \$0-r-nb2-sweep-osc3 sweep 0 -9 0 10 #fcfcfc #000000 #000000 0 256;
#X obj 331 310 vradio 15 1 0 3 \$0-s-radio-filter-osc3 \$0-r-radio-filter-osc3 filter -10 -9 0 10 #fcfcfc #000000 #000000 0;
#X obj 366 310 nbx 3 16 0 1000 0 0 \$0-s-nb2-dur-osc3 \$0-r-nb2-dur-osc3 dur 0 -9 0 10 #fcfcfc #000000 #000000 0 256;
#X obj 357 340 cnv 18 55 30 empty empty NOIZ 10 15 0 15 #e0e0e0 #404040 0;
#N canvas 332 451 1335 474 track1-msg 0;
#X obj 70 24 r output-data-t1;
#X obj 137 150 list prepend 0 func1;
#X obj 70 47 list prepend 0;
#X obj 139 204 list prepend 0 func2;
#X obj 139 180 r \$0-s-func-osc2;
#X obj 137 127 r \$0-s-func-osc1;
#X obj 139 233 r \$0-s-func-osc3;
#X obj 139 257 list prepend 0 func3;
#X obj 70 387 outlet;
#X obj 292 111 r \$0-s-nb2-tone1-osc1;
#X obj 292 139 list prepend 0 tone1-osc1;
#X obj 459 110 r \$0-s-nb2-tone2-osc1;
#X obj 459 138 list prepend 0 tone2-osc1;
#X obj 295 186 r \$0-s-nb2-tone1-osc2;
#X obj 295 214 list prepend 0 tone1-osc2;
#X obj 462 185 r \$0-s-nb2-tone2-osc2;
#X obj 462 213 list prepend 0 tone2-osc2;
#X obj 297 268 r \$0-s-nb2-tone1-osc3;
#X obj 297 296 list prepend 0 tone1-osc3;
#X obj 464 267 r \$0-s-nb2-tone2-osc3;
#X obj 464 295 list prepend 0 tone2-osc3;
#X obj 669 110 r \$0-s-nb2-vol-osc1;
#X obj 669 136 list prepend 0 vol-osc1;
#X obj 666 182 r \$0-s-nb2-vol-osc2;
#X obj 666 208 list prepend 0 vol-osc2;
#X obj 669 264 r \$0-s-nb2-vol-osc3;
#X obj 669 290 list prepend 0 vol-osc3;
#X obj 851 118 r \$0-s-nb2-sweep-osc1;
#X obj 848 190 r \$0-s-nb2-sweep-osc2;
#X obj 851 144 list prepend 0 sweep-osc1;
#X obj 848 216 list prepend 0 sweep-osc2;
#X obj 851 298 list prepend 0 sweep-osc3;
#X obj 851 272 r \$0-s-nb2-sweep-osc3;
#X obj 1048 141 list prepend 0 wave-osc1;
#X obj 1045 234 list prepend 0 wave-osc2;
#X obj 1048 317 list prepend 0 filter-osc3;
#X obj 1048 90 r \$0-s-radio-wave-osc1;
#X obj 1045 187 r \$0-s-radio-wave-osc2;
#X obj 1048 269 r \$0-s-radio-filter-osc3;
#X obj 1048 116 + 1;
#X obj 1045 211 + 1;
#X obj 1048 293 + 1;
#X connect 0 0 2 0;
#X connect 1 0 8 0;
#X connect 2 0 8 0;
#X connect 3 0 8 0;
#X connect 4 0 3 0;
#X connect 5 0 1 0;
#X connect 6 0 7 0;
#X connect 7 0 8 0;
#X connect 9 0 10 0;
#X connect 10 0 8 0;
#X connect 11 0 12 0;
#X connect 12 0 8 0;
#X connect 13 0 14 0;
#X connect 14 0 8 0;
#X connect 15 0 16 0;
#X connect 16 0 8 0;
#X connect 17 0 18 0;
#X connect 18 0 8 0;
#X connect 19 0 20 0;
#X connect 20 0 8 0;
#X connect 21 0 22 0;
#X connect 22 0 8 0;
#X connect 23 0 24 0;
#X connect 24 0 8 0;
#X connect 25 0 26 0;
#X connect 26 0 8 0;
#X connect 27 0 29 0;
#X connect 28 0 30 0;
#X connect 29 0 8 0;
#X connect 30 0 8 0;
#X connect 31 0 8 0;
#X connect 32 0 31 0;
#X connect 33 0 8 0;
#X connect 34 0 8 0;
#X connect 35 0 8 0;
#X connect 36 0 39 0;
#X connect 37 0 40 0;
#X connect 38 0 41 0;
#X connect 39 0 33 0;
#X connect 40 0 34 0;
#X connect 41 0 35 0;
#X restore 38 175 pd track1-msg;
#N canvas 682 418 555 219 init-func 0;
#X msg 25 55 duration \$1 \, bang;
#X obj 42 81 loadbang;
#X obj 25 28 r \$0-s-nb2-dur-osc1;
#X msg 42 103 1 100 0 \, send \\\$0-s-func-osc1 \, receive \\\$0-r-func-osc1;
#X obj 25 140 outlet;
#X connect 0 0 4 0;
#X connect 1 0 3 0;
#X connect 2 0 0 0;
#X connect 3 0 4 0;
#X restore 414 38 pd init-func;
#N canvas 683 415 552 225 init-func 0;
#X msg 50 71 duration \$1 \, bang;
#X obj 66 97 loadbang;
#X obj 50 44 r \$0-s-nb2-dur-osc2;
#X msg 66 120 1 100 0 \, send \\\$0-s-func-osc2 \, receive \\\$0-r-func-osc2;
#X obj 50 155 outlet;
#X connect 0 0 4 0;
#X connect 1 0 3 0;
#X connect 2 0 0 0;
#X connect 3 0 4 0;
#X restore 418 156 pd init-func;
#N canvas 734 377 630 235 init-func 0;
#X msg 61 71 duration \$1 \, bang;
#X obj 77 97 loadbang;
#X msg 77 120 1 100 0 \, send \\\$0-s-func-osc3 \, receive \\\$0-r-func-osc3;
#X obj 61 44 r \$0-s-nb2-dur-osc3;
#X obj 61 176 outlet;
#X connect 0 0 4 0;
#X connect 1 0 2 0;
#X connect 2 0 4 0;
#X connect 3 0 0 0;
#X restore 421 273 pd init-func;
#N canvas 262 510 966 483 loadbang 0;
#X obj 24 16 loadbang;
#X obj 24 121 s \$0-r-nb2-tone2-osc1;
#X msg 24 91 60;
#X msg 165 92 72;
#X obj 165 122 s \$0-r-nb2-tone1-osc1;
#X msg 317 33 100;
#X obj 317 63 s \$0-r-nb2-vol-osc1;
#X msg 307 91 100;
#X obj 307 121 s \$0-r-nb2-dur-osc1;
#X obj 24 144 s \$0-r-nb2-tone2-osc2;
#X obj 24 167 s \$0-r-nb2-tone2-osc3;
#X obj 165 144 s \$0-r-nb2-tone1-osc2;
#X obj 165 166 s \$0-r-nb2-tone1-osc3;
#X obj 307 146 s \$0-r-nb2-dur-osc2;
#X obj 307 169 s \$0-r-nb2-dur-osc3;
#X msg 450 98 0;
#X obj 450 124 s \$0-r-radio-wave-osc1;
#X obj 450 149 s \$0-r-radio-wave-osc2;
#X obj 606 128 s \$0-r-radio-filter-osc3;
#X msg 606 100 1;
#X connect 0 0 2 0;
#X connect 0 0 3 0;
#X connect 0 0 5 0;
#X connect 0 0 7 0;
#X connect 0 0 15 0;
#X connect 0 0 19 0;
#X connect 2 0 1 0;
#X connect 2 0 9 0;
#X connect 2 0 10 0;
#X connect 3 0 4 0;
#X connect 3 0 11 0;
#X connect 3 0 12 0;
#X connect 5 0 6 0;
#X connect 7 0 8 0;
#X connect 7 0 13 0;
#X connect 7 0 14 0;
#X connect 15 0 16 0;
#X connect 15 0 17 0;
#X connect 19 0 18 0;
#X restore 98 7 pd loadbang;
#X connect 1 0 2 0;
#X connect 2 0 3 0;
#X connect 2 0 3 1;
#X connect 5 0 16 0;
#X connect 6 0 7 0;
#X connect 7 0 23 0;
#X connect 8 0 6 1;
#X connect 9 0 7 1;
#X connect 10 0 11 0;
#X connect 11 0 6 0;
#X connect 12 0 10 1;
#X connect 13 0 12 0;
#X connect 14 0 13 0;
#X connect 15 0 12 0;
#X connect 16 0 19 0;
#X connect 17 0 18 0;
#X connect 18 0 77 0;
#X connect 20 0 21 0;
#X connect 21 0 19 1;
#X connect 22 0 5 1;
#X connect 23 0 5 0;
#X connect 24 0 35 0;
#X connect 25 0 26 0;
#X connect 26 0 39 0;
#X connect 27 0 25 1;
#X connect 28 0 26 1;
#X connect 29 0 30 0;
#X connect 30 0 25 0;
#X connect 31 0 29 1;
#X connect 32 0 31 0;
#X connect 33 0 32 0;
#X connect 34 0 31 0;
#X connect 35 0 19 0;
#X connect 36 0 37 0;
#X connect 37 0 78 0;
#X connect 38 0 24 1;
#X connect 39 0 24 0;
#X connect 40 0 20 0;
#X connect 41 0 40 0;
#X connect 42 0 43 0;
#X connect 42 1 44 0;
#X connect 43 0 41 0;
#X connect 44 0 41 1;
#X connect 45 0 46 0;
#X connect 46 0 56 0;
#X connect 47 0 48 0;
#X connect 48 0 51 0;
#X connect 49 0 50 0;
#X connect 50 0 47 0;
#X connect 51 0 46 1;
#X connect 52 0 49 1;
#X connect 53 0 52 0;
#X connect 54 0 53 0;
#X connect 55 0 52 0;
#X connect 56 0 19 0;
#X connect 57 0 59 0;
#X connect 58 0 56 1;
#X connect 59 0 58 0;
#X connect 60 0 61 0;
#X connect 61 0 46 2;
#X connect 62 0 47 1;
#X connect 63 0 48 1;
#X connect 64 0 69 0;
#X connect 65 0 67 0;
#X connect 65 1 68 0;
#X connect 66 0 64 0;
#X connect 66 0 65 0;
#X connect 70 0 22 0;
#X connect 71 0 42 0;
#X connect 72 0 44 1;
#X connect 73 0 38 0;
#X connect 74 0 49 0;
#X connect 75 0 29 0;
#X connect 76 0 10 0;
#X connect 77 0 16 1;
#X connect 78 0 35 1;
#X connect 79 0 80 0;
#X connect 81 0 79 0;
#X connect 82 0 79 0;
#X connect 107 0 79 0;
#X connect 108 0 83 0;
#X connect 109 0 91 0;
#X connect 110 0 99 0;
#X restore 326 216 pd sound_test;
#X floatatom 65 23 4 0 0 2 bpm - - 0;
#X floatatom 86 87 5 1 64 2 Steps \$0-r-nb-t_steps \$0-s-nb-t_steps 0;
#X obj 333 416 nbx 3 16 0 1000 0 0 \$0-s-nb2-len-0 \$0-r-nb2-len-0 empty 0 -9 0 10 #fcfcfc #000000 #000000 0 256;
#X obj 375 416 nbx 3 16 0 1000 0 0 \$0-s-nb2-len-1 \$0-r-nb2-len-1 empty 0 -9 0 10 #fcfcfc #000000 #000000 0 256;
#X obj 418 416 nbx 3 16 0 1000 0 0 \$0-s-nb2-len-2 \$0-r-nb2-len-2 empty 0 -9 0 10 #fcfcfc #000000 #000000 0 256;
#X obj 460 416 nbx 3 16 0 1000 0 0 \$0-s-nb2-len-3 \$0-r-nb2-len-3 empty 0 -9 0 10 #fcfcfc #000000 #000000 0 256;
#X obj 503 416 nbx 3 16 0 1000 0 0 \$0-s-nb2-len-4 \$0-r-nb2-len-4 empty 0 -9 0 10 #fcfcfc #000000 #000000 0 256;
#X obj 545 416 nbx 3 16 0 1000 0 0 \$0-s-nb2-len-5 \$0-r-nb2-len-5 empty 0 -9 0 10 #fcfcfc #000000 #000000 0 256;
#X obj 588 416 nbx 3 16 0 1000 0 0 \$0-s-nb2-len-6 \$0-r-nb2-len-6 empty 0 -9 0 10 #fcfcfc #000000 #000000 0 256;
#X obj 630 416 nbx 3 16 0 1000 0 0 \$0-s-nb2-len-7 \$0-r-nb2-len-7 empty 0 -9 0 10 #fcfcfc #000000 #000000 0 256;
#X obj 333 439 nbx 3 16 0 1000 0 0 \$0-s-nb2-len-8 \$0-r-nb2-len-8 empty 0 -9 0 10 #fcfcfc #000000 #000000 0 256;
#X obj 375 439 nbx 3 16 0 1000 0 0 \$0-s-nb2-len-9 \$0-r-nb2-len-9 empty 0 -9 0 10 #fcfcfc #000000 #000000 0 256;
#X obj 418 439 nbx 3 16 0 1000 0 0 \$0-s-nb2-len-10 \$0-r-nb2-len-10 empty 0 -9 0 10 #fcfcfc #000000 #000000 0 256;
#X obj 460 439 nbx 3 16 0 1000 0 0 \$0-s-nb2-len-11 \$0-r-nb2-len-11 empty 0 -9 0 10 #fcfcfc #000000 #000000 0 256;
#X obj 503 439 nbx 3 16 0 1000 0 0 \$0-s-nb2-len-12 \$0-r-nb2-len-12 empty 0 -9 0 10 #fcfcfc #000000 #000000 0 256;
#X obj 545 439 nbx 3 16 0 1000 0 0 \$0-s-nb2-len-13 \$0-r-nb2-len-13 empty 0 -9 0 10 #fcfcfc #000000 #000000 0 256;
#X obj 588 439 nbx 3 16 0 1000 0 0 \$0-s-nb2-len-14 \$0-r-nb2-len-14 empty 0 -9 0 10 #fcfcfc #000000 #000000 0 256;
#X obj 630 439 nbx 3 16 0 1000 0 0 \$0-s-nb2-len-15 \$0-r-nb2-len-15 empty 0 -9 0 10 #fcfcfc #000000 #000000 0 256;
#X text 330 399 Lenght;
#N canvas 390 105 1779 837 interface 0;
#X obj 179 280 array set \$0-steps-t1;
#X obj 109 223 * 16;
#X obj 240 249 + 0, f 5;
#X obj 240 215 t b f;
#X obj 179 198 unpack;
#X obj 45 310 array get \$0-steps-t1;
#X obj 191 29 r TRACK_SEL;
#X obj 302 211 pack 0 \$0;
#X obj 302 187 + 1;
#N canvas 144 299 1631 457 handle_tgl_send 0;
#X obj 19 11 r \$0-s-tgl-step-0;
#X msg 19 33 \$1 0;
#X obj 69 33 r \$0-s-tgl-step-1;
#X msg 69 55 \$1 1;
#X msg 113 78 \$1 2;
#X msg 163 100 \$1 3;
#X obj 113 56 r \$0-s-tgl-step-2;
#X obj 163 78 r \$0-s-tgl-step-3;
#X msg 197 32 \$1 4;
#X msg 247 54 \$1 5;
#X msg 291 77 \$1 6;
#X msg 341 99 \$1 7;
#X obj 197 10 r \$0-s-tgl-step-4;
#X obj 247 32 r \$0-s-tgl-step-5;
#X obj 291 55 r \$0-s-tgl-step-6;
#X obj 341 77 r \$0-s-tgl-step-7;
#X msg 383 28 \$1 8;
#X msg 433 50 \$1 9;
#X msg 477 73 \$1 10;
#X msg 527 95 \$1 11;
#X obj 383 6 r \$0-s-tgl-step-8;
#X obj 433 28 r \$0-s-tgl-step-9;
#X obj 477 51 r \$0-s-tgl-step-10;
#X obj 527 73 r \$0-s-tgl-step-11;
#X msg 561 27 \$1 12;
#X msg 611 49 \$1 13;
#X msg 655 72 \$1 14;
#X msg 705 94 \$1 15;
#X obj 561 5 r \$0-s-tgl-step-12;
#X obj 611 27 r \$0-s-tgl-step-13;
#X obj 655 50 r \$0-s-tgl-step-14;
#X obj 705 72 r \$0-s-tgl-step-15;
#X obj 19 190 outlet;
#X connect 0 0 1 0;
#X connect 1 0 32 0;
#X connect 2 0 3 0;
#X connect 3 0 32 0;
#X connect 4 0 32 0;
#X connect 5 0 32 0;
#X connect 6 0 4 0;
#X connect 7 0 5 0;
#X connect 8 0 32 0;
#X connect 9 0 32 0;
#X connect 10 0 32 0;
#X connect 11 0 32 0;
#X connect 12 0 8 0;
#X connect 13 0 9 0;
#X connect 14 0 10 0;
#X connect 15 0 11 0;
#X connect 16 0 32 0;
#X connect 17 0 32 0;
#X connect 18 0 32 0;
#X connect 19 0 32 0;
#X connect 20 0 16 0;
#X connect 21 0 17 0;
#X connect 22 0 18 0;
#X connect 23 0 19 0;
#X connect 24 0 32 0;
#X connect 25 0 32 0;
#X connect 26 0 32 0;
#X connect 27 0 32 0;
#X connect 28 0 24 0;
#X connect 29 0 25 0;
#X connect 30 0 26 0;
#X connect 31 0 27 0;
#X restore 179 119 pd handle_tgl_send;
#X obj 45 82 r PAGE_SEL;
#X obj 45 281 * 16;
#X msg 107 269 16;
#X msg 302 243 symbol \$2-steps-t\$1;
#N canvas 628 225 662 605 handle_tgl_receive 0;
#X obj 37 37 inlet;
#X obj 37 68 unpack f f f f f f f f f f f f f f f f;
#X obj 37 94 s \$0-r-tgl-step-0;
#X obj 51 118 s \$0-r-tgl-step-1;
#X obj 67 145 s \$0-r-tgl-step-2;
#X obj 82 168 s \$0-r-tgl-step-3;
#X obj 97 195 s \$0-r-tgl-step-4;
#X obj 111 219 s \$0-r-tgl-step-5;
#X obj 127 246 s \$0-r-tgl-step-6;
#X obj 142 269 s \$0-r-tgl-step-7;
#X obj 157 294 s \$0-r-tgl-step-8;
#X obj 171 318 s \$0-r-tgl-step-9;
#X obj 187 345 s \$0-r-tgl-step-10;
#X obj 202 368 s \$0-r-tgl-step-11;
#X obj 217 395 s \$0-r-tgl-step-12;
#X obj 231 419 s \$0-r-tgl-step-13;
#X obj 247 446 s \$0-r-tgl-step-14;
#X obj 262 469 s \$0-r-tgl-step-15;
#X connect 0 0 1 0;
#X connect 1 0 2 0;
#X connect 1 1 3 0;
#X connect 1 2 4 0;
#X connect 1 3 5 0;
#X connect 1 4 6 0;
#X connect 1 5 7 0;
#X connect 1 6 8 0;
#X connect 1 7 9 0;
#X connect 1 8 10 0;
#X connect 1 9 11 0;
#X connect 1 10 12 0;
#X connect 1 11 13 0;
#X connect 1 12 14 0;
#X connect 1 13 15 0;
#X connect 1 14 16 0;
#X connect 1 15 17 0;
#X restore 45 352 pd handle_tgl_receive;
#X obj 45 206 t f b f;
#X text 201 297 Writing to array;
#X text 58 330 Loading from array;
#X obj 45 164 int, f 5;
#X obj 45 109 t b f;
#X obj 191 95 t b f, f 19;
#X obj 196 142 t b;
#X obj 191 73 int;
#X obj 191 51 t b f;
#X obj 38 26 r \$0-pattern_changed;
#X obj 542 228 * 16;
#X obj 673 255 + 0, f 5;
#X obj 673 221 t b f;
#X obj 612 204 unpack;
#X obj 624 34 r TRACK_SEL;
#X obj 735 217 pack 0 \$0;
#X obj 735 193 + 1;
#X obj 478 87 r PAGE_SEL;
#X obj 478 286 * 16;
#X msg 540 274 16;
#X obj 478 211 t f b f;
#X text 634 303 Writing to array;
#X text 491 335 Loading from array;
#X obj 478 169 int, f 5;
#X obj 478 114 t b f;
#X obj 624 100 t b f, f 19;
#X obj 629 147 t b;
#X obj 624 78 int;
#X obj 624 56 t b f;
#X obj 471 31 r \$0-pattern_changed;
#N canvas 144 299 1631 457 handle_vel_send 0;
#X msg 19 33 \$1 0;
#X msg 69 55 \$1 1;
#X msg 113 78 \$1 2;
#X msg 163 100 \$1 3;
#X msg 197 32 \$1 4;
#X msg 247 54 \$1 5;
#X msg 291 77 \$1 6;
#X msg 341 99 \$1 7;
#X msg 383 28 \$1 8;
#X msg 433 50 \$1 9;
#X msg 477 73 \$1 10;
#X msg 527 95 \$1 11;
#X msg 561 27 \$1 12;
#X msg 611 49 \$1 13;
#X msg 655 72 \$1 14;
#X msg 705 94 \$1 15;
#X obj 19 190 outlet;
#X obj 19 11 r \$0-s-nb2-vel-0;
#X obj 69 33 r \$0-s-nb2-vel-1;
#X obj 113 56 r \$0-s-nb2-vel-2;
#X obj 163 78 r \$0-s-nb2-vel-3;
#X obj 197 10 r \$0-s-nb2-vel-4;
#X obj 247 32 r \$0-s-nb2-vel-5;
#X obj 291 55 r \$0-s-nb2-vel-6;
#X obj 341 77 r \$0-s-nb2-vel-7;
#X obj 383 6 r \$0-s-nb2-vel-8;
#X obj 433 28 r \$0-s-nb2-vel-9;
#X obj 477 51 r \$0-s-nb2-vel-10;
#X obj 527 73 r \$0-s-nb2-vel-11;
#X obj 561 5 r \$0-s-nb2-vel-12;
#X obj 611 27 r \$0-s-nb2-vel-13;
#X obj 655 50 r \$0-s-nb2-vel-14;
#X obj 705 72 r \$0-s-nb2-vel-15;
#X connect 0 0 16 0;
#X connect 1 0 16 0;
#X connect 2 0 16 0;
#X connect 3 0 16 0;
#X connect 4 0 16 0;
#X connect 5 0 16 0;
#X connect 6 0 16 0;
#X connect 7 0 16 0;
#X connect 8 0 16 0;
#X connect 9 0 16 0;
#X connect 10 0 16 0;
#X connect 11 0 16 0;
#X connect 12 0 16 0;
#X connect 13 0 16 0;
#X connect 14 0 16 0;
#X connect 15 0 16 0;
#X connect 17 0 0 0;
#X connect 18 0 1 0;
#X connect 19 0 2 0;
#X connect 20 0 3 0;
#X connect 21 0 4 0;
#X connect 22 0 5 0;
#X connect 23 0 6 0;
#X connect 24 0 7 0;
#X connect 25 0 8 0;
#X connect 26 0 9 0;
#X connect 27 0 10 0;
#X connect 28 0 11 0;
#X connect 29 0 12 0;
#X connect 30 0 13 0;
#X connect 31 0 14 0;
#X connect 32 0 15 0;
#X restore 612 124 pd handle_vel_send;
#N canvas 628 225 662 605 handle_vel_receive 0;
#X obj 37 37 inlet;
#X obj 37 68 unpack f f f f f f f f f f f f f f f f;
#X obj 37 94 s \$0-r-nb2-vel-0;
#X obj 51 118 s \$0-r-nb2-vel-1;
#X obj 67 145 s \$0-r-nb2-vel-2;
#X obj 82 168 s \$0-r-nb2-vel-3;
#X obj 97 195 s \$0-r-nb2-vel-4;
#X obj 111 219 s \$0-r-nb2-vel-5;
#X obj 127 246 s \$0-r-nb2-vel-6;
#X obj 142 269 s \$0-r-nb2-vel-7;
#X obj 157 294 s \$0-r-nb2-vel-8;
#X obj 171 318 s \$0-r-nb2-vel-9;
#X obj 187 345 s \$0-r-nb2-vel-10;
#X obj 202 368 s \$0-r-nb2-vel-11;
#X obj 217 395 s \$0-r-nb2-vel-12;
#X obj 231 419 s \$0-r-nb2-vel-13;
#X obj 247 446 s \$0-r-nb2-vel-14;
#X obj 262 469 s \$0-r-nb2-vel-15;
#X connect 0 0 1 0;
#X connect 1 0 2 0;
#X connect 1 1 3 0;
#X connect 1 2 4 0;
#X connect 1 3 5 0;
#X connect 1 4 6 0;
#X connect 1 5 7 0;
#X connect 1 6 8 0;
#X connect 1 7 9 0;
#X connect 1 8 10 0;
#X connect 1 9 11 0;
#X connect 1 10 12 0;
#X connect 1 11 13 0;
#X connect 1 12 14 0;
#X connect 1 13 15 0;
#X connect 1 14 16 0;
#X connect 1 15 17 0;
#X restore 478 357 pd handle_vel_receive;
#X obj 612 286 array set \$0-vel-t1;
#X obj 478 315 array get \$0-vel-t1;
#X msg 735 249 symbol \$2-vel-t\$1;
#X obj 629 171 s NB2_VEL_INPUT_SIG;
#X obj 196 166 s TGL_STEP_INPUT_SIG;
#X obj 962 234 * 16;
#X obj 1093 261 + 0, f 5;
#X obj 1093 227 t b f;
#X obj 1032 210 unpack;
#X obj 1044 41 r TRACK_SEL;
#X obj 1155 223 pack 0 \$0;
#X obj 1155 199 + 1;
#X obj 898 93 r PAGE_SEL;
#X obj 898 292 * 16;
#X msg 960 280 16;
#X obj 898 217 t f b f;
#X text 1054 309 Writing to array;
#X text 911 341 Loading from array;
#X obj 898 175 int, f 5;
#X obj 898 120 t b f;
#X obj 1044 107 t b f, f 19;
#X obj 1049 153 t b;
#X obj 1044 85 int;
#X obj 1044 63 t b f;
#X obj 891 37 r \$0-pattern_changed;
#X obj 898 321 array get \$0-prob-t1;
#X obj 1032 292 array set \$0-prob-t1;
#X msg 1155 254 symbol \$2-prob-t\$1;
#X obj 1049 177 s NB2_PROB_INPUT_SIG;
#N canvas 144 299 1631 457 handle_prob_send 0;
#X msg 19 33 \$1 0;
#X msg 69 55 \$1 1;
#X msg 113 78 \$1 2;
#X msg 163 100 \$1 3;
#X msg 197 32 \$1 4;
#X msg 247 54 \$1 5;
#X msg 291 77 \$1 6;
#X msg 341 99 \$1 7;
#X msg 383 28 \$1 8;
#X msg 433 50 \$1 9;
#X msg 477 73 \$1 10;
#X msg 527 95 \$1 11;
#X msg 561 27 \$1 12;
#X msg 611 49 \$1 13;
#X msg 655 72 \$1 14;
#X msg 705 94 \$1 15;
#X obj 19 190 outlet;
#X obj 19 11 r \$0-s-nb2-prob-0;
#X obj 69 33 r \$0-s-nb2-prob-1;
#X obj 113 56 r \$0-s-nb2-prob-2;
#X obj 163 78 r \$0-s-nb2-prob-3;
#X obj 197 10 r \$0-s-nb2-prob-4;
#X obj 247 32 r \$0-s-nb2-prob-5;
#X obj 291 55 r \$0-s-nb2-prob-6;
#X obj 341 77 r \$0-s-nb2-prob-7;
#X obj 383 6 r \$0-s-nb2-prob-8;
#X obj 433 28 r \$0-s-nb2-prob-9;
#X obj 477 51 r \$0-s-nb2-prob-10;
#X obj 527 73 r \$0-s-nb2-prob-11;
#X obj 561 5 r \$0-s-nb2-prob-12;
#X obj 611 27 r \$0-s-nb2-prob-13;
#X obj 655 50 r \$0-s-nb2-prob-14;
#X obj 705 72 r \$0-s-nb2-prob-15;
#X connect 0 0 16 0;
#X connect 1 0 16 0;
#X connect 2 0 16 0;
#X connect 3 0 16 0;
#X connect 4 0 16 0;
#X connect 5 0 16 0;
#X connect 6 0 16 0;
#X connect 7 0 16 0;
#X connect 8 0 16 0;
#X connect 9 0 16 0;
#X connect 10 0 16 0;
#X connect 11 0 16 0;
#X connect 12 0 16 0;
#X connect 13 0 16 0;
#X connect 14 0 16 0;
#X connect 15 0 16 0;
#X connect 17 0 0 0;
#X connect 18 0 1 0;
#X connect 19 0 2 0;
#X connect 20 0 3 0;
#X connect 21 0 4 0;
#X connect 22 0 5 0;
#X connect 23 0 6 0;
#X connect 24 0 7 0;
#X connect 25 0 8 0;
#X connect 26 0 9 0;
#X connect 27 0 10 0;
#X connect 28 0 11 0;
#X connect 29 0 12 0;
#X connect 30 0 13 0;
#X connect 31 0 14 0;
#X connect 32 0 15 0;
#X restore 1032 130 pd handle_prob_send;
#N canvas 628 225 662 605 handle_prob_receive 0;
#X obj 37 37 inlet;
#X obj 37 68 unpack f f f f f f f f f f f f f f f f;
#X obj 37 94 s \$0-r-nb2-prob-0;
#X obj 51 118 s \$0-r-nb2-prob-1;
#X obj 67 145 s \$0-r-nb2-prob-2;
#X obj 82 168 s \$0-r-nb2-prob-3;
#X obj 97 195 s \$0-r-nb2-prob-4;
#X obj 111 219 s \$0-r-nb2-prob-5;
#X obj 127 246 s \$0-r-nb2-prob-6;
#X obj 142 269 s \$0-r-nb2-prob-7;
#X obj 157 294 s \$0-r-nb2-prob-8;
#X obj 171 318 s \$0-r-nb2-prob-9;
#X obj 187 345 s \$0-r-nb2-prob-10;
#X obj 202 368 s \$0-r-nb2-prob-11;
#X obj 217 395 s \$0-r-nb2-prob-12;
#X obj 231 419 s \$0-r-nb2-prob-13;
#X obj 247 446 s \$0-r-nb2-prob-14;
#X obj 262 469 s \$0-r-nb2-prob-15;
#X connect 0 0 1 0;
#X connect 1 0 2 0;
#X connect 1 1 3 0;
#X connect 1 2 4 0;
#X connect 1 3 5 0;
#X connect 1 4 6 0;
#X connect 1 5 7 0;
#X connect 1 6 8 0;
#X connect 1 7 9 0;
#X connect 1 8 10 0;
#X connect 1 9 11 0;
#X connect 1 10 12 0;
#X connect 1 11 13 0;
#X connect 1 12 14 0;
#X connect 1 13 15 0;
#X connect 1 14 16 0;
#X connect 1 15 17 0;
#X restore 898 363 pd handle_prob_receive;
#X obj 180 449 r \$0-s-nb-t_steps;
#X obj 253 474 r TRACK_SEL;
#X obj 180 503 array set \$0-steps_lenght;
#X obj 433 455 r TRACK_SEL;
#X obj 433 536 array get \$0-steps_lenght;
#X msg 506 500 1;
#X obj 433 478 t f b;
#X obj 433 593 s \$0-r-nb-t_steps;
#X msg 433 559 set \$1;
#X msg 231 583 symbol \$2-steps-length-t\$1;
#X obj 180 620 s, f 9;
#X obj 231 557 pack 1 \$0;
#X obj 231 530 + 1;
#X obj 1384 241 * 16;
#X obj 1515 268 + 0, f 5;
#X obj 1515 234 t b f;
#X obj 1454 217 unpack;
#X obj 1466 47 r TRACK_SEL;
#X obj 1577 230 pack 0 \$0;
#X obj 1577 206 + 1;
#X obj 1320 100 r PAGE_SEL;
#X obj 1320 299 * 16;
#X msg 1382 287 16;
#X obj 1320 224 t f b f;
#X text 1476 316 Writing to array;
#X text 1333 348 Loading from array;
#X obj 1320 182 int, f 5;
#X obj 1320 127 t b f;
#X obj 1466 113 t b f, f 19;
#X obj 1471 160 t b;
#X obj 1466 91 int;
#X obj 1466 69 t b f;
#X obj 1313 44 r \$0-pattern_changed;
#X obj 1320 329 array get \$0-len-t1;
#X obj 1454 299 array set \$0-len-t1;
#X msg 1577 262 symbol \$2-len-t\$1;
#X obj 1471 184 s NB2_LEN_INPUT_SIG;
#N canvas 628 225 662 605 handle_len_receive 0;
#X obj 37 37 inlet;
#X obj 37 68 unpack f f f f f f f f f f f f f f f f;
#X obj 37 94 s \$0-r-nb2-len-0;
#X obj 51 118 s \$0-r-nb2-len-1;
#X obj 67 145 s \$0-r-nb2-len-2;
#X obj 82 168 s \$0-r-nb2-len-3;
#X obj 97 195 s \$0-r-nb2-len-4;
#X obj 111 219 s \$0-r-nb2-len-5;
#X obj 127 246 s \$0-r-nb2-len-6;
#X obj 142 269 s \$0-r-nb2-len-7;
#X obj 157 294 s \$0-r-nb2-len-8;
#X obj 171 318 s \$0-r-nb2-len-9;
#X obj 187 345 s \$0-r-nb2-len-10;
#X obj 202 368 s \$0-r-nb2-len-11;
#X obj 217 395 s \$0-r-nb2-len-12;
#X obj 231 419 s \$0-r-nb2-len-13;
#X obj 247 446 s \$0-r-nb2-len-14;
#X obj 262 469 s \$0-r-nb2-len-15;
#X connect 0 0 1 0;
#X connect 1 0 2 0;
#X connect 1 1 3 0;
#X connect 1 2 4 0;
#X connect 1 3 5 0;
#X connect 1 4 6 0;
#X connect 1 5 7 0;
#X connect 1 6 8 0;
#X connect 1 7 9 0;
#X connect 1 8 10 0;
#X connect 1 9 11 0;
#X connect 1 10 12 0;
#X connect 1 11 13 0;
#X connect 1 12 14 0;
#X connect 1 13 15 0;
#X connect 1 14 16 0;
#X connect 1 15 17 0;
#X restore 1320 370 pd handle_len_receive;
#N canvas 144 299 1631 457 handle_len_send 0;
#X msg 19 33 \$1 0;
#X msg 69 55 \$1 1;
#X msg 113 78 \$1 2;
#X msg 163 100 \$1 3;
#X msg 197 32 \$1 4;
#X msg 247 54 \$1 5;
#X msg 291 77 \$1 6;
#X msg 341 99 \$1 7;
#X msg 383 28 \$1 8;
#X msg 433 50 \$1 9;
#X msg 477 73 \$1 10;
#X msg 527 95 \$1 11;
#X msg 561 27 \$1 12;
#X msg 611 49 \$1 13;
#X msg 655 72 \$1 14;
#X msg 705 94 \$1 15;
#X obj 19 190 outlet;
#X obj 19 11 r \$0-s-nb2-len-0;
#X obj 69 33 r \$0-s-nb2-len-1;
#X obj 113 56 r \$0-s-nb2-len-2;
#X obj 163 78 r \$0-s-nb2-len-3;
#X obj 197 10 r \$0-s-nb2-len-4;
#X obj 247 32 r \$0-s-nb2-len-5;
#X obj 291 55 r \$0-s-nb2-len-6;
#X obj 341 77 r \$0-s-nb2-len-7;
#X obj 383 6 r \$0-s-nb2-len-8;
#X obj 433 28 r \$0-s-nb2-len-9;
#X obj 477 51 r \$0-s-nb2-len-10;
#X obj 527 73 r \$0-s-nb2-len-11;
#X obj 561 5 r \$0-s-nb2-len-12;
#X obj 611 27 r \$0-s-nb2-len-13;
#X obj 655 50 r \$0-s-nb2-len-14;
#X obj 705 72 r \$0-s-nb2-len-15;
#X connect 0 0 16 0;
#X connect 1 0 16 0;
#X connect 2 0 16 0;
#X connect 3 0 16 0;
#X connect 4 0 16 0;
#X connect 5 0 16 0;
#X connect 6 0 16 0;
#X connect 7 0 16 0;
#X connect 8 0 16 0;
#X connect 9 0 16 0;
#X connect 10 0 16 0;
#X connect 11 0 16 0;
#X connect 12 0 16 0;
#X connect 13 0 16 0;
#X connect 14 0 16 0;
#X connect 15 0 16 0;
#X connect 17 0 0 0;
#X connect 18 0 1 0;
#X connect 19 0 2 0;
#X connect 20 0 3 0;
#X connect 21 0 4 0;
#X connect 22 0 5 0;
#X connect 23 0 6 0;
#X connect 24 0 7 0;
#X connect 25 0 8 0;
#X connect 26 0 9 0;
#X connect 27 0 10 0;
#X connect 28 0 11 0;
#X connect 29 0 12 0;
#X connect 30 0 13 0;
#X connect 31 0 14 0;
#X connect 32 0 15 0;
#X restore 1454 137 pd handle_len_send;
#N canvas 464 295 1631 457 handle_slider_send 0;
#X msg 19 33 \$1 0;
#X msg 69 55 \$1 1;
#X msg 113 78 \$1 2;
#X msg 163 100 \$1 3;
#X msg 197 32 \$1 4;
#X msg 247 54 \$1 5;
#X msg 291 77 \$1 6;
#X msg 341 99 \$1 7;
#X msg 383 28 \$1 8;
#X msg 433 50 \$1 9;
#X msg 477 73 \$1 10;
#X msg 527 95 \$1 11;
#X msg 561 27 \$1 12;
#X msg 611 49 \$1 13;
#X msg 655 72 \$1 14;
#X msg 705 94 \$1 15;
#X obj 19 190 outlet;
#X obj 19 11 r \$0-s-vsld-0;
#X obj 69 33 r \$0-s-vsld-1;
#X obj 113 56 r \$0-s-vsld-2;
#X obj 163 78 r \$0-s-vsld-3;
#X obj 197 10 r \$0-s-vsld-4;
#X obj 247 32 r \$0-s-vsld-5;
#X obj 291 55 r \$0-s-vsld-6;
#X obj 341 77 r \$0-s-vsld-7;
#X obj 383 6 r \$0-s-vsld-8;
#X obj 433 28 r \$0-s-vsld-9;
#X obj 477 51 r \$0-s-vsld-10;
#X obj 527 73 r \$0-s-vsld-11;
#X obj 561 5 r \$0-s-vsld-12;
#X obj 611 27 r \$0-s-vsld-13;
#X obj 655 50 r \$0-s-vsld-14;
#X obj 705 72 r \$0-s-vsld-15;
#X connect 0 0 16 0;
#X connect 1 0 16 0;
#X connect 2 0 16 0;
#X connect 3 0 16 0;
#X connect 4 0 16 0;
#X connect 5 0 16 0;
#X connect 6 0 16 0;
#X connect 7 0 16 0;
#X connect 8 0 16 0;
#X connect 9 0 16 0;
#X connect 10 0 16 0;
#X connect 11 0 16 0;
#X connect 12 0 16 0;
#X connect 13 0 16 0;
#X connect 14 0 16 0;
#X connect 15 0 16 0;
#X connect 17 0 0 0;
#X connect 18 0 1 0;
#X connect 19 0 2 0;
#X connect 20 0 3 0;
#X connect 21 0 4 0;
#X connect 22 0 5 0;
#X connect 23 0 6 0;
#X connect 24 0 7 0;
#X connect 25 0 8 0;
#X connect 26 0 9 0;
#X connect 27 0 10 0;
#X connect 28 0 11 0;
#X connect 29 0 12 0;
#X connect 30 0 13 0;
#X connect 31 0 14 0;
#X connect 32 0 15 0;
#X restore 861 657 pd handle_slider_send;
#X obj 748 843 array get \$0-vel-t1;
#X obj 1046 519 r MODE_SEL;
#X obj 1047 611 sel 0 1 2, f 18;
#X obj 972 750 pack 0 symbol \$0;
#X msg 1047 634 symbol vel;
#X msg 1082 660 symbol prob;
#X msg 1117 685 symbol len;
#X msg 972 775 symbol \$3-\$2-t\$1;
#X obj 861 535 r TRACK_SEL;
#X obj 861 628 t b f, f 19;
#X obj 861 606 int, f 5;
#X obj 861 557 t b f;
#X obj 861 809 array set \$0-vel-t1;
#X obj 861 698 unpack;
#X obj 916 735 t b f;
#X obj 916 773 + 0, f 5;
#X obj 823 756 * 16;
#X obj 748 603 r PAGE_SEL;
#X obj 748 727 t f b f;
#X obj 748 685 int, f 5;
#X obj 748 630 t b f;
#N canvas 948 221 662 605 handle_slide_receive 0;
#X obj 37 37 inlet;
#X obj 37 68 unpack f f f f f f f f f f f f f f f f;
#X obj 37 94 s \$0-r-vsld-0;
#X obj 51 118 s \$0-r-vsld-1;
#X obj 67 145 s \$0-r-vsld-2;
#X obj 82 168 s \$0-r-vsld-3;
#X obj 97 195 s \$0-r-vsld-4;
#X obj 111 219 s \$0-r-vsld-5;
#X obj 127 246 s \$0-r-vsld-6;
#X obj 142 269 s \$0-r-vsld-7;
#X obj 157 294 s \$0-r-vsld-8;
#X obj 171 318 s \$0-r-vsld-9;
#X obj 187 345 s \$0-r-vsld-10;
#X obj 202 368 s \$0-r-vsld-11;
#X obj 217 395 s \$0-r-vsld-12;
#X obj 231 419 s \$0-r-vsld-13;
#X obj 247 446 s \$0-r-vsld-14;
#X obj 262 469 s \$0-r-vsld-15;
#X obj 430 32 r MODE_SEL;
#X obj 430 62 sel 0 1 2, f 18;
#X msg 320 183 range 0 127;
#X msg 354 208 range 0 100;
#X msg 411 246 range 1 1000;
#X connect 0 0 1 0;
#X connect 1 0 2 0;
#X connect 1 1 3 0;
#X connect 1 2 4 0;
#X connect 1 3 5 0;
#X connect 1 4 6 0;
#X connect 1 5 7 0;
#X connect 1 6 8 0;
#X connect 1 7 9 0;
#X connect 1 8 10 0;
#X connect 1 9 11 0;
#X connect 1 10 12 0;
#X connect 1 11 13 0;
#X connect 1 12 14 0;
#X connect 1 13 15 0;
#X connect 1 14 16 0;
#X connect 1 15 17 0;
#X connect 18 0 19 0;
#X connect 19 0 20 0;
#X connect 19 1 21 0;
#X connect 19 2 22 0;
#X connect 20 0 8 0;
#X connect 20 0 17 0;
#X connect 20 0 16 0;
#X connect 20 0 15 0;
#X connect 20 0 14 0;
#X connect 20 0 13 0;
#X connect 20 0 12 0;
#X connect 20 0 11 0;
#X connect 20 0 10 0;
#X connect 20 0 9 0;
#X connect 20 0 7 0;
#X connect 20 0 6 0;
#X connect 20 0 5 0;
#X connect 20 0 4 0;
#X connect 20 0 3 0;
#X connect 20 0 2 0;
#X connect 21 0 11 0;
#X connect 21 0 17 0;
#X connect 21 0 16 0;
#X connect 21 0 15 0;
#X connect 21 0 14 0;
#X connect 21 0 13 0;
#X connect 21 0 12 0;
#X connect 21 0 10 0;
#X connect 21 0 9 0;
#X connect 21 0 8 0;
#X connect 21 0 7 0;
#X connect 21 0 6 0;
#X connect 21 0 5 0;
#X connect 21 0 4 0;
#X connect 21 0 3 0;
#X connect 21 0 2 0;
#X connect 22 0 14 0;
#X connect 22 0 17 0;
#X connect 22 0 16 0;
#X connect 22 0 15 0;
#X connect 22 0 13 0;
#X connect 22 0 12 0;
#X connect 22 0 11 0;
#X connect 22 0 10 0;
#X connect 22 0 9 0;
#X connect 22 0 8 0;
#X connect 22 0 7 0;
#X connect 22 0 6 0;
#X connect 22 0 5 0;
#X connect 22 0 4 0;
#X connect 22 0 3 0;
#X connect 22 0 2 0;
#X restore 748 871 pd handle_slide_receive;
#X msg 804 802 16;
#X obj 748 786 * 16;
#X obj 907 674 t b;
#X obj 907 696 s SLIDER_INPUT_SIG;
#X obj 1289 932 array set \$0-pattern-1;
#X obj 1418 867 pack 0 \$0;
#X msg 1418 897 symbol \$2-pattern-\$1;
#X obj 1418 843 + 1;
#X obj 1289 801 t l b;
#X obj 1418 819 r PATTERN_SEL;
#X obj 1412 629 r TRACK_SEL;
#X obj 1412 658 + 1;
#X msg 1322 823 64;
#X obj 1322 872 * 0;
#X obj 1337 845 r TRACK_SEL;
#X text 1351 795 Writing from velocity into pattern;
#X obj 1337 902 + 256;
#X obj 1289 772 array get \$0-vel-t1, f 21;
#X obj 1248 685 r SLIDER_INPUT_SIG;
#X msg 1412 712 symbol \$3-\$2-t\$1;
#X obj 1412 684 pack 0 symbol \$0;
#X obj 1509 537 r MODE_SEL;
#X obj 1509 567 sel 0 1 2, f 18;
#X msg 1509 590 symbol vel;
#X msg 1544 616 symbol prob;
#X msg 1579 641 symbol len;
#X obj 1596 784 r MODE_SEL;
#X obj 1596 807 + 1;
#X obj 1596 830 * 256;
#X obj 972 720 + 1;
#X obj 1046 562 t b f;
#X obj 758 496 r \$0-pattern_changed;
#X connect 1 0 2 0;
#X connect 2 0 0 1;
#X connect 3 0 2 0;
#X connect 3 1 2 1;
#X connect 4 0 0 0;
#X connect 4 1 3 0;
#X connect 5 0 14 0;
#X connect 6 0 23 0;
#X connect 7 0 13 0;
#X connect 8 0 7 0;
#X connect 9 0 4 0;
#X connect 9 0 21 0;
#X connect 10 0 19 0;
#X connect 11 0 5 0;
#X connect 12 0 5 1;
#X connect 13 0 5 2;
#X connect 13 0 0 2;
#X connect 15 0 11 0;
#X connect 15 1 12 0;
#X connect 15 2 1 0;
#X connect 18 0 15 0;
#X connect 19 0 18 0;
#X connect 19 1 18 1;
#X connect 20 0 18 0;
#X connect 20 1 8 0;
#X connect 21 0 51 0;
#X connect 22 0 20 0;
#X connect 23 0 22 0;
#X connect 23 1 22 1;
#X connect 24 0 22 0;
#X connect 25 0 26 0;
#X connect 26 0 47 1;
#X connect 27 0 26 0;
#X connect 27 1 26 1;
#X connect 28 0 47 0;
#X connect 28 1 27 0;
#X connect 29 0 43 0;
#X connect 30 0 49 0;
#X connect 31 0 30 0;
#X connect 32 0 39 0;
#X connect 33 0 48 0;
#X connect 34 0 48 1;
#X connect 35 0 33 0;
#X connect 35 1 34 0;
#X connect 35 2 25 0;
#X connect 38 0 35 0;
#X connect 39 0 38 0;
#X connect 39 1 38 1;
#X connect 40 0 38 0;
#X connect 40 1 31 0;
#X connect 41 0 50 0;
#X connect 42 0 40 0;
#X connect 43 0 42 0;
#X connect 43 1 42 1;
#X connect 44 0 42 0;
#X connect 45 0 28 0;
#X connect 45 0 41 0;
#X connect 48 0 46 0;
#X connect 49 0 47 2;
#X connect 49 0 48 2;
#X connect 52 0 53 0;
#X connect 53 0 73 1;
#X connect 54 0 53 0;
#X connect 54 1 53 1;
#X connect 55 0 73 0;
#X connect 55 1 54 0;
#X connect 56 0 70 0;
#X connect 57 0 74 0;
#X connect 58 0 57 0;
#X connect 59 0 66 0;
#X connect 60 0 72 0;
#X connect 61 0 72 1;
#X connect 62 0 60 0;
#X connect 62 1 61 0;
#X connect 62 2 52 0;
#X connect 65 0 62 0;
#X connect 66 0 65 0;
#X connect 66 1 65 1;
#X connect 67 0 65 0;
#X connect 67 1 58 0;
#X connect 68 0 75 0;
#X connect 69 0 67 0;
#X connect 70 0 69 0;
#X connect 70 1 69 1;
#X connect 71 0 69 0;
#X connect 72 0 77 0;
#X connect 74 0 72 2;
#X connect 74 0 73 2;
#X connect 76 0 55 0;
#X connect 76 0 68 0;
#X connect 78 0 80 0;
#X connect 78 0 88 0;
#X connect 79 0 80 1;
#X connect 79 0 90 0;
#X connect 81 0 84 0;
#X connect 82 0 86 0;
#X connect 83 0 82 1;
#X connect 84 0 82 0;
#X connect 84 1 83 0;
#X connect 86 0 85 0;
#X connect 87 0 88 1;
#X connect 89 0 87 0;
#X connect 90 0 89 0;
#X connect 91 0 92 0;
#X connect 92 0 112 1;
#X connect 93 0 92 0;
#X connect 93 1 92 1;
#X connect 94 0 112 0;
#X connect 94 1 93 0;
#X connect 95 0 109 0;
#X connect 96 0 113 0;
#X connect 97 0 96 0;
#X connect 98 0 105 0;
#X connect 99 0 111 0;
#X connect 100 0 111 1;
#X connect 101 0 99 0;
#X connect 101 1 100 0;
#X connect 101 2 91 0;
#X connect 104 0 101 0;
#X connect 105 0 104 0;
#X connect 105 1 104 1;
#X connect 106 0 104 0;
#X connect 106 1 97 0;
#X connect 107 0 114 0;
#X connect 108 0 106 0;
#X connect 109 0 108 0;
#X connect 109 1 108 1;
#X connect 110 0 108 0;
#X connect 111 0 115 0;
#X connect 113 0 111 2;
#X connect 113 0 112 2;
#X connect 116 0 94 0;
#X connect 116 0 107 0;
#X connect 117 0 131 0;
#X connect 117 0 142 0;
#X connect 118 0 139 0;
#X connect 119 0 170 0;
#X connect 120 0 122 0;
#X connect 120 1 123 0;
#X connect 120 2 124 0;
#X connect 121 0 125 0;
#X connect 122 0 121 1;
#X connect 123 0 121 1;
#X connect 124 0 121 1;
#X connect 125 0 130 2;
#X connect 125 0 118 2;
#X connect 126 0 129 0;
#X connect 127 0 137 0;
#X connect 127 1 169 0;
#X connect 128 0 127 0;
#X connect 129 0 128 0;
#X connect 129 1 128 1;
#X connect 131 0 130 0;
#X connect 131 1 132 0;
#X connect 132 0 133 0;
#X connect 132 1 133 1;
#X connect 133 0 130 1;
#X connect 134 0 133 0;
#X connect 135 0 138 0;
#X connect 136 0 141 0;
#X connect 136 1 140 0;
#X connect 136 2 134 0;
#X connect 137 0 136 0;
#X connect 138 0 137 0;
#X connect 138 1 137 1;
#X connect 140 0 118 1;
#X connect 141 0 118 0;
#X connect 142 0 143 0;
#X connect 145 0 146 0;
#X connect 146 0 144 2;
#X connect 147 0 145 0;
#X connect 148 0 144 0;
#X connect 148 1 152 0;
#X connect 149 0 147 0;
#X connect 150 0 151 0;
#X connect 151 0 160 0;
#X connect 152 0 153 0;
#X connect 153 0 156 0;
#X connect 154 0 153 1;
#X connect 156 0 144 1;
#X connect 157 0 148 0;
#X connect 158 0 157 0;
#X connect 159 0 157 2;
#X connect 160 0 159 0;
#X connect 161 0 162 0;
#X connect 162 0 163 0;
#X connect 162 1 164 0;
#X connect 162 2 165 0;
#X connect 163 0 160 1;
#X connect 164 0 160 1;
#X connect 165 0 160 1;
#X connect 166 0 167 0;
#X connect 167 0 168 0;
#X connect 168 0 156 1;
#X connect 169 0 121 0;
#X connect 170 0 128 0;
#X connect 170 1 120 0;
#X connect 171 0 128 0;
#X restore 331 192 pd interface;
#X obj 27 277 vsl 25 85 0 127 0 0 \$0-s-vsld-0 \$0-r-vsld-0 empty 0 -9 0 10 #fcfcfc #000000 #000000 0 1;
#X obj 58 277 vsl 25 85 0 127 0 0 \$0-s-vsld-1 \$0-r-vsld-1 empty 0 -9 0 10 #fcfcfc #000000 #000000 0 1;
#X obj 89 277 vsl 25 85 0 127 0 0 \$0-s-vsld-2 \$0-r-vsld-2 empty 0 -9 0 10 #fcfcfc #000000 #000000 0 1;
#X obj 150 277 vsl 25 85 0 127 0 0 \$0-s-vsld-3 \$0-r-vsld-3 empty 0 -9 0 10 #fcfcfc #000000 #000000 0 1;
#X obj 120 277 vsl 25 85 0 127 0 0 \$0-s-vsld-4 \$0-r-vsld-4 empty 0 -9 0 10 #fcfcfc #000000 #000000 0 1;
#X obj 182 277 vsl 25 85 0 127 0 0 \$0-s-vsld-5 \$0-r-vsld-5 empty 0 -9 0 10 #fcfcfc #000000 #000000 0 1;
#X obj 213 277 vsl 25 85 0 127 0 0 \$0-s-vsld-6 \$0-r-vsld-6 empty 0 -9 0 10 #fcfcfc #000000 #000000 0 1;
#X obj 244 277 vsl 25 85 0 127 0 0 \$0-s-vsld-7 \$0-r-vsld-7 empty 0 -9 0 10 #fcfcfc #000000 #000000 0 1;
#X obj 27 372 vsl 25 85 0 127 0 0 \$0-s-vsld-8 \$0-r-vsld-8 empty 0 -9 0 10 #fcfcfc #000000 #000000 0 1;
#X obj 58 372 vsl 25 85 0 127 0 0 \$0-s-vsld-9 \$0-r-vsld-9 empty 0 -9 0 10 #fcfcfc #000000 #000000 0 1;
#X obj 89 372 vsl 25 85 0 127 0 0 \$0-s-vsld-10 \$0-r-vsld-10 empty 0 -9 0 10 #fcfcfc #000000 #000000 0 1;
#X obj 120 372 vsl 25 85 0 127 0 0 \$0-s-vsld-11 \$0-r-vsld-11 empty 0 -9 0 10 #fcfcfc #000000 #000000 0 1;
#X obj 151 372 vsl 25 85 0 127 0 0 \$0-s-vsld-12 \$0-r-vsld-12 empty 0 -9 0 10 #fcfcfc #000000 #000000 0 1;
#X obj 182 372 vsl 25 85 0 127 0 0 \$0-s-vsld-13 \$0-r-vsld-13 empty 0 -9 0 10 #fcfcfc #000000 #000000 0 1;
#X obj 213 372 vsl 25 85 0 127 0 0 \$0-s-vsld-14 \$0-r-vsld-14 empty 0 -9 0 10 #fcfcfc #000000 #000000 0 1;
#X obj 244 372 vsl 25 85 0 127 0 0 \$0-s-vsld-15 \$0-r-vsld-15 empty 0 -9 0 10 #fcfcfc #000000 #000000 0 1;
#X obj 27 225 hradio 12 1 0 4 empty empty V\ P\ L 3 -9 0 10 #fcfcfc #000000 #000000 0;
#N canvas 1017 307 625 520 clock 0;
#X obj 63 79 else/tempo -mul 4 100;
#X obj 63 121 int;
#X obj 98 121 + 1;
#X obj 63 143 s COUNTER;
#X msg 235 104 0;
#X obj 47 46 inlet;
#X obj 126 43 inlet;
#X obj 197 38 inlet;
#X obj 252 43 inlet;
#X connect 0 0 1 0;
#X connect 1 0 2 0;
#X connect 1 0 3 0;
#X connect 2 0 1 1;
#X connect 4 0 1 1;
#X connect 5 0 0 0;
#X connect 6 0 0 1;
#X connect 7 0 0 2;
#X connect 8 0 4 0;
#X restore 26 48 pd clock;
#X f 20;
#X obj 143 20 bng 18 250 50 0 empty empty empty 0 -9 0 10 #fcfcfc #000000 #000000;
#X floatatom 104 23 4 0 0 0 - - - 0;
#X obj 27 242 s MODE_SEL;
#X connect 0 0 100 0;
#X connect 2 0 7 0;
#X connect 2 0 27 0;
#X connect 3 0 4 0;
#X connect 7 0 6 0;
#X connect 24 0 25 0;
#X connect 27 0 26 0;
#X connect 27 1 5 0;
#X connect 63 0 100 1;
#X connect 99 0 103 0;
#X connect 101 0 100 3;
#X connect 102 0 100 2;
