#N canvas 442 279 873 503 10;
#X obj 242 179 *~ 12;
#X obj 242 208 +~ 60;
#X obj 242 90 else/envgen~;
#X obj 242 148 pow~ 1;
#X obj 242 347 *~;
#X obj 286 307 / 100;
#X obj 226 414 *~;
#X obj 56 375 line~;
#X obj 56 397 pow~ 2;
#X obj 242 232 mtof~;
#X obj 414 191 *~ 12;
#X obj 414 220 +~ 60;
#X obj 414 97 else/envgen~;
#X obj 414 160 pow~ 1;
#X obj 414 358 *~;
#X obj 458 318 / 100;
#X obj 414 244 mtof~;
#X msg 56 353 \$1 \, 0 \$2;
#X obj 56 331 pack 1 500;
#X obj 56 286 t f b;
#X obj 56 309 / 127;
#X obj 113 304 int 500;
#X obj 577 214 noise~;
#X obj 644 166 *~ 12;
#X obj 644 195 +~ 60;
#X obj 644 86 else/envgen~;
#X obj 644 135 pow~ 1;
#X obj 644 219 mtof~;
#X obj 577 350 *~;
#X obj 621 310 / 100;
#X floatatom 712 205 5 0 0 0 - - - 0;
#X obj 458 341 else/f2s~ 25;
#X obj 621 333 else/f2s~ 25;
#X obj 226 445 outlet~;
#X text 55 186 AMP ENVELOPE;
#X text 241 31 OSCILLATOR 1;
#X text 409 42 OSCILLATOR 2;
#X text 644 30 NOISE SOURCE;
#X obj 43 37 inlet;
#X obj 56 208 r \$0-vel;
#X obj 152 274 r \$0-len;
#X obj 242 54 r \$0-trg;
#X obj 414 65 r \$0-trg;
#X obj 644 52 r \$0-trg;
#X obj 712 226 else/f2s~ 20 0.25;
#X obj 311 60 r \$0-func_1;
#X obj 483 69 r \$0-func_2;
#X obj 713 55 r \$0-func_3;
#N canvas 479 224 960 606 handle_inlet 0;
#X obj 43 497 s \$0-vel;
#X obj 79 473 s \$0-len;
#X obj 116 448 s \$0-func_1;
#X obj 152 418 s \$0-func_2;
#X obj 189 390 s \$0-func_3;
#X obj 43 35 inlet;
#X obj 43 331 route vel len func1 func2 func3;
#X obj 348 42 route tone1-osc1 tone1-osc2 tone1-osc3 tone2-osc1 tone2-osc2 tone2-osc3, f 80;
#X obj 347 253 route vol-osc1 vol-osc2 vol-osc3 sweep-osc1 sweep-osc2 sweep-osc3, f 67;
#X obj 346 468 route wave-osc1 wave-osc2 filter-osc3;
#X obj 348 189 s \$0-tone1-osc1;
#X obj 427 164 s \$0-tone1-osc2;
#X obj 507 141 s \$0-tone1-osc3;
#X obj 586 118 s \$0-tone2-osc1;
#X obj 666 95 s \$0-tone2-osc2;
#X obj 745 71 s \$0-tone2-osc3;
#X obj 347 400 s \$0-vol-osc1;
#X obj 413 377 s \$0-vol-osc2;
#X obj 480 353 s \$0-vol-osc3;
#X obj 546 328 s \$0-sweep-osc1;
#X obj 613 305 s \$0-sweep-osc2;
#X obj 679 282 s \$0-sweep-osc3;
#X obj 346 543 s \$0-wave-osc1;
#X obj 419 518 s \$0-wave-osc2;
#X obj 492 495 s \$0-filter-osc3;
#X connect 5 0 6 0;
#X connect 6 0 0 0;
#X connect 6 1 1 0;
#X connect 6 2 2 0;
#X connect 6 3 3 0;
#X connect 6 4 4 0;
#X connect 6 5 7 0;
#X connect 6 5 8 0;
#X connect 6 5 9 0;
#X connect 7 0 10 0;
#X connect 7 1 11 0;
#X connect 7 2 12 0;
#X connect 7 3 13 0;
#X connect 7 4 14 0;
#X connect 7 5 15 0;
#X connect 8 0 16 0;
#X connect 8 1 17 0;
#X connect 8 2 18 0;
#X connect 8 3 19 0;
#X connect 8 4 20 0;
#X connect 8 5 21 0;
#X connect 9 0 22 0;
#X connect 9 1 23 0;
#X connect 9 2 24 0;
#X restore 43 71 pd handle_inlet;
#X obj 286 283 r \$0-vol-osc1;
#X obj 458 293 r \$0-vol-osc2;
#X obj 621 285 r \$0-vol-osc3;
#X obj 286 330 else/f2s~ 25 1;
#N canvas 737 276 444 502 tones 0;
#X obj 43 27 r \$0-tone1-osc1;
#X obj 62 54 r \$0-tone2-osc1;
#X obj 43 157 -, f 4;
#X obj 62 120 t b f;
#X obj 43 190 outlet;
#X obj 81 89 outlet;
#X connect 0 0 2 0;
#X connect 1 0 3 0;
#X connect 1 0 5 0;
#X connect 2 0 4 0;
#X connect 3 0 2 0;
#X connect 3 1 2 1;
#X restore 293 148 pd tones;
#N canvas 737 276 444 502 tones 0;
#X obj 43 157 -, f 4;
#X obj 62 120 t b f;
#X obj 43 190 outlet;
#X obj 81 89 outlet;
#X obj 43 27 r \$0-tone1-osc2;
#X obj 62 54 r \$0-tone2-osc2;
#X connect 0 0 2 0;
#X connect 1 0 0 0;
#X connect 1 1 0 1;
#X connect 4 0 0 0;
#X connect 5 0 1 0;
#X connect 5 0 3 0;
#X restore 464 160 pd tones;
#N canvas 737 276 444 502 tones 0;
#X obj 43 157 -, f 4;
#X obj 62 120 t b f;
#X obj 43 190 outlet;
#X obj 81 89 outlet;
#X obj 43 27 r \$0-tone1-osc3;
#X obj 62 54 r \$0-tone2-osc3;
#X connect 0 0 2 0;
#X connect 1 0 0 0;
#X connect 1 1 0 1;
#X connect 4 0 0 0;
#X connect 5 0 1 0;
#X connect 5 0 3 0;
#X restore 692 138 pd tones;
#N canvas 734 377 559 340 sweep 0;
#X obj 41 20 r \$0-sweep-osc1;
#X obj 41 42 / 100;
#X obj 41 64 * 4;
#X obj 41 86 + 1;
#X obj 41 108 outlet;
#X connect 0 0 1 0;
#X connect 1 0 2 0;
#X connect 2 0 3 0;
#X connect 3 0 4 0;
#X restore 275 122 pd sweep;
#N canvas 680 357 559 340 sweep 0;
#X obj 41 42 / 100;
#X obj 41 64 * 4;
#X obj 41 86 + 1;
#X obj 41 108 outlet;
#X obj 41 20 r \$0-sweep-osc2;
#X connect 0 0 1 0;
#X connect 1 0 2 0;
#X connect 2 0 3 0;
#X connect 4 0 0 0;
#X restore 447 129 pd sweep;
#N canvas 680 357 559 340 sweep 0;
#X obj 41 42 / 100;
#X obj 41 64 * 4;
#X obj 41 86 + 1;
#X obj 41 108 outlet;
#X obj 41 20 r \$0-sweep-osc3;
#X connect 0 0 1 0;
#X connect 1 0 2 0;
#X connect 2 0 3 0;
#X connect 4 0 0 0;
#X restore 677 110 pd sweep;
#X obj 99 246 s \$0-trg;
#X obj 56 247 t f b;
#N canvas 687 304 557 465 wave~ 0;
#X obj 158 97 inlet~;
#X msg 419 86 0;
#X obj 419 62 r \$0-trg;
#X obj 159 399 outlet~;
#X obj 159 212 else/sine~;
#X obj 230 212 else/tri~;
#X obj 301 211 else/saw~;
#X obj 373 212 else/square~;
#X obj 160 273 else/select~ 4, f 36;
#X obj 52 214 r \$0-wave-osc1;
#X connect 0 0 4 0;
#X connect 0 0 7 0;
#X connect 0 0 6 0;
#X connect 0 0 5 0;
#X connect 1 0 4 1;
#X connect 1 0 5 1;
#X connect 1 0 6 1;
#X connect 1 0 7 2;
#X connect 2 0 1 0;
#X connect 4 0 8 0;
#X connect 5 0 8 1;
#X connect 6 0 8 2;
#X connect 7 0 8 3;
#X connect 8 0 3 0;
#X connect 9 0 8 0;
#X restore 242 255 pd wave~;
#N canvas 681 295 557 465 wave~ 0;
#X obj 158 97 inlet~;
#X msg 419 86 0;
#X obj 419 62 r \$0-trg;
#X obj 159 399 outlet~;
#X obj 159 212 else/sine~;
#X obj 230 212 else/tri~;
#X obj 301 211 else/saw~;
#X obj 373 212 else/square~;
#X obj 160 273 else/select~ 4, f 36;
#X obj 52 214 r \$0-wave-osc2;
#X connect 0 0 4 0;
#X connect 0 0 7 0;
#X connect 0 0 6 0;
#X connect 0 0 5 0;
#X connect 1 0 4 1;
#X connect 1 0 5 1;
#X connect 1 0 6 1;
#X connect 1 0 7 2;
#X connect 2 0 1 0;
#X connect 4 0 8 0;
#X connect 5 0 8 1;
#X connect 6 0 8 2;
#X connect 7 0 8 3;
#X connect 8 0 3 0;
#X connect 9 0 8 0;
#X restore 415 270 pd wave~;
#N canvas 309 452 601 380 filter~ 0;
#X obj 50 31 inlet~;
#X obj 48 308 outlet~;
#X obj 49 181 else/lowpass~ 1000 0.2;
#X obj 202 181 else/bandpass~ 1000 0.2;
#X obj 357 181 else/highpass~ 1000 0.2;
#X obj 49 250 else/select~ 3 1, f 52;
#X obj 74 216 r \$0-filter-osc3;
#X obj 205 31 inlet~;
#X obj 491 31 inlet~;
#X connect 0 0 2 0;
#X connect 0 0 3 0;
#X connect 0 0 4 0;
#X connect 2 0 5 0;
#X connect 3 0 5 1;
#X connect 4 0 5 2;
#X connect 5 0 1 0;
#X connect 6 0 5 0;
#X connect 7 0 2 1;
#X connect 7 0 3 1;
#X connect 7 0 4 1;
#X connect 8 0 2 2;
#X connect 8 0 3 2;
#X connect 8 0 4 2;
#X restore 577 255 pd filter~;
#X f 23;
#X connect 0 0 1 0;
#X connect 1 0 9 0;
#X connect 2 0 3 0;
#X connect 3 0 0 0;
#X connect 4 0 6 1;
#X connect 5 0 52 0;
#X connect 6 0 33 0;
#X connect 7 0 8 0;
#X connect 8 0 6 0;
#X connect 9 0 61 0;
#X connect 10 0 11 0;
#X connect 11 0 16 0;
#X connect 12 0 13 0;
#X connect 13 0 10 0;
#X connect 14 0 6 1;
#X connect 15 0 31 0;
#X connect 16 0 62 0;
#X connect 17 0 7 0;
#X connect 18 0 17 0;
#X connect 19 0 20 0;
#X connect 19 1 21 0;
#X connect 20 0 18 0;
#X connect 21 0 18 1;
#X connect 22 0 63 0;
#X connect 23 0 24 0;
#X connect 24 0 27 0;
#X connect 25 0 26 0;
#X connect 26 0 23 0;
#X connect 27 0 63 1;
#X connect 28 0 6 1;
#X connect 29 0 32 0;
#X connect 30 0 44 0;
#X connect 31 0 14 1;
#X connect 32 0 28 1;
#X connect 38 0 48 0;
#X connect 39 0 60 0;
#X connect 40 0 21 1;
#X connect 41 0 2 0;
#X connect 42 0 12 0;
#X connect 43 0 25 0;
#X connect 44 0 63 2;
#X connect 45 0 2 2;
#X connect 46 0 12 2;
#X connect 47 0 25 2;
#X connect 49 0 5 0;
#X connect 50 0 15 0;
#X connect 51 0 29 0;
#X connect 52 0 4 1;
#X connect 53 0 0 1;
#X connect 53 1 1 1;
#X connect 54 0 10 1;
#X connect 54 1 11 1;
#X connect 55 0 23 1;
#X connect 55 1 24 1;
#X connect 56 0 3 1;
#X connect 57 0 13 1;
#X connect 58 0 26 1;
#X connect 60 0 19 0;
#X connect 60 1 59 0;
#X connect 61 0 4 0;
#X connect 62 0 14 0;
#X connect 63 0 28 0;
